<ttFont>
    <TTGlyph name=".notdef" xMin="123" yMin="0" xMax="543" yMax="691">
      <contour>
        <pt x="123" y="691" on="1"/>
        <pt x="543" y="691" on="1"/>
        <pt x="543" y="0" on="1"/>
        <pt x="123" y="0" on="1"/>
      </contour>
      <contour>
        <pt x="489" y="52" on="1"/>
        <pt x="489" y="639" on="1"/>
        <pt x="178" y="639" on="1"/>
        <pt x="178" y="52" on="1"/>
      </contour>
      <contour>
        <pt x="340" y="254" on="1"/>
        <pt x="340" y="243" on="0"/>
        <pt x="324" y="230" on="0"/>
        <pt x="315" y="230" on="1"/>
        <pt x="305" y="230" on="0"/>
        <pt x="290" y="243" on="0"/>
        <pt x="290" y="254" on="1"/>
        <pt x="290" y="338" on="1"/>
        <pt x="344" y="341" on="0"/>
        <pt x="381" y="375" on="0"/>
        <pt x="381" y="415" on="1"/>
        <pt x="381" y="444" on="0"/>
        <pt x="358" y="484" on="0"/>
        <pt x="320" y="484" on="1"/>
        <pt x="291" y="484" on="0"/>
        <pt x="268" y="473" on="1"/>
        <pt x="260" y="470" on="0"/>
        <pt x="255" y="470" on="1"/>
        <pt x="244" y="470" on="0"/>
        <pt x="231" y="483" on="0"/>
        <pt x="231" y="493" on="1"/>
        <pt x="231" y="503" on="0"/>
        <pt x="249" y="518" on="0"/>
        <pt x="277" y="527" on="0"/>
        <pt x="309" y="532" on="0"/>
        <pt x="324" y="532" on="1"/>
        <pt x="356" y="532" on="0"/>
        <pt x="399" y="513" on="0"/>
        <pt x="424" y="481" on="0"/>
        <pt x="435" y="439" on="0"/>
        <pt x="435" y="417" on="1"/>
        <pt x="435" y="364" on="0"/>
        <pt x="391" y="307" on="0"/>
        <pt x="340" y="299" on="1"/>
      </contour>
      <contour>
        <pt x="280" y="166" on="1"/>
        <pt x="280" y="181" on="0"/>
        <pt x="300" y="201" on="0"/>
        <pt x="315" y="201" on="1"/>
        <pt x="330" y="201" on="0"/>
        <pt x="350" y="181" on="0"/>
        <pt x="350" y="166" on="1"/>
        <pt x="350" y="150" on="0"/>
        <pt x="330" y="129" on="0"/>
        <pt x="315" y="129" on="1"/>
        <pt x="300" y="129" on="0"/>
        <pt x="280" y="150" on="0"/>
      </contour>
    </TTGlyph>
    <TTGlyph name="A" xMin="-5" yMin="0" xMax="594" yMax="691">
      <contour>
        <pt x="408" y="160" on="1"/>
        <pt x="177" y="160" on="1"/>
        <pt x="133" y="0" on="1"/>
        <pt x="-5" y="0" on="1"/>
        <pt x="214" y="691" on="1"/>
        <pt x="377" y="691" on="1"/>
        <pt x="594" y="0" on="1"/>
        <pt x="452" y="0" on="1"/>
      </contour>
      <contour>
        <pt x="202" y="260" on="1"/>
        <pt x="383" y="260" on="1"/>
        <pt x="295" y="581" on="1"/>
        <pt x="291" y="581" on="1"/>
      </contour>
    </TTGlyph>
    <TTGlyph name="AE" xMin="-18" yMin="0" xMax="790" yMax="691">
      <contour>
        <pt x="417" y="160" on="1"/>
        <pt x="179" y="160" on="1"/>
        <pt x="122" y="0" on="1"/>
        <pt x="-18" y="0" on="1"/>
        <pt x="255" y="691" on="1"/>
        <pt x="751" y="691" on="1"/>
        <pt x="736" y="593" on="1"/>
        <pt x="448" y="593" on="1"/>
        <pt x="493" y="399" on="1"/>
        <pt x="742" y="399" on="1"/>
        <pt x="742" y="301" on="1"/>
        <pt x="514" y="301" on="1"/>
        <pt x="560" y="98" on="1"/>
        <pt x="790" y="98" on="1"/>
        <pt x="790" y="0" on="1"/>
        <pt x="451" y="0" on="1"/>
      </contour>
      <contour>
        <pt x="212" y="260" on="1"/>
        <pt x="399" y="260" on="1"/>
        <pt x="334" y="582" on="1"/>
        <pt x="329" y="582" on="1"/>
      </contour>
    </TTGlyph>
    <TTGlyph name="AEacute" xMin="-18" yMin="0" xMax="790" yMax="944">
      <component glyphName="AE" x="0" y="0" flags="0x204"/>
      <component glyphName="glyph00860" x="762" y="0" flags="0x4"/>
    </TTGlyph>
    <TTGlyph name="Aacute" xMin="-5" yMin="0" xMax="594" yMax="945">
      <component glyphName="A" x="0" y="0" flags="0x204"/>
      <component glyphName="glyph00860" x="564" y="1" flags="0x4"/>
    </TTGlyph>
    <TTGlyph name="Abreve" xMin="-5" yMin="0" xMax="594" yMax="919">
      <component glyphName="A" x="0" y="0" flags="0x204"/>
      <component glyphName="glyph00864" x="591" y="0" flags="0x4"/>
    </TTGlyph>
    <TTGlyph name="Acircumflex" xMin="-5" yMin="0" xMax="594" yMax="930">
      <component glyphName="A" x="0" y="0" flags="0x204"/>
      <component glyphName="glyph00861" x="597" y="0" flags="0x4"/>
    </TTGlyph>
    <TTGlyph name="Adieresis" xMin="-5" yMin="0" xMax="594" yMax="901">
      <component glyphName="A" x="0" y="0" flags="0x204"/>
      <component glyphName="glyph00866" x="645" y="0" flags="0x4"/>
    </TTGlyph>
    <TTGlyph name="Agrave" xMin="-5" yMin="0" xMax="594" yMax="944">
      <component glyphName="A" x="0" y="0" flags="0x204"/>
      <component glyphName="glyph00859" x="568" y="0" flags="0x4"/>
    </TTGlyph>
    <TTGlyph name="Alpha" xMin="-5" yMin="0" xMax="594" yMax="691">
      <component glyphName="A" x="0" y="0" flags="0x204"/>
    </TTGlyph>
    <TTGlyph name="Alphatonos" xMin="17" yMin="0" xMax="620" yMax="711">
      <component glyphName="A" x="26" y="0" flags="0x4"/>
      <component glyphName="glyph00884" x="166" y="0" flags="0x4"/>
    </TTGlyph>
    <TTGlyph name="Amacron" xMin="-5" yMin="0" xMax="594" yMax="881">
      <component glyphName="A" x="0" y="0" flags="0x204"/>
      <component glyphName="glyph00863" x="579" y="0" flags="0x4"/>
    </TTGlyph>
    <TTGlyph name="Aogonek" xMin="-5" yMin="-250" xMax="653" yMax="691">
      <contour>
        <pt x="408" y="160" on="1"/>
        <pt x="177" y="160" on="1"/>
        <pt x="133" y="0" on="1"/>
        <pt x="-5" y="0" on="1"/>
        <pt x="214" y="691" on="1"/>
        <pt x="377" y="691" on="1"/>
        <pt x="594" y="0" on="1"/>
        <pt x="566" y="-16" on="0"/>
        <pt x="530" y="-49" on="0"/>
        <pt x="510" y="-80" on="0"/>
        <pt x="502" y="-110" on="0"/>
        <pt x="502" y="-123" on="1"/>
        <pt x="502" y="-145" on="0"/>
        <pt x="530" y="-174" on="0"/>
        <pt x="560" y="-174" on="1"/>
        <pt x="580" y="-174" on="0"/>
        <pt x="614" y="-164" on="0"/>
        <pt x="624" y="-159" on="1"/>
        <pt x="653" y="-225" on="1"/>
        <pt x="604" y="-250" on="0"/>
        <pt x="547" y="-250" on="1"/>
        <pt x="482" y="-250" on="0"/>
        <pt x="408" y="-187" on="0"/>
        <pt x="408" y="-133" on="1"/>
        <pt x="408" y="-95" on="0"/>
        <pt x="460" y="-25" on="0"/>
        <pt x="507" y="0" on="1"/>
        <pt x="452" y="0" on="1"/>
      </contour>
      <contour>
        <pt x="202" y="260" on="1"/>
        <pt x="383" y="260" on="1"/>
        <pt x="295" y="581" on="1"/>
        <pt x="291" y="581" on="1"/>
      </contour>
    </TTGlyph>
    <TTGlyph name="Aring" xMin="-5" yMin="0" xMax="594" yMax="978">
      <component glyphName="A" x="0" y="0" flags="0x204"/>
      <component glyphName="glyph00867" x="579" y="0" flags="0x4"/>
    </TTGlyph>
    <TTGlyph name="Atilde" xMin="-5" yMin="0" xMax="594" yMax="911">
      <component glyphName="A" x="0" y="0" flags="0x204"/>
      <component glyphName="glyph00862" x="601" y="0" flags="0x4"/>
    </TTGlyph>
    <TTGlyph name="B" xMin="84" yMin="0" xMax="581" yMax="691">
      <contour>
        <pt x="443" y="203" on="1"/>
        <pt x="443" y="235" on="0"/>
        <pt x="424" y="278" on="0"/>
        <pt x="390" y="304" on="0"/>
        <pt x="343" y="315" on="0"/>
        <pt x="315" y="315" on="1"/>
        <pt x="217" y="315" on="1"/>
        <pt x="217" y="99" on="1"/>
        <pt x="309" y="99" on="1"/>
        <pt x="334" y="99" on="0"/>
        <pt x="382" y="107" on="0"/>
        <pt x="420" y="130" on="0"/>
        <pt x="443" y="171" on="0"/>
      </contour>
      <contour>
        <pt x="417" y="504" on="1"/>
        <pt x="417" y="552" on="0"/>
        <pt x="356" y="594" on="0"/>
        <pt x="299" y="594" on="1"/>
        <pt x="217" y="594" on="1"/>
        <pt x="217" y="407" on="1"/>
        <pt x="305" y="407" on="1"/>
        <pt x="362" y="407" on="0"/>
        <pt x="417" y="453" on="0"/>
      </contour>
      <contour>
        <pt x="581" y="200" on="1"/>
        <pt x="581" y="141" on="0"/>
        <pt x="535" y="64" on="0"/>
        <pt x="459" y="19" on="0"/>
        <pt x="360" y="0" on="0"/>
        <pt x="307" y="0" on="1"/>
        <pt x="84" y="0" on="1"/>
        <pt x="84" y="691" on="1"/>
        <pt x="295" y="691" on="1"/>
        <pt x="345" y="691" on="0"/>
        <pt x="438" y="674" on="0"/>
        <pt x="509" y="634" on="0"/>
        <pt x="552" y="566" on="0"/>
        <pt x="552" y="515" on="1"/>
        <pt x="552" y="483" on="0"/>
        <pt x="531" y="433" on="0"/>
        <pt x="496" y="397" on="0"/>
        <pt x="453" y="374" on="0"/>
        <pt x="432" y="369" on="1"/>
        <pt x="432" y="365" on="1"/>
        <pt x="457" y="360" on="0"/>
        <pt x="510" y="339" on="0"/>
        <pt x="554" y="300" on="0"/>
        <pt x="581" y="242" on="0"/>
      </contour>
    </TTGlyph>
    <TTGlyph name="Beta" xMin="84" yMin="0" xMax="581" yMax="691">
      <component glyphName="B" x="0" y="0" flags="0x204"/>
    </TTGlyph>
    <TTGlyph name="C" xMin="48" yMin="-15" xMax="563" yMax="706">
      <contour>
        <pt x="353" y="91" on="1"/>
        <pt x="404" y="91" on="0"/>
        <pt x="473" y="126" on="0"/>
        <pt x="500" y="149" on="1"/>
        <pt x="563" y="69" on="1"/>
        <pt x="528" y="36" on="0"/>
        <pt x="422" y="-15" on="0"/>
        <pt x="347" y="-15" on="1"/>
        <pt x="281" y="-15" on="0"/>
        <pt x="171" y="32" on="0"/>
        <pt x="92" y="124" on="0"/>
        <pt x="48" y="259" on="0"/>
        <pt x="48" y="347" on="1"/>
        <pt x="48" y="434" on="0"/>
        <pt x="95" y="568" on="0"/>
        <pt x="176" y="659" on="0"/>
        <pt x="285" y="706" on="0"/>
        <pt x="348" y="706" on="1"/>
        <pt x="416" y="706" on="0"/>
        <pt x="512" y="668" on="0"/>
        <pt x="554" y="633" on="1"/>
        <pt x="486" y="554" on="1"/>
        <pt x="427" y="604" on="0"/>
        <pt x="356" y="604" on="1"/>
        <pt x="321" y="604" on="0"/>
        <pt x="259" y="576" on="0"/>
        <pt x="213" y="514" on="0"/>
        <pt x="187" y="417" on="0"/>
        <pt x="187" y="347" on="1"/>
        <pt x="187" y="279" on="0"/>
        <pt x="212" y="182" on="0"/>
        <pt x="257" y="120" on="0"/>
        <pt x="317" y="91" on="0"/>
      </contour>
    </TTGlyph>
    <TTGlyph name="Cacute" xMin="48" yMin="-15" xMax="563" yMax="944">
      <component glyphName="C" x="0" y="0" flags="0x204"/>
      <component glyphName="glyph00860" x="608" y="0" flags="0x4"/>
    </TTGlyph>
    <TTGlyph name="Ccaron" xMin="48" yMin="-15" xMax="563" yMax="932">
      <component glyphName="C" x="0" y="0" flags="0x204"/>
      <component glyphName="glyph00869" x="634" y="0" flags="0x4"/>
    </TTGlyph>
    <TTGlyph name="Ccedilla" xMin="48" yMin="-253" xMax="563" yMax="706">
      <contour>
        <pt x="365" y="-143" on="1"/>
        <pt x="365" y="-120" on="0"/>
        <pt x="319" y="-106" on="0"/>
        <pt x="275" y="-106" on="1"/>
        <pt x="284" y="-9" on="1"/>
        <pt x="231" y="1" on="0"/>
        <pt x="144" y="57" on="0"/>
        <pt x="82" y="146" on="0"/>
        <pt x="48" y="269" on="0"/>
        <pt x="48" y="347" on="1"/>
        <pt x="48" y="434" on="0"/>
        <pt x="95" y="568" on="0"/>
        <pt x="176" y="659" on="0"/>
        <pt x="285" y="706" on="0"/>
        <pt x="348" y="706" on="1"/>
        <pt x="416" y="706" on="0"/>
        <pt x="512" y="668" on="0"/>
        <pt x="554" y="633" on="1"/>
        <pt x="486" y="554" on="1"/>
        <pt x="427" y="604" on="0"/>
        <pt x="356" y="604" on="1"/>
        <pt x="321" y="604" on="0"/>
        <pt x="259" y="576" on="0"/>
        <pt x="213" y="514" on="0"/>
        <pt x="187" y="417" on="0"/>
        <pt x="187" y="347" on="1"/>
        <pt x="187" y="279" on="0"/>
        <pt x="212" y="182" on="0"/>
        <pt x="257" y="120" on="0"/>
        <pt x="317" y="91" on="0"/>
        <pt x="353" y="91" on="1"/>
        <pt x="404" y="91" on="0"/>
        <pt x="473" y="126" on="0"/>
        <pt x="500" y="149" on="1"/>
        <pt x="563" y="69" on="1"/>
        <pt x="531" y="37" on="0"/>
        <pt x="432" y="-11" on="0"/>
        <pt x="363" y="-14" on="1"/>
        <pt x="363" y="-52" on="1"/>
        <pt x="414" y="-57" on="0"/>
        <pt x="462" y="-108" on="0"/>
        <pt x="462" y="-144" on="1"/>
        <pt x="462" y="-195" on="0"/>
        <pt x="384" y="-253" on="0"/>
        <pt x="324" y="-253" on="1"/>
        <pt x="290" y="-253" on="0"/>
        <pt x="231" y="-236" on="0"/>
        <pt x="211" y="-225" on="1"/>
        <pt x="245" y="-162" on="1"/>
        <pt x="275" y="-178" on="0"/>
        <pt x="309" y="-178" on="1"/>
        <pt x="335" y="-178" on="0"/>
        <pt x="365" y="-163" on="0"/>
      </contour>
    </TTGlyph>
    <TTGlyph name="Ccircumflex" xMin="48" yMin="-15" xMax="563" yMax="930">
      <component glyphName="C" x="0" y="0" flags="0x204"/>
      <component glyphName="glyph00861" x="641" y="0" flags="0x4"/>
    </TTGlyph>
    <TTGlyph name="Cdotaccent" xMin="48" yMin="-15" xMax="563" yMax="919">
      <component glyphName="C" x="0" y="0" flags="0x204"/>
      <component glyphName="glyph00865" x="610" y="0" flags="0x4"/>
    </TTGlyph>
    <TTGlyph name="Chi" xMin="0" yMin="0" xMax="572" yMax="691">
      <component glyphName="X" x="0" y="0" flags="0x204"/>
    </TTGlyph>
    <TTGlyph name="D" xMin="84" yMin="0" xMax="608" yMax="691">
      <contour>
        <pt x="470" y="349" on="1"/>
        <pt x="470" y="427" on="0"/>
        <pt x="438" y="522" on="0"/>
        <pt x="386" y="575" on="0"/>
        <pt x="319" y="592" on="0"/>
        <pt x="284" y="592" on="1"/>
        <pt x="217" y="592" on="1"/>
        <pt x="217" y="99" on="1"/>
        <pt x="284" y="99" on="1"/>
        <pt x="321" y="99" on="0"/>
        <pt x="388" y="121" on="0"/>
        <pt x="439" y="177" on="0"/>
        <pt x="470" y="274" on="0"/>
      </contour>
      <contour>
        <pt x="608" y="349" on="1"/>
        <pt x="608" y="243" on="0"/>
        <pt x="549" y="107" on="0"/>
        <pt x="455" y="29" on="0"/>
        <pt x="334" y="0" on="0"/>
        <pt x="273" y="0" on="1"/>
        <pt x="84" y="0" on="1"/>
        <pt x="84" y="691" on="1"/>
        <pt x="261" y="691" on="1"/>
        <pt x="327" y="691" on="0"/>
        <pt x="451" y="665" on="0"/>
        <pt x="549" y="590" on="0"/>
        <pt x="608" y="456" on="0"/>
      </contour>
    </TTGlyph>
    <TTGlyph name="Dcaron" xMin="84" yMin="0" xMax="608" yMax="932">
      <component glyphName="D" x="0" y="0" flags="0x204"/>
      <component glyphName="glyph00869" x="596" y="0" flags="0x4"/>
    </TTGlyph>
    <TTGlyph name="Dcroat" xMin="15" yMin="0" xMax="611" yMax="691">
      <contour>
        <pt x="611" y="349" on="1"/>
        <pt x="611" y="243" on="0"/>
        <pt x="552" y="107" on="0"/>
        <pt x="457" y="29" on="0"/>
        <pt x="336" y="0" on="0"/>
        <pt x="275" y="0" on="1"/>
        <pt x="86" y="0" on="1"/>
        <pt x="86" y="310" on="1"/>
        <pt x="15" y="310" on="1"/>
        <pt x="15" y="396" on="1"/>
        <pt x="86" y="396" on="1"/>
        <pt x="86" y="691" on="1"/>
        <pt x="264" y="691" on="1"/>
        <pt x="329" y="691" on="0"/>
        <pt x="454" y="665" on="0"/>
        <pt x="551" y="590" on="0"/>
        <pt x="611" y="456" on="0"/>
      </contour>
      <contour>
        <pt x="472" y="349" on="1"/>
        <pt x="472" y="427" on="0"/>
        <pt x="440" y="522" on="0"/>
        <pt x="388" y="575" on="0"/>
        <pt x="321" y="592" on="0"/>
        <pt x="286" y="592" on="1"/>
        <pt x="219" y="592" on="1"/>
        <pt x="219" y="396" on="1"/>
        <pt x="373" y="396" on="1"/>
        <pt x="373" y="310" on="1"/>
        <pt x="219" y="310" on="1"/>
        <pt x="219" y="99" on="1"/>
        <pt x="286" y="99" on="1"/>
        <pt x="323" y="99" on="0"/>
        <pt x="391" y="121" on="0"/>
        <pt x="442" y="177" on="0"/>
        <pt x="472" y="274" on="0"/>
      </contour>
    </TTGlyph>
    <TTGlyph name="Delta" xMin="-5" yMin="0" xMax="594" yMax="691">
      <contour>
        <pt x="214" y="691" on="1"/>
        <pt x="377" y="691" on="1"/>
        <pt x="594" y="0" on="1"/>
        <pt x="-5" y="0" on="1"/>
      </contour>
      <contour>
        <pt x="158" y="101" on="1"/>
        <pt x="427" y="101" on="1"/>
        <pt x="295" y="581" on="1"/>
        <pt x="291" y="581" on="1"/>
      </contour>
    </TTGlyph>
    <TTGlyph name="E" xMin="84" yMin="0" xMax="489" yMax="691">
      <contour>
        <pt x="217" y="593" on="1"/>
        <pt x="217" y="400" on="1"/>
        <pt x="438" y="400" on="1"/>
        <pt x="438" y="302" on="1"/>
        <pt x="217" y="302" on="1"/>
        <pt x="217" y="99" on="1"/>
        <pt x="489" y="99" on="1"/>
        <pt x="489" y="0" on="1"/>
        <pt x="84" y="0" on="1"/>
        <pt x="84" y="691" on="1"/>
        <pt x="485" y="691" on="1"/>
        <pt x="471" y="593" on="1"/>
      </contour>
    </TTGlyph>
    <TTGlyph name="Eacute" xMin="84" yMin="0" xMax="489" yMax="944">
      <component glyphName="E" x="0" y="0" flags="0x204"/>
      <component glyphName="glyph00860" x="563" y="0" flags="0x4"/>
    </TTGlyph>
    <TTGlyph name="Ebreve" xMin="84" yMin="0" xMax="489" yMax="919">
      <component glyphName="E" x="0" y="0" flags="0x204"/>
      <component glyphName="glyph00864" x="579" y="0" flags="0x4"/>
    </TTGlyph>
    <TTGlyph name="Ecaron" xMin="84" yMin="0" xMax="489" yMax="932">
      <component glyphName="E" x="0" y="0" flags="0x204"/>
      <component glyphName="glyph00869" x="580" y="0" flags="0x4"/>
    </TTGlyph>
    <TTGlyph name="Ecircumflex" xMin="84" yMin="0" xMax="489" yMax="930">
      <component glyphName="E" x="0" y="0" flags="0x204"/>
      <component glyphName="glyph00861" x="586" y="0" flags="0x4"/>
    </TTGlyph>
    <TTGlyph name="Edieresis" xMin="84" yMin="0" xMax="489" yMax="901">
      <component glyphName="E" x="0" y="0" flags="0x204"/>
      <component glyphName="glyph00866" x="632" y="0" flags="0x4"/>
    </TTGlyph>
    <TTGlyph name="Edotaccent" xMin="84" yMin="0" xMax="489" yMax="919">
      <component glyphName="E" x="0" y="0" flags="0x204"/>
      <component glyphName="glyph00865" x="553" y="0" flags="0x4"/>
    </TTGlyph>
    <TTGlyph name="Egrave" xMin="84" yMin="0" xMax="489" yMax="944">
      <component glyphName="E" x="0" y="0" flags="0x204"/>
      <component glyphName="glyph00859" x="562" y="0" flags="0x4"/>
    </TTGlyph>
    <TTGlyph name="Emacron" xMin="84" yMin="0" xMax="489" yMax="881">
      <component glyphName="E" x="0" y="0" flags="0x204"/>
      <component glyphName="glyph00863" x="567" y="0" flags="0x4"/>
    </TTGlyph>
    <TTGlyph name="Eng" xMin="84" yMin="-218" xMax="592" yMax="691">
      <contour>
        <pt x="592" y="23" on="1"/>
        <pt x="592" y="-29" on="0"/>
        <pt x="561" y="-107" on="0"/>
        <pt x="507" y="-164" on="0"/>
        <pt x="433" y="-203" on="0"/>
        <pt x="390" y="-218" on="1"/>
        <pt x="357" y="-124" on="1"/>
        <pt x="417" y="-101" on="0"/>
        <pt x="463" y="-45" on="0"/>
        <pt x="466" y="0" on="1"/>
        <pt x="419" y="0" on="1"/>
        <pt x="189" y="554" on="1"/>
        <pt x="185" y="554" on="1"/>
        <pt x="187" y="542" on="0"/>
        <pt x="194" y="489" on="0"/>
        <pt x="200" y="415" on="0"/>
        <pt x="205" y="329" on="0"/>
        <pt x="205" y="284" on="1"/>
        <pt x="205" y="0" on="1"/>
        <pt x="84" y="0" on="1"/>
        <pt x="84" y="691" on="1"/>
        <pt x="253" y="691" on="1"/>
        <pt x="487" y="135" on="1"/>
        <pt x="491" y="135" on="1"/>
        <pt x="488" y="148" on="0"/>
        <pt x="481" y="200" on="0"/>
        <pt x="475" y="270" on="0"/>
        <pt x="471" y="356" on="0"/>
        <pt x="471" y="404" on="1"/>
        <pt x="471" y="691" on="1"/>
        <pt x="592" y="691" on="1"/>
      </contour>
    </TTGlyph>
    <TTGlyph name="Eogonek" xMin="84" yMin="-250" xMax="547" yMax="691">
      <contour>
        <pt x="217" y="593" on="1"/>
        <pt x="217" y="400" on="1"/>
        <pt x="438" y="400" on="1"/>
        <pt x="438" y="302" on="1"/>
        <pt x="217" y="302" on="1"/>
        <pt x="217" y="98" on="1"/>
        <pt x="489" y="98" on="1"/>
        <pt x="489" y="0" on="1"/>
        <pt x="461" y="-16" on="0"/>
        <pt x="425" y="-49" on="0"/>
        <pt x="405" y="-81" on="0"/>
        <pt x="398" y="-110" on="0"/>
        <pt x="398" y="-123" on="1"/>
        <pt x="398" y="-145" on="0"/>
        <pt x="425" y="-174" on="0"/>
        <pt x="456" y="-174" on="1"/>
        <pt x="476" y="-174" on="0"/>
        <pt x="509" y="-164" on="0"/>
        <pt x="519" y="-159" on="1"/>
        <pt x="547" y="-225" on="1"/>
        <pt x="523" y="-238" on="0"/>
        <pt x="470" y="-250" on="0"/>
        <pt x="443" y="-250" on="1"/>
        <pt x="377" y="-250" on="0"/>
        <pt x="304" y="-187" on="0"/>
        <pt x="304" y="-133" on="1"/>
        <pt x="304" y="-95" on="0"/>
        <pt x="355" y="-25" on="0"/>
        <pt x="402" y="0" on="1"/>
        <pt x="84" y="0" on="1"/>
        <pt x="84" y="691" on="1"/>
        <pt x="485" y="691" on="1"/>
        <pt x="471" y="593" on="1"/>
      </contour>
    </TTGlyph>
    <TTGlyph name="Epsilon" xMin="84" yMin="0" xMax="489" yMax="691">
      <component glyphName="E" x="0" y="0" flags="0x204"/>
    </TTGlyph>
    <TTGlyph name="Epsilontonos" xMin="-23" yMin="0" xMax="591" yMax="711">
      <component glyphName="E" x="102" y="0" flags="0x4"/>
      <component glyphName="glyph00884" x="126" y="0" flags="0x4"/>
    </TTGlyph>
    <TTGlyph name="Eta" xMin="84" yMin="0" xMax="588" yMax="691">
      <component glyphName="H" x="0" y="0" flags="0x204"/>
    </TTGlyph>
    <TTGlyph name="Etatonos" xMin="-23" yMin="0" xMax="690" yMax="711">
      <component glyphName="H" x="102" y="0" flags="0x4"/>
      <component glyphName="glyph00884" x="126" y="0" flags="0x4"/>
    </TTGlyph>
    <TTGlyph name="Eth" xMin="15" yMin="0" xMax="611" yMax="691">
      <contour>
        <pt x="611" y="349" on="1"/>
        <pt x="611" y="243" on="0"/>
        <pt x="552" y="107" on="0"/>
        <pt x="457" y="29" on="0"/>
        <pt x="336" y="0" on="0"/>
        <pt x="275" y="0" on="1"/>
        <pt x="86" y="0" on="1"/>
        <pt x="86" y="310" on="1"/>
        <pt x="15" y="310" on="1"/>
        <pt x="15" y="396" on="1"/>
        <pt x="86" y="396" on="1"/>
        <pt x="86" y="691" on="1"/>
        <pt x="264" y="691" on="1"/>
        <pt x="329" y="691" on="0"/>
        <pt x="454" y="665" on="0"/>
        <pt x="551" y="590" on="0"/>
        <pt x="611" y="456" on="0"/>
      </contour>
      <contour>
        <pt x="472" y="349" on="1"/>
        <pt x="472" y="427" on="0"/>
        <pt x="440" y="522" on="0"/>
        <pt x="388" y="575" on="0"/>
        <pt x="321" y="592" on="0"/>
        <pt x="286" y="592" on="1"/>
        <pt x="219" y="592" on="1"/>
        <pt x="219" y="396" on="1"/>
        <pt x="373" y="396" on="1"/>
        <pt x="373" y="310" on="1"/>
        <pt x="219" y="310" on="1"/>
        <pt x="219" y="99" on="1"/>
        <pt x="286" y="99" on="1"/>
        <pt x="323" y="99" on="0"/>
        <pt x="391" y="121" on="0"/>
        <pt x="442" y="177" on="0"/>
        <pt x="472" y="274" on="0"/>
      </contour>
    </TTGlyph>
    <TTGlyph name="Euro" xMin="21" yMin="-15" xMax="551" yMax="706">
      <contour>
        <pt x="106" y="388" on="1"/>
        <pt x="21" y="388" on="1"/>
        <pt x="40" y="460" on="1"/>
        <pt x="115" y="460" on="1"/>
        <pt x="139" y="578" on="0"/>
        <pt x="281" y="706" on="0"/>
        <pt x="385" y="706" on="1"/>
        <pt x="442" y="706" on="0"/>
        <pt x="517" y="680" on="0"/>
        <pt x="551" y="657" on="1"/>
        <pt x="499" y="574" on="1"/>
        <pt x="471" y="592" on="0"/>
        <pt x="422" y="608" on="0"/>
        <pt x="391" y="608" on="1"/>
        <pt x="334" y="608" on="0"/>
        <pt x="259" y="540" on="0"/>
        <pt x="245" y="460" on="1"/>
        <pt x="467" y="460" on="1"/>
        <pt x="449" y="388" on="1"/>
        <pt x="236" y="388" on="1"/>
        <pt x="236" y="308" on="1"/>
        <pt x="432" y="308" on="1"/>
        <pt x="413" y="235" on="1"/>
        <pt x="242" y="235" on="1"/>
        <pt x="254" y="156" on="0"/>
        <pt x="323" y="84" on="0"/>
        <pt x="386" y="84" on="1"/>
        <pt x="429" y="84" on="0"/>
        <pt x="499" y="112" on="0"/>
        <pt x="526" y="132" on="1"/>
        <pt x="526" y="22" on="1"/>
        <pt x="494" y="5" on="0"/>
        <pt x="421" y="-15" on="0"/>
        <pt x="377" y="-15" on="1"/>
        <pt x="266" y="-15" on="0"/>
        <pt x="133" y="114" on="0"/>
        <pt x="113" y="235" on="1"/>
        <pt x="21" y="235" on="1"/>
        <pt x="39" y="308" on="1"/>
        <pt x="106" y="308" on="1"/>
      </contour>
    </TTGlyph>
    <TTGlyph name="F" xMin="84" yMin="0" xMax="476" yMax="691">
      <contour>
        <pt x="217" y="593" on="1"/>
        <pt x="217" y="386" on="1"/>
        <pt x="429" y="386" on="1"/>
        <pt x="429" y="288" on="1"/>
        <pt x="217" y="288" on="1"/>
        <pt x="217" y="0" on="1"/>
        <pt x="84" y="0" on="1"/>
        <pt x="84" y="691" on="1"/>
        <pt x="476" y="691" on="1"/>
        <pt x="461" y="593" on="1"/>
      </contour>
    </TTGlyph>
    <TTGlyph name="G" xMin="48" yMin="-15" xMax="590" yMax="706">
      <contour>
        <pt x="346" y="-15" on="1"/>
        <pt x="205" y="-15" on="0"/>
        <pt x="48" y="167" on="0"/>
        <pt x="48" y="346" on="1"/>
        <pt x="48" y="435" on="0"/>
        <pt x="100" y="570" on="0"/>
        <pt x="187" y="660" on="0"/>
        <pt x="302" y="706" on="0"/>
        <pt x="365" y="706" on="1"/>
        <pt x="439" y="706" on="0"/>
        <pt x="543" y="662" on="0"/>
        <pt x="585" y="624" on="1"/>
        <pt x="513" y="550" on="1"/>
        <pt x="481" y="579" on="0"/>
        <pt x="413" y="606" on="0"/>
        <pt x="370" y="606" on="1"/>
        <pt x="332" y="606" on="0"/>
        <pt x="266" y="578" on="0"/>
        <pt x="215" y="516" on="0"/>
        <pt x="186" y="417" on="0"/>
        <pt x="186" y="346" on="1"/>
        <pt x="186" y="275" on="0"/>
        <pt x="207" y="176" on="0"/>
        <pt x="249" y="114" on="0"/>
        <pt x="310" y="86" on="0"/>
        <pt x="350" y="86" on="1"/>
        <pt x="380" y="86" on="0"/>
        <pt x="436" y="99" on="0"/>
        <pt x="461" y="113" on="1"/>
        <pt x="461" y="291" on="1"/>
        <pt x="351" y="291" on="1"/>
        <pt x="338" y="389" on="1"/>
        <pt x="590" y="389" on="1"/>
        <pt x="590" y="53" on="1"/>
        <pt x="539" y="21" on="0"/>
        <pt x="418" y="-15" on="0"/>
      </contour>
    </TTGlyph>
    <TTGlyph name="Gamma" xMin="84" yMin="0" xMax="500" yMax="691">
      <component glyphName="uni0413" x="0" y="0" flags="0x204"/>
    </TTGlyph>
    <TTGlyph name="Gbreve" xMin="48" yMin="-15" xMax="590" yMax="919">
      <component glyphName="G" x="0" y="0" flags="0x204"/>
      <component glyphName="glyph00864" x="645" y="0" flags="0x4"/>
    </TTGlyph>
    <TTGlyph name="Gcircumflex" xMin="48" yMin="-15" xMax="590" yMax="930">
      <component glyphName="G" x="0" y="0" flags="0x204"/>
      <component glyphName="glyph00861" x="653" y="0" flags="0x4"/>
    </TTGlyph>
    <TTGlyph name="Gdotaccent" xMin="48" yMin="-15" xMax="590" yMax="919">
      <component glyphName="G" x="0" y="0" flags="0x204"/>
      <component glyphName="glyph00865" x="620" y="0" flags="0x4"/>
    </TTGlyph>
    <TTGlyph name="H" xMin="84" yMin="0" xMax="588" yMax="691">
      <contour>
        <pt x="455" y="0" on="1"/>
        <pt x="455" y="309" on="1"/>
        <pt x="217" y="309" on="1"/>
        <pt x="217" y="0" on="1"/>
        <pt x="84" y="0" on="1"/>
        <pt x="84" y="691" on="1"/>
        <pt x="217" y="691" on="1"/>
        <pt x="217" y="414" on="1"/>
        <pt x="455" y="414" on="1"/>
        <pt x="455" y="691" on="1"/>
        <pt x="588" y="691" on="1"/>
        <pt x="588" y="0" on="1"/>
      </contour>
    </TTGlyph>
    <TTGlyph name="Hbar" xMin="23" yMin="0" xMax="664" yMax="691">
      <contour>
        <pt x="463" y="0" on="1"/>
        <pt x="463" y="309" on="1"/>
        <pt x="224" y="309" on="1"/>
        <pt x="224" y="0" on="1"/>
        <pt x="91" y="0" on="1"/>
        <pt x="91" y="504" on="1"/>
        <pt x="23" y="504" on="1"/>
        <pt x="23" y="585" on="1"/>
        <pt x="91" y="585" on="1"/>
        <pt x="91" y="691" on="1"/>
        <pt x="224" y="691" on="1"/>
        <pt x="224" y="585" on="1"/>
        <pt x="463" y="585" on="1"/>
        <pt x="463" y="691" on="1"/>
        <pt x="596" y="691" on="1"/>
        <pt x="596" y="585" on="1"/>
        <pt x="664" y="585" on="1"/>
        <pt x="664" y="504" on="1"/>
        <pt x="596" y="504" on="1"/>
        <pt x="596" y="0" on="1"/>
      </contour>
      <contour>
        <pt x="463" y="414" on="1"/>
        <pt x="463" y="504" on="1"/>
        <pt x="224" y="504" on="1"/>
        <pt x="224" y="414" on="1"/>
      </contour>
    </TTGlyph>
    <TTGlyph name="Hcircumflex" xMin="84" yMin="0" xMax="588" yMax="930">
      <component glyphName="H" x="0" y="0" flags="0x204"/>
      <component glyphName="glyph00861" x="639" y="0" flags="0x4"/>
    </TTGlyph>
    <TTGlyph name="I" xMin="84" yMin="0" xMax="217" yMax="691">
      <contour>
        <pt x="84" y="0" on="1"/>
        <pt x="84" y="691" on="1"/>
        <pt x="217" y="691" on="1"/>
        <pt x="217" y="0" on="1"/>
      </contour>
    </TTGlyph>
    <TTGlyph name="IJ" xMin="84" yMin="-156" xMax="525" yMax="691">
      <component glyphName="I" x="0" y="0" flags="0x4"/>
      <component glyphName="J" x="299" y="0" flags="0x4"/>
    </TTGlyph>
    <TTGlyph name="Iacute" xMin="19" yMin="0" xMax="281" yMax="944">
      <component glyphName="I" x="0" y="0" flags="0x204"/>
      <component glyphName="glyph00860" x="420" y="0" flags="0x4"/>
    </TTGlyph>
    <TTGlyph name="Ibreve" xMin="-12" yMin="0" xMax="313" yMax="919">
      <component glyphName="I" x="0" y="0" flags="0x204"/>
      <component glyphName="glyph00864" x="447" y="0" flags="0x4"/>
    </TTGlyph>
    <TTGlyph name="Icircumflex" xMin="-28" yMin="0" xMax="330" yMax="930">
      <component glyphName="I" x="0" y="0" flags="0x204"/>
      <component glyphName="glyph00861" x="454" y="0" flags="0x4"/>
    </TTGlyph>
    <TTGlyph name="Idieresis" xMin="-31" yMin="0" xMax="333" yMax="901">
      <component glyphName="I" x="0" y="0" flags="0x204"/>
      <component glyphName="glyph00866" x="501" y="0" flags="0x4"/>
    </TTGlyph>
    <TTGlyph name="Idotaccent" xMin="70" yMin="0" xMax="230" yMax="919">
      <component glyphName="I" x="0" y="0" flags="0x204"/>
      <component glyphName="glyph00865" x="423" y="0" flags="0x4"/>
    </TTGlyph>
    <TTGlyph name="Igrave" xMin="17" yMin="0" xMax="280" yMax="944">
      <component glyphName="I" x="0" y="0" flags="0x204"/>
      <component glyphName="glyph00859" x="427" y="0" flags="0x4"/>
    </TTGlyph>
    <TTGlyph name="Imacron" xMin="4" yMin="0" xMax="295" yMax="881">
      <component glyphName="I" x="0" y="0" flags="0x204"/>
      <component glyphName="glyph00863" x="434" y="0" flags="0x4"/>
    </TTGlyph>
    <TTGlyph name="Iogonek" xMin="31" yMin="-250" xMax="276" yMax="691">
      <contour>
        <pt x="217" y="0" on="1"/>
        <pt x="189" y="-16" on="0"/>
        <pt x="153" y="-49" on="0"/>
        <pt x="133" y="-81" on="0"/>
        <pt x="125" y="-110" on="0"/>
        <pt x="125" y="-123" on="1"/>
        <pt x="125" y="-145" on="0"/>
        <pt x="153" y="-174" on="0"/>
        <pt x="183" y="-174" on="1"/>
        <pt x="203" y="-174" on="0"/>
        <pt x="237" y="-164" on="0"/>
        <pt x="247" y="-159" on="1"/>
        <pt x="276" y="-225" on="1"/>
        <pt x="227" y="-250" on="0"/>
        <pt x="170" y="-250" on="1"/>
        <pt x="105" y="-250" on="0"/>
        <pt x="31" y="-187" on="0"/>
        <pt x="31" y="-133" on="1"/>
        <pt x="31" y="-95" on="0"/>
        <pt x="83" y="-25" on="0"/>
        <pt x="130" y="0" on="1"/>
        <pt x="84" y="0" on="1"/>
        <pt x="84" y="691" on="1"/>
        <pt x="217" y="691" on="1"/>
      </contour>
    </TTGlyph>
    <TTGlyph name="Iota" xMin="84" yMin="0" xMax="217" yMax="691">
      <component glyphName="I" x="0" y="0" flags="0x204"/>
    </TTGlyph>
    <TTGlyph name="Iotadieresis" xMin="-32" yMin="0" xMax="332" yMax="901">
      <component glyphName="I" x="0" y="0" flags="0x204"/>
      <component glyphName="glyph00866" x="500" y="0" flags="0x4"/>
    </TTGlyph>
    <TTGlyph name="Iotatonos" xMin="-23" yMin="0" xMax="318" yMax="711">
      <component glyphName="I" x="101" y="0" flags="0x4"/>
      <component glyphName="glyph00884" x="126" y="0" flags="0x4"/>
    </TTGlyph>
    <TTGlyph name="Itilde" xMin="-27" yMin="0" xMax="329" yMax="911">
      <component glyphName="I" x="0" y="0" flags="0x204"/>
      <component glyphName="glyph00862" x="458" y="0" flags="0x4"/>
    </TTGlyph>
    <TTGlyph name="J" xMin="-11" yMin="-156" xMax="226" yMax="691">
      <contour>
        <pt x="-11" y="-58" on="1"/>
        <pt x="22" y="-45" on="0"/>
        <pt x="63" y="-15" on="0"/>
        <pt x="86" y="24" on="0"/>
        <pt x="93" y="73" on="0"/>
        <pt x="93" y="106" on="1"/>
        <pt x="93" y="691" on="1"/>
        <pt x="226" y="691" on="1"/>
        <pt x="226" y="101" on="1"/>
        <pt x="226" y="41" on="0"/>
        <pt x="195" y="-44" on="0"/>
        <pt x="140" y="-103" on="0"/>
        <pt x="66" y="-142" on="0"/>
        <pt x="24" y="-156" on="1"/>
      </contour>
    </TTGlyph>
    <TTGlyph name="Jcircumflex" xMin="-23" yMin="-156" xMax="335" yMax="930">
      <component glyphName="J" x="0" y="0" flags="0x204"/>
      <component glyphName="glyph00861" x="459" y="0" flags="0x4"/>
    </TTGlyph>
    <TTGlyph name="K" xMin="84" yMin="0" xMax="623" yMax="691">
      <contour>
        <pt x="217" y="0" on="1"/>
        <pt x="84" y="0" on="1"/>
        <pt x="84" y="691" on="1"/>
        <pt x="217" y="691" on="1"/>
      </contour>
      <contour>
        <pt x="222" y="369" on="1"/>
        <pt x="461" y="691" on="1"/>
        <pt x="604" y="691" on="1"/>
        <pt x="365" y="378" on="1"/>
        <pt x="623" y="0" on="1"/>
        <pt x="466" y="0" on="1"/>
      </contour>
    </TTGlyph>
    <TTGlyph name="Kappa" xMin="84" yMin="0" xMax="623" yMax="691">
      <component glyphName="K" x="0" y="0" flags="0x204"/>
    </TTGlyph>
    <TTGlyph name="L" xMin="84" yMin="0" xMax="493" yMax="691">
      <contour>
        <pt x="84" y="0" on="1"/>
        <pt x="84" y="691" on="1"/>
        <pt x="217" y="691" on="1"/>
        <pt x="217" y="108" on="1"/>
        <pt x="493" y="108" on="1"/>
        <pt x="478" y="0" on="1"/>
      </contour>
    </TTGlyph>
    <TTGlyph name="Lacute" xMin="43" yMin="0" xMax="493" yMax="944">
      <component glyphName="L" x="0" y="0" flags="0x204"/>
      <component glyphName="glyph00860" x="444" y="0" flags="0x4"/>
    </TTGlyph>
    <TTGlyph name="Lambda" xMin="-5" yMin="0" xMax="584" yMax="691">
      <contour>
        <pt x="133" y="0" on="1"/>
        <pt x="-5" y="0" on="1"/>
        <pt x="209" y="691" on="1"/>
        <pt x="372" y="691" on="1"/>
        <pt x="584" y="0" on="1"/>
        <pt x="442" y="0" on="1"/>
        <pt x="290" y="577" on="1"/>
        <pt x="286" y="577" on="1"/>
      </contour>
    </TTGlyph>
    <TTGlyph name="Lcaron" xMin="84" yMin="0" xMax="493" yMax="701">
      <component glyphName="L" x="0" y="0" flags="0x204"/>
      <component glyphName="uni0313" x="664" y="-170" flags="0x4"/>
    </TTGlyph>
    <TTGlyph name="Ldot" xMin="84" yMin="0" xMax="493" yMax="691">
      <component glyphName="L" x="0" y="0" flags="0x204"/>
      <component glyphName="uni0307" x="621" y="-347" flags="0x4"/>
    </TTGlyph>
    <TTGlyph name="Lslash" xMin="5" yMin="0" xMax="509" yMax="691">
      <contour>
        <pt x="100" y="0" on="1"/>
        <pt x="100" y="243" on="1"/>
        <pt x="52" y="214" on="1"/>
        <pt x="5" y="288" on="1"/>
        <pt x="100" y="347" on="1"/>
        <pt x="100" y="691" on="1"/>
        <pt x="233" y="691" on="1"/>
        <pt x="233" y="429" on="1"/>
        <pt x="375" y="517" on="1"/>
        <pt x="423" y="444" on="1"/>
        <pt x="233" y="325" on="1"/>
        <pt x="233" y="108" on="1"/>
        <pt x="509" y="108" on="1"/>
        <pt x="494" y="0" on="1"/>
      </contour>
    </TTGlyph>
    <TTGlyph name="M" xMin="46" yMin="0" xMax="748" yMax="691">
      <contour>
        <pt x="619" y="0" on="1"/>
        <pt x="597" y="347" on="1"/>
        <pt x="594" y="394" on="0"/>
        <pt x="591" y="488" on="0"/>
        <pt x="591" y="523" on="1"/>
        <pt x="591" y="544" on="1"/>
        <pt x="591" y="554" on="0"/>
        <pt x="592" y="561" on="1"/>
        <pt x="588" y="561" on="1"/>
        <pt x="460" y="72" on="1"/>
        <pt x="333" y="72" on="1"/>
        <pt x="199" y="561" on="1"/>
        <pt x="195" y="561" on="1"/>
        <pt x="197" y="547" on="0"/>
        <pt x="198" y="500" on="0"/>
        <pt x="198" y="471" on="1"/>
        <pt x="198" y="439" on="0"/>
        <pt x="196" y="368" on="0"/>
        <pt x="194" y="335" on="1"/>
        <pt x="174" y="0" on="1"/>
        <pt x="46" y="0" on="1"/>
        <pt x="101" y="691" on="1"/>
        <pt x="271" y="691" on="1"/>
        <pt x="397" y="208" on="1"/>
        <pt x="401" y="208" on="1"/>
        <pt x="522" y="691" on="1"/>
        <pt x="694" y="691" on="1"/>
        <pt x="748" y="0" on="1"/>
      </contour>
    </TTGlyph>
    <TTGlyph name="Mu" xMin="46" yMin="0" xMax="748" yMax="691">
      <component glyphName="M" x="0" y="0" flags="0x204"/>
    </TTGlyph>
    <TTGlyph name="N" xMin="84" yMin="0" xMax="592" yMax="691">
      <contour>
        <pt x="419" y="0" on="1"/>
        <pt x="189" y="554" on="1"/>
        <pt x="185" y="554" on="1"/>
        <pt x="187" y="543" on="0"/>
        <pt x="194" y="491" on="0"/>
        <pt x="200" y="421" on="0"/>
        <pt x="205" y="338" on="0"/>
        <pt x="205" y="295" on="1"/>
        <pt x="205" y="0" on="1"/>
        <pt x="84" y="0" on="1"/>
        <pt x="84" y="691" on="1"/>
        <pt x="253" y="691" on="1"/>
        <pt x="486" y="135" on="1"/>
        <pt x="490" y="135" on="1"/>
        <pt x="485" y="161" on="0"/>
        <pt x="471" y="300" on="0"/>
        <pt x="471" y="394" on="1"/>
        <pt x="471" y="691" on="1"/>
        <pt x="592" y="691" on="1"/>
        <pt x="592" y="0" on="1"/>
      </contour>
    </TTGlyph>
    <TTGlyph name="Nacute" xMin="84" yMin="0" xMax="592" yMax="944">
      <component glyphName="N" x="0" y="0" flags="0x204"/>
      <component glyphName="glyph00860" x="624" y="0" flags="0x4"/>
    </TTGlyph>
    <TTGlyph name="Ncaron" xMin="84" yMin="0" xMax="592" yMax="932">
      <component glyphName="N" x="0" y="0" flags="0x204"/>
      <component glyphName="glyph00869" x="632" y="0" flags="0x4"/>
    </TTGlyph>
    <TTGlyph name="Ntilde" xMin="84" yMin="0" xMax="592" yMax="911">
      <component glyphName="N" x="0" y="0" flags="0x204"/>
      <component glyphName="glyph00862" x="643" y="0" flags="0x4"/>
    </TTGlyph>
    <TTGlyph name="Nu" xMin="84" yMin="0" xMax="592" yMax="691">
      <component glyphName="N" x="0" y="0" flags="0x204"/>
    </TTGlyph>
    <TTGlyph name="O" xMin="48" yMin="-15" xMax="646" yMax="706">
      <contour>
        <pt x="646" y="346" on="1"/>
        <pt x="646" y="260" on="0"/>
        <pt x="604" y="126" on="0"/>
        <pt x="526" y="33" on="0"/>
        <pt x="416" y="-15" on="0"/>
        <pt x="347" y="-15" on="1"/>
        <pt x="278" y="-15" on="0"/>
        <pt x="168" y="32" on="0"/>
        <pt x="90" y="123" on="0"/>
        <pt x="48" y="258" on="0"/>
        <pt x="48" y="345" on="1"/>
        <pt x="48" y="431" on="0"/>
        <pt x="90" y="565" on="0"/>
        <pt x="168" y="658" on="0"/>
        <pt x="278" y="706" on="0"/>
        <pt x="347" y="706" on="1"/>
        <pt x="416" y="706" on="0"/>
        <pt x="526" y="659" on="0"/>
        <pt x="604" y="568" on="0"/>
        <pt x="646" y="433" on="0"/>
      </contour>
      <contour>
        <pt x="507" y="346" on="1"/>
        <pt x="507" y="416" on="0"/>
        <pt x="485" y="515" on="0"/>
        <pt x="444" y="577" on="0"/>
        <pt x="384" y="605" on="0"/>
        <pt x="347" y="605" on="1"/>
        <pt x="309" y="605" on="0"/>
        <pt x="250" y="577" on="0"/>
        <pt x="209" y="514" on="0"/>
        <pt x="187" y="415" on="0"/>
        <pt x="187" y="345" on="1"/>
        <pt x="187" y="274" on="0"/>
        <pt x="209" y="176" on="0"/>
        <pt x="251" y="114" on="0"/>
        <pt x="310" y="86" on="0"/>
        <pt x="347" y="86" on="1"/>
        <pt x="385" y="86" on="0"/>
        <pt x="444" y="114" on="0"/>
        <pt x="485" y="177" on="0"/>
        <pt x="507" y="275" on="0"/>
      </contour>
    </TTGlyph>
    <TTGlyph name="OE" xMin="59" yMin="-15" xMax="884" yMax="706">
      <contour>
        <pt x="504" y="346" on="1"/>
        <pt x="504" y="416" on="0"/>
        <pt x="485" y="515" on="0"/>
        <pt x="448" y="576" on="0"/>
        <pt x="391" y="604" on="0"/>
        <pt x="354" y="604" on="1"/>
        <pt x="319" y="604" on="0"/>
        <pt x="262" y="576" on="0"/>
        <pt x="221" y="514" on="0"/>
        <pt x="199" y="415" on="0"/>
        <pt x="199" y="345" on="1"/>
        <pt x="199" y="274" on="0"/>
        <pt x="222" y="176" on="0"/>
        <pt x="263" y="114" on="0"/>
        <pt x="320" y="86" on="0"/>
        <pt x="354" y="86" on="1"/>
        <pt x="393" y="86" on="0"/>
        <pt x="450" y="114" on="0"/>
        <pt x="487" y="177" on="0"/>
        <pt x="504" y="275" on="0"/>
      </contour>
      <contour>
        <pt x="573" y="593" on="1"/>
        <pt x="599" y="558" on="0"/>
        <pt x="628" y="462" on="0"/>
        <pt x="633" y="399" on="1"/>
        <pt x="833" y="399" on="1"/>
        <pt x="833" y="301" on="1"/>
        <pt x="633" y="301" on="1"/>
        <pt x="627" y="170" on="0"/>
        <pt x="571" y="98" on="1"/>
        <pt x="884" y="98" on="1"/>
        <pt x="884" y="0" on="1"/>
        <pt x="446" y="0" on="1"/>
        <pt x="404" y="-15" on="0"/>
        <pt x="354" y="-15" on="1"/>
        <pt x="288" y="-15" on="0"/>
        <pt x="179" y="32" on="0"/>
        <pt x="102" y="123" on="0"/>
        <pt x="59" y="258" on="0"/>
        <pt x="59" y="345" on="1"/>
        <pt x="59" y="431" on="0"/>
        <pt x="102" y="565" on="0"/>
        <pt x="180" y="658" on="0"/>
        <pt x="288" y="706" on="0"/>
        <pt x="354" y="706" on="1"/>
        <pt x="405" y="706" on="0"/>
        <pt x="449" y="691" on="1"/>
        <pt x="880" y="691" on="1"/>
        <pt x="866" y="593" on="1"/>
      </contour>
    </TTGlyph>
    <TTGlyph name="Oacute" xMin="48" yMin="-15" xMax="646" yMax="944">
      <component glyphName="O" x="0" y="0" flags="0x204"/>
      <component glyphName="glyph00860" x="621" y="0" flags="0x4"/>
    </TTGlyph>
    <TTGlyph name="Obreve" xMin="48" yMin="-15" xMax="646" yMax="919">
      <component glyphName="O" x="0" y="0" flags="0x204"/>
      <component glyphName="glyph00864" x="643" y="0" flags="0x4"/>
    </TTGlyph>
    <TTGlyph name="Ocircumflex" xMin="48" yMin="-15" xMax="646" yMax="930">
      <component glyphName="O" x="0" y="0" flags="0x204"/>
      <component glyphName="glyph00861" x="650" y="0" flags="0x4"/>
    </TTGlyph>
    <TTGlyph name="Odieresis" xMin="48" yMin="-15" xMax="646" yMax="901">
      <component glyphName="O" x="0" y="0" flags="0x204"/>
      <component glyphName="glyph00866" x="697" y="0" flags="0x4"/>
    </TTGlyph>
    <TTGlyph name="Ograve" xMin="48" yMin="-15" xMax="646" yMax="944">
      <component glyphName="O" x="0" y="0" flags="0x204"/>
      <component glyphName="glyph00859" x="621" y="0" flags="0x4"/>
    </TTGlyph>
    <TTGlyph name="Ohungarumlaut" xMin="48" yMin="-15" xMax="646" yMax="986">
      <component glyphName="O" x="0" y="0" flags="0x204"/>
      <component glyphName="glyph00868" x="662" y="0" flags="0x4"/>
    </TTGlyph>
    <TTGlyph name="Omacron" xMin="48" yMin="-15" xMax="646" yMax="881">
      <component glyphName="O" x="0" y="0" flags="0x204"/>
      <component glyphName="glyph00863" x="631" y="0" flags="0x4"/>
    </TTGlyph>
    <TTGlyph name="Omega" xMin="53" yMin="0" xMax="652" yMax="706">
      <contour>
        <pt x="353" y="605" on="1"/>
        <pt x="277" y="605" on="0"/>
        <pt x="193" y="491" on="0"/>
        <pt x="193" y="366" on="1"/>
        <pt x="193" y="250" on="0"/>
        <pt x="248" y="123" on="0"/>
        <pt x="308" y="100" on="1"/>
        <pt x="308" y="0" on="1"/>
        <pt x="68" y="0" on="1"/>
        <pt x="68" y="98" on="1"/>
        <pt x="186" y="98" on="1"/>
        <pt x="186" y="102" on="1"/>
        <pt x="123" y="134" on="0"/>
        <pt x="53" y="264" on="0"/>
        <pt x="53" y="366" on="1"/>
        <pt x="53" y="443" on="0"/>
        <pt x="96" y="568" on="0"/>
        <pt x="174" y="657" on="0"/>
        <pt x="285" y="706" on="0"/>
        <pt x="353" y="706" on="1"/>
        <pt x="421" y="706" on="0"/>
        <pt x="531" y="657" on="0"/>
        <pt x="609" y="568" on="0"/>
        <pt x="652" y="443" on="0"/>
        <pt x="652" y="366" on="1"/>
        <pt x="652" y="264" on="0"/>
        <pt x="581" y="134" on="0"/>
        <pt x="518" y="102" on="1"/>
        <pt x="518" y="98" on="1"/>
        <pt x="637" y="98" on="1"/>
        <pt x="637" y="0" on="1"/>
        <pt x="398" y="0" on="1"/>
        <pt x="398" y="100" on="1"/>
        <pt x="458" y="123" on="0"/>
        <pt x="512" y="250" on="0"/>
        <pt x="512" y="366" on="1"/>
        <pt x="512" y="491" on="0"/>
        <pt x="428" y="605" on="0"/>
      </contour>
    </TTGlyph>
    <TTGlyph name="Omegatonos" xMin="-11" yMin="0" xMax="711" yMax="711">
      <component glyphName="Omega" x="59" y="0" flags="0x4"/>
      <component glyphName="glyph00884" x="138" y="0" flags="0x4"/>
    </TTGlyph>
    <TTGlyph name="Omicron" xMin="48" yMin="-15" xMax="646" yMax="706">
      <component glyphName="O" x="0" y="0" flags="0x204"/>
    </TTGlyph>
    <TTGlyph name="Omicrontonos" xMin="-16" yMin="-15" xMax="703" yMax="711">
      <component glyphName="O" x="57" y="0" flags="0x4"/>
      <component glyphName="glyph00884" x="133" y="0" flags="0x4"/>
    </TTGlyph>
    <TTGlyph name="Oslash" xMin="48" yMin="-134" xMax="646" yMax="824">
      <contour>
        <pt x="509" y="346" on="1"/>
        <pt x="509" y="434" on="0"/>
        <pt x="479" y="539" on="0"/>
        <pt x="450" y="565" on="1"/>
        <pt x="310" y="90" on="1"/>
        <pt x="325" y="86" on="0"/>
        <pt x="347" y="86" on="1"/>
        <pt x="385" y="86" on="0"/>
        <pt x="445" y="114" on="0"/>
        <pt x="487" y="177" on="0"/>
        <pt x="509" y="275" on="0"/>
      </contour>
      <contour>
        <pt x="185" y="345" on="1"/>
        <pt x="185" y="256" on="0"/>
        <pt x="216" y="151" on="0"/>
        <pt x="245" y="124" on="1"/>
        <pt x="384" y="602" on="1"/>
        <pt x="369" y="605" on="0"/>
        <pt x="347" y="605" on="1"/>
        <pt x="309" y="605" on="0"/>
        <pt x="249" y="577" on="0"/>
        <pt x="207" y="514" on="0"/>
        <pt x="185" y="415" on="0"/>
      </contour>
      <contour>
        <pt x="646" y="346" on="1"/>
        <pt x="646" y="260" on="0"/>
        <pt x="604" y="126" on="0"/>
        <pt x="526" y="33" on="0"/>
        <pt x="416" y="-15" on="0"/>
        <pt x="347" y="-15" on="1"/>
        <pt x="319" y="-15" on="0"/>
        <pt x="294" y="-9" on="1"/>
        <pt x="257" y="-134" on="1"/>
        <pt x="153" y="-106" on="1"/>
        <pt x="194" y="24" on="1"/>
        <pt x="125" y="64" on="0"/>
        <pt x="48" y="225" on="0"/>
        <pt x="48" y="345" on="1"/>
        <pt x="48" y="431" on="0"/>
        <pt x="90" y="565" on="0"/>
        <pt x="168" y="658" on="0"/>
        <pt x="278" y="706" on="0"/>
        <pt x="347" y="706" on="1"/>
        <pt x="361" y="706" on="0"/>
        <pt x="387" y="703" on="0"/>
        <pt x="400" y="701" on="1"/>
        <pt x="437" y="824" on="1"/>
        <pt x="541" y="796" on="1"/>
        <pt x="500" y="667" on="1"/>
        <pt x="569" y="626" on="0"/>
        <pt x="646" y="464" on="0"/>
      </contour>
    </TTGlyph>
    <TTGlyph name="Oslashacute" xMin="48" yMin="-134" xMax="646" yMax="969">
      <component glyphName="Oslash" x="0" y="0" flags="0x204"/>
      <component glyphName="glyph00860" x="591" y="25" flags="0x4"/>
    </TTGlyph>
    <TTGlyph name="Otilde" xMin="48" yMin="-15" xMax="646" yMax="911">
      <component glyphName="O" x="0" y="0" flags="0x204"/>
      <component glyphName="glyph00862" x="654" y="0" flags="0x4"/>
    </TTGlyph>
    <TTGlyph name="P" xMin="84" yMin="0" xMax="568" yMax="691">
      <contour>
        <pt x="430" y="471" on="1"/>
        <pt x="430" y="537" on="0"/>
        <pt x="356" y="594" on="0"/>
        <pt x="290" y="594" on="1"/>
        <pt x="217" y="594" on="1"/>
        <pt x="217" y="340" on="1"/>
        <pt x="294" y="340" on="1"/>
        <pt x="325" y="340" on="0"/>
        <pt x="375" y="353" on="0"/>
        <pt x="411" y="384" on="0"/>
        <pt x="430" y="434" on="0"/>
      </contour>
      <contour>
        <pt x="568" y="471" on="1"/>
        <pt x="568" y="410" on="0"/>
        <pt x="528" y="323" on="0"/>
        <pt x="457" y="267" on="0"/>
        <pt x="357" y="241" on="0"/>
        <pt x="297" y="241" on="1"/>
        <pt x="217" y="241" on="1"/>
        <pt x="217" y="0" on="1"/>
        <pt x="84" y="0" on="1"/>
        <pt x="84" y="691" on="1"/>
        <pt x="285" y="691" on="1"/>
        <pt x="419" y="691" on="0"/>
        <pt x="568" y="583" on="0"/>
      </contour>
    </TTGlyph>
    <TTGlyph name="Phi" xMin="25" yMin="0" xMax="804" yMax="691">
      <contour>
        <pt x="350" y="0" on="1"/>
        <pt x="350" y="74" on="1"/>
        <pt x="285" y="76" on="0"/>
        <pt x="167" y="107" on="0"/>
        <pt x="78" y="171" on="0"/>
        <pt x="25" y="274" on="0"/>
        <pt x="25" y="348" on="1"/>
        <pt x="25" y="422" on="0"/>
        <pt x="76" y="523" on="0"/>
        <pt x="164" y="586" on="0"/>
        <pt x="282" y="615" on="0"/>
        <pt x="350" y="618" on="1"/>
        <pt x="350" y="691" on="1"/>
        <pt x="479" y="691" on="1"/>
        <pt x="479" y="618" on="1"/>
        <pt x="546" y="615" on="0"/>
        <pt x="664" y="586" on="0"/>
        <pt x="753" y="523" on="0"/>
        <pt x="804" y="422" on="0"/>
        <pt x="804" y="348" on="1"/>
        <pt x="804" y="274" on="0"/>
        <pt x="751" y="171" on="0"/>
        <pt x="662" y="107" on="0"/>
        <pt x="544" y="76" on="0"/>
        <pt x="479" y="74" on="1"/>
        <pt x="479" y="0" on="1"/>
      </contour>
      <contour>
        <pt x="668" y="348" on="1"/>
        <pt x="668" y="404" on="0"/>
        <pt x="635" y="475" on="0"/>
        <pt x="581" y="515" on="0"/>
        <pt x="511" y="531" on="0"/>
        <pt x="474" y="533" on="1"/>
        <pt x="474" y="161" on="1"/>
        <pt x="513" y="164" on="0"/>
        <pt x="583" y="182" on="0"/>
        <pt x="637" y="224" on="0"/>
        <pt x="668" y="294" on="0"/>
      </contour>
      <contour>
        <pt x="161" y="348" on="1"/>
        <pt x="161" y="294" on="0"/>
        <pt x="192" y="224" on="0"/>
        <pt x="245" y="182" on="0"/>
        <pt x="315" y="164" on="0"/>
        <pt x="355" y="161" on="1"/>
        <pt x="355" y="533" on="1"/>
        <pt x="317" y="531" on="0"/>
        <pt x="247" y="515" on="0"/>
        <pt x="193" y="475" on="0"/>
        <pt x="161" y="404" on="0"/>
      </contour>
    </TTGlyph>
    <TTGlyph name="Pi" xMin="84" yMin="0" xMax="588" yMax="691">
      <contour>
        <pt x="455" y="0" on="1"/>
        <pt x="455" y="586" on="1"/>
        <pt x="217" y="586" on="1"/>
        <pt x="217" y="0" on="1"/>
        <pt x="84" y="0" on="1"/>
        <pt x="84" y="691" on="1"/>
        <pt x="588" y="691" on="1"/>
        <pt x="588" y="0" on="1"/>
      </contour>
    </TTGlyph>
    <TTGlyph name="Psi" xMin="26" yMin="0" xMax="692" yMax="691">
      <contour>
        <pt x="293" y="0" on="1"/>
        <pt x="293" y="192" on="1"/>
        <pt x="223" y="199" on="0"/>
        <pt x="122" y="242" on="0"/>
        <pt x="57" y="307" on="0"/>
        <pt x="26" y="393" on="0"/>
        <pt x="26" y="443" on="1"/>
        <pt x="26" y="691" on="1"/>
        <pt x="155" y="691" on="1"/>
        <pt x="155" y="442" on="1"/>
        <pt x="155" y="411" on="0"/>
        <pt x="168" y="360" on="0"/>
        <pt x="200" y="321" on="0"/>
        <pt x="255" y="295" on="0"/>
        <pt x="298" y="290" on="1"/>
        <pt x="298" y="691" on="1"/>
        <pt x="420" y="691" on="1"/>
        <pt x="420" y="291" on="1"/>
        <pt x="462" y="296" on="0"/>
        <pt x="517" y="322" on="0"/>
        <pt x="550" y="360" on="0"/>
        <pt x="564" y="411" on="0"/>
        <pt x="564" y="442" on="1"/>
        <pt x="564" y="691" on="1"/>
        <pt x="692" y="691" on="1"/>
        <pt x="692" y="443" on="1"/>
        <pt x="692" y="394" on="0"/>
        <pt x="661" y="309" on="0"/>
        <pt x="596" y="243" on="0"/>
        <pt x="495" y="200" on="0"/>
        <pt x="425" y="193" on="1"/>
        <pt x="425" y="0" on="1"/>
      </contour>
    </TTGlyph>
    <TTGlyph name="Q" xMin="48" yMin="-127" xMax="699" yMax="706">
      <contour>
        <pt x="507" y="346" on="1"/>
        <pt x="507" y="416" on="0"/>
        <pt x="485" y="515" on="0"/>
        <pt x="444" y="577" on="0"/>
        <pt x="384" y="605" on="0"/>
        <pt x="347" y="605" on="1"/>
        <pt x="309" y="605" on="0"/>
        <pt x="250" y="577" on="0"/>
        <pt x="209" y="514" on="0"/>
        <pt x="187" y="415" on="0"/>
        <pt x="187" y="345" on="1"/>
        <pt x="187" y="274" on="0"/>
        <pt x="209" y="176" on="0"/>
        <pt x="251" y="114" on="0"/>
        <pt x="310" y="86" on="0"/>
        <pt x="347" y="86" on="1"/>
        <pt x="385" y="86" on="0"/>
        <pt x="444" y="114" on="0"/>
        <pt x="485" y="177" on="0"/>
        <pt x="507" y="275" on="0"/>
      </contour>
      <contour>
        <pt x="646" y="346" on="1"/>
        <pt x="646" y="240" on="0"/>
        <pt x="573" y="86" on="0"/>
        <pt x="499" y="46" on="1"/>
        <pt x="500" y="42" on="1"/>
        <pt x="566" y="42" on="0"/>
        <pt x="659" y="8" on="0"/>
        <pt x="699" y="-20" on="1"/>
        <pt x="617" y="-127" on="1"/>
        <pt x="590" y="-100" on="0"/>
        <pt x="534" y="-58" on="0"/>
        <pt x="469" y="-28" on="0"/>
        <pt x="392" y="-12" on="0"/>
        <pt x="344" y="-12" on="1"/>
        <pt x="275" y="-12" on="0"/>
        <pt x="166" y="34" on="0"/>
        <pt x="89" y="124" on="0"/>
        <pt x="48" y="258" on="0"/>
        <pt x="48" y="345" on="1"/>
        <pt x="48" y="431" on="0"/>
        <pt x="90" y="565" on="0"/>
        <pt x="168" y="658" on="0"/>
        <pt x="278" y="706" on="0"/>
        <pt x="347" y="706" on="1"/>
        <pt x="416" y="706" on="0"/>
        <pt x="526" y="659" on="0"/>
        <pt x="604" y="568" on="0"/>
        <pt x="646" y="433" on="0"/>
      </contour>
    </TTGlyph>
    <TTGlyph name="R" xMin="84" yMin="0" xMax="605" yMax="691">
      <contour>
        <pt x="565" y="488" on="1"/>
        <pt x="565" y="450" on="0"/>
        <pt x="541" y="389" on="0"/>
        <pt x="501" y="342" on="0"/>
        <pt x="445" y="308" on="0"/>
        <pt x="414" y="298" on="1"/>
        <pt x="605" y="0" on="1"/>
        <pt x="453" y="0" on="1"/>
        <pt x="288" y="277" on="1"/>
        <pt x="217" y="277" on="1"/>
        <pt x="217" y="0" on="1"/>
        <pt x="84" y="0" on="1"/>
        <pt x="84" y="691" on="1"/>
        <pt x="290" y="691" on="1"/>
        <pt x="427" y="691" on="0"/>
        <pt x="565" y="591" on="0"/>
      </contour>
      <contour>
        <pt x="427" y="488" on="1"/>
        <pt x="427" y="545" on="0"/>
        <pt x="361" y="595" on="0"/>
        <pt x="294" y="595" on="1"/>
        <pt x="217" y="595" on="1"/>
        <pt x="217" y="372" on="1"/>
        <pt x="298" y="372" on="1"/>
        <pt x="361" y="372" on="0"/>
        <pt x="427" y="425" on="0"/>
      </contour>
    </TTGlyph>
    <TTGlyph name="Racute" xMin="84" yMin="0" xMax="605" yMax="944">
      <component glyphName="R" x="0" y="0" flags="0x204"/>
      <component glyphName="glyph00860" x="581" y="0" flags="0x4"/>
    </TTGlyph>
    <TTGlyph name="Rcaron" xMin="84" yMin="0" xMax="605" yMax="932">
      <component glyphName="R" x="0" y="0" flags="0x204"/>
      <component glyphName="glyph00869" x="598" y="0" flags="0x4"/>
    </TTGlyph>
    <TTGlyph name="Rho" xMin="84" yMin="0" xMax="568" yMax="691">
      <component glyphName="P" x="0" y="0" flags="0x204"/>
    </TTGlyph>
    <TTGlyph name="S" xMin="14" yMin="-15" xMax="529" yMax="706">
      <contour>
        <pt x="529" y="198" on="1"/>
        <pt x="529" y="151" on="0"/>
        <pt x="493" y="73" on="0"/>
        <pt x="426" y="16" on="0"/>
        <pt x="329" y="-15" on="0"/>
        <pt x="268" y="-15" on="1"/>
        <pt x="183" y="-15" on="0"/>
        <pt x="57" y="38" on="0"/>
        <pt x="14" y="80" on="1"/>
        <pt x="85" y="158" on="1"/>
        <pt x="122" y="124" on="0"/>
        <pt x="209" y="87" on="0"/>
        <pt x="263" y="87" on="1"/>
        <pt x="319" y="87" on="0"/>
        <pt x="391" y="139" on="0"/>
        <pt x="391" y="190" on="1"/>
        <pt x="391" y="211" on="0"/>
        <pt x="378" y="244" on="0"/>
        <pt x="347" y="271" on="0"/>
        <pt x="295" y="295" on="0"/>
        <pt x="256" y="307" on="1"/>
        <pt x="200" y="324" on="0"/>
        <pt x="121" y="364" on="0"/>
        <pt x="71" y="413" on="0"/>
        <pt x="47" y="476" on="0"/>
        <pt x="47" y="515" on="1"/>
        <pt x="47" y="559" on="0"/>
        <pt x="83" y="630" on="0"/>
        <pt x="147" y="679" on="0"/>
        <pt x="233" y="706" on="0"/>
        <pt x="284" y="706" on="1"/>
        <pt x="360" y="706" on="0"/>
        <pt x="467" y="663" on="0"/>
        <pt x="512" y="621" on="1"/>
        <pt x="445" y="545" on="1"/>
        <pt x="410" y="577" on="0"/>
        <pt x="335" y="605" on="0"/>
        <pt x="293" y="605" on="1"/>
        <pt x="245" y="605" on="0"/>
        <pt x="184" y="564" on="0"/>
        <pt x="184" y="523" on="1"/>
        <pt x="184" y="504" on="0"/>
        <pt x="195" y="476" on="0"/>
        <pt x="226" y="452" on="0"/>
        <pt x="281" y="428" on="0"/>
        <pt x="324" y="415" on="1"/>
        <pt x="369" y="400" on="0"/>
        <pt x="445" y="365" on="0"/>
        <pt x="499" y="315" on="0"/>
        <pt x="529" y="246" on="0"/>
      </contour>
    </TTGlyph>
    <TTGlyph name="Sacute" xMin="14" yMin="-15" xMax="529" yMax="944">
      <component glyphName="S" x="0" y="0" flags="0x204"/>
      <component glyphName="glyph00860" x="552" y="0" flags="0x4"/>
    </TTGlyph>
    <TTGlyph name="Scaron" xMin="14" yMin="-15" xMax="529" yMax="932">
      <component glyphName="S" x="0" y="0" flags="0x204"/>
      <component glyphName="glyph00869" x="583" y="0" flags="0x4"/>
    </TTGlyph>
    <TTGlyph name="Scedilla" xMin="14" yMin="-253" xMax="529" yMax="706">
      <contour>
        <pt x="313" y="-143" on="1"/>
        <pt x="313" y="-120" on="0"/>
        <pt x="268" y="-106" on="0"/>
        <pt x="224" y="-106" on="1"/>
        <pt x="233" y="-13" on="1"/>
        <pt x="161" y="-8" on="0"/>
        <pt x="52" y="42" on="0"/>
        <pt x="14" y="80" on="1"/>
        <pt x="85" y="158" on="1"/>
        <pt x="122" y="124" on="0"/>
        <pt x="208" y="87" on="0"/>
        <pt x="263" y="87" on="1"/>
        <pt x="319" y="87" on="0"/>
        <pt x="391" y="139" on="0"/>
        <pt x="391" y="190" on="1"/>
        <pt x="391" y="211" on="0"/>
        <pt x="379" y="243" on="0"/>
        <pt x="348" y="270" on="0"/>
        <pt x="296" y="293" on="0"/>
        <pt x="256" y="305" on="1"/>
        <pt x="201" y="322" on="0"/>
        <pt x="122" y="363" on="0"/>
        <pt x="71" y="413" on="0"/>
        <pt x="47" y="476" on="0"/>
        <pt x="47" y="515" on="1"/>
        <pt x="47" y="559" on="0"/>
        <pt x="83" y="630" on="0"/>
        <pt x="147" y="679" on="0"/>
        <pt x="233" y="706" on="0"/>
        <pt x="284" y="706" on="1"/>
        <pt x="360" y="706" on="0"/>
        <pt x="467" y="663" on="0"/>
        <pt x="512" y="621" on="1"/>
        <pt x="445" y="545" on="1"/>
        <pt x="410" y="577" on="0"/>
        <pt x="335" y="605" on="0"/>
        <pt x="293" y="605" on="1"/>
        <pt x="245" y="605" on="0"/>
        <pt x="184" y="564" on="0"/>
        <pt x="184" y="523" on="1"/>
        <pt x="184" y="504" on="0"/>
        <pt x="196" y="476" on="0"/>
        <pt x="227" y="452" on="0"/>
        <pt x="282" y="428" on="0"/>
        <pt x="325" y="415" on="1"/>
        <pt x="370" y="400" on="0"/>
        <pt x="445" y="365" on="0"/>
        <pt x="499" y="315" on="0"/>
        <pt x="529" y="246" on="0"/>
        <pt x="529" y="198" on="1"/>
        <pt x="529" y="111" on="0"/>
        <pt x="417" y="-2" on="0"/>
        <pt x="311" y="-12" on="1"/>
        <pt x="311" y="-52" on="1"/>
        <pt x="363" y="-57" on="0"/>
        <pt x="411" y="-108" on="0"/>
        <pt x="411" y="-144" on="1"/>
        <pt x="411" y="-195" on="0"/>
        <pt x="333" y="-253" on="0"/>
        <pt x="273" y="-253" on="1"/>
        <pt x="239" y="-253" on="0"/>
        <pt x="180" y="-236" on="0"/>
        <pt x="160" y="-225" on="1"/>
        <pt x="193" y="-162" on="1"/>
        <pt x="223" y="-178" on="0"/>
        <pt x="258" y="-178" on="1"/>
        <pt x="284" y="-178" on="0"/>
        <pt x="313" y="-163" on="0"/>
      </contour>
    </TTGlyph>
    <TTGlyph name="Scircumflex" xMin="14" yMin="-15" xMax="529" yMax="930">
      <component glyphName="S" x="0" y="0" flags="0x204"/>
      <component glyphName="glyph00861" x="590" y="0" flags="0x4"/>
    </TTGlyph>
    <TTGlyph name="Sigma" xMin="31" yMin="0" xMax="474" yMax="691">
      <contour>
        <pt x="355" y="313" on="1"/>
        <pt x="170" y="102" on="1"/>
        <pt x="474" y="102" on="1"/>
        <pt x="474" y="0" on="1"/>
        <pt x="31" y="0" on="1"/>
        <pt x="31" y="100" on="1"/>
        <pt x="238" y="343" on="1"/>
        <pt x="31" y="591" on="1"/>
        <pt x="31" y="691" on="1"/>
        <pt x="474" y="691" on="1"/>
        <pt x="474" y="591" on="1"/>
        <pt x="171" y="591" on="1"/>
        <pt x="355" y="377" on="1"/>
      </contour>
    </TTGlyph>
    <TTGlyph name="T" xMin="12" yMin="0" xMax="526" yMax="691">
      <contour>
        <pt x="333" y="586" on="1"/>
        <pt x="333" y="0" on="1"/>
        <pt x="200" y="0" on="1"/>
        <pt x="200" y="586" on="1"/>
        <pt x="12" y="586" on="1"/>
        <pt x="12" y="691" on="1"/>
        <pt x="526" y="691" on="1"/>
        <pt x="512" y="586" on="1"/>
      </contour>
    </TTGlyph>
    <TTGlyph name="Tau" xMin="12" yMin="0" xMax="526" yMax="691">
      <component glyphName="T" x="0" y="0" flags="0x204"/>
    </TTGlyph>
    <TTGlyph name="Tbar" xMin="12" yMin="0" xMax="526" yMax="691">
      <contour>
        <pt x="453" y="336" on="1"/>
        <pt x="333" y="336" on="1"/>
        <pt x="333" y="0" on="1"/>
        <pt x="200" y="0" on="1"/>
        <pt x="200" y="336" on="1"/>
        <pt x="81" y="336" on="1"/>
        <pt x="81" y="419" on="1"/>
        <pt x="200" y="419" on="1"/>
        <pt x="200" y="586" on="1"/>
        <pt x="12" y="586" on="1"/>
        <pt x="12" y="691" on="1"/>
        <pt x="526" y="691" on="1"/>
        <pt x="512" y="586" on="1"/>
        <pt x="333" y="586" on="1"/>
        <pt x="333" y="419" on="1"/>
        <pt x="453" y="419" on="1"/>
      </contour>
    </TTGlyph>
    <TTGlyph name="Tcaron" xMin="12" yMin="0" xMax="526" yMax="932">
      <component glyphName="T" x="0" y="0" flags="0x204"/>
      <component glyphName="glyph00869" x="561" y="0" flags="0x4"/>
    </TTGlyph>
    <TTGlyph name="Theta" xMin="48" yMin="-15" xMax="646" yMax="706">
      <contour>
        <pt x="456" y="307" on="1"/>
        <pt x="237" y="307" on="1"/>
        <pt x="237" y="392" on="1"/>
        <pt x="456" y="392" on="1"/>
      </contour>
      <contour>
        <pt x="646" y="346" on="1"/>
        <pt x="646" y="260" on="0"/>
        <pt x="604" y="126" on="0"/>
        <pt x="526" y="33" on="0"/>
        <pt x="416" y="-15" on="0"/>
        <pt x="347" y="-15" on="1"/>
        <pt x="278" y="-15" on="0"/>
        <pt x="168" y="32" on="0"/>
        <pt x="90" y="123" on="0"/>
        <pt x="48" y="258" on="0"/>
        <pt x="48" y="345" on="1"/>
        <pt x="48" y="431" on="0"/>
        <pt x="90" y="565" on="0"/>
        <pt x="168" y="658" on="0"/>
        <pt x="278" y="706" on="0"/>
        <pt x="347" y="706" on="1"/>
        <pt x="416" y="706" on="0"/>
        <pt x="526" y="659" on="0"/>
        <pt x="604" y="568" on="0"/>
        <pt x="646" y="433" on="0"/>
      </contour>
      <contour>
        <pt x="512" y="346" on="1"/>
        <pt x="512" y="416" on="0"/>
        <pt x="489" y="515" on="0"/>
        <pt x="446" y="577" on="0"/>
        <pt x="385" y="605" on="0"/>
        <pt x="347" y="605" on="1"/>
        <pt x="309" y="605" on="0"/>
        <pt x="248" y="577" on="0"/>
        <pt x="205" y="514" on="0"/>
        <pt x="182" y="415" on="0"/>
        <pt x="182" y="345" on="1"/>
        <pt x="182" y="274" on="0"/>
        <pt x="205" y="176" on="0"/>
        <pt x="249" y="114" on="0"/>
        <pt x="309" y="86" on="0"/>
        <pt x="347" y="86" on="1"/>
        <pt x="386" y="86" on="0"/>
        <pt x="447" y="114" on="0"/>
        <pt x="489" y="177" on="0"/>
        <pt x="512" y="275" on="0"/>
      </contour>
    </TTGlyph>
    <TTGlyph name="Thorn" xMin="84" yMin="0" xMax="573" yMax="691">
      <contour>
        <pt x="434" y="353" on="1"/>
        <pt x="434" y="421" on="0"/>
        <pt x="361" y="480" on="0"/>
        <pt x="297" y="480" on="1"/>
        <pt x="217" y="480" on="1"/>
        <pt x="217" y="220" on="1"/>
        <pt x="301" y="220" on="1"/>
        <pt x="362" y="220" on="0"/>
        <pt x="434" y="278" on="0"/>
      </contour>
      <contour>
        <pt x="573" y="354" on="1"/>
        <pt x="573" y="293" on="0"/>
        <pt x="535" y="205" on="0"/>
        <pt x="464" y="148" on="0"/>
        <pt x="364" y="121" on="0"/>
        <pt x="302" y="121" on="1"/>
        <pt x="217" y="121" on="1"/>
        <pt x="217" y="0" on="1"/>
        <pt x="84" y="0" on="1"/>
        <pt x="84" y="691" on="1"/>
        <pt x="217" y="691" on="1"/>
        <pt x="217" y="577" on="1"/>
        <pt x="290" y="577" on="1"/>
        <pt x="423" y="577" on="0"/>
        <pt x="573" y="468" on="0"/>
      </contour>
    </TTGlyph>
    <TTGlyph name="U" xMin="74" yMin="-15" xMax="589" yMax="691">
      <contour>
        <pt x="589" y="228" on="1"/>
        <pt x="589" y="175" on="0"/>
        <pt x="556" y="86" on="0"/>
        <pt x="491" y="21" on="0"/>
        <pt x="394" y="-15" on="0"/>
        <pt x="331" y="-15" on="1"/>
        <pt x="267" y="-15" on="0"/>
        <pt x="171" y="20" on="0"/>
        <pt x="106" y="85" on="0"/>
        <pt x="74" y="174" on="0"/>
        <pt x="74" y="228" on="1"/>
        <pt x="74" y="691" on="1"/>
        <pt x="207" y="691" on="1"/>
        <pt x="207" y="233" on="1"/>
        <pt x="207" y="160" on="0"/>
        <pt x="266" y="88" on="0"/>
        <pt x="331" y="88" on="1"/>
        <pt x="456" y="88" on="0"/>
        <pt x="456" y="233" on="1"/>
        <pt x="456" y="691" on="1"/>
        <pt x="589" y="691" on="1"/>
      </contour>
    </TTGlyph>
    <TTGlyph name="Uacute" xMin="74" yMin="-15" xMax="589" yMax="944">
      <component glyphName="U" x="0" y="0" flags="0x204"/>
      <component glyphName="glyph00860" x="606" y="0" flags="0x4"/>
    </TTGlyph>
    <TTGlyph name="Ubreve" xMin="74" yMin="-15" xMax="589" yMax="919">
      <component glyphName="U" x="0" y="0" flags="0x204"/>
      <component glyphName="glyph00864" x="627" y="0" flags="0x4"/>
    </TTGlyph>
    <TTGlyph name="Ucircumflex" xMin="74" yMin="-15" xMax="589" yMax="930">
      <component glyphName="U" x="0" y="0" flags="0x204"/>
      <component glyphName="glyph00861" x="635" y="0" flags="0x4"/>
    </TTGlyph>
    <TTGlyph name="Udieresis" xMin="74" yMin="-15" xMax="589" yMax="901">
      <component glyphName="U" x="0" y="0" flags="0x204"/>
      <component glyphName="glyph00866" x="681" y="0" flags="0x4"/>
    </TTGlyph>
    <TTGlyph name="Ugrave" xMin="74" yMin="-15" xMax="589" yMax="944">
      <component glyphName="U" x="0" y="0" flags="0x204"/>
      <component glyphName="glyph00859" x="600" y="0" flags="0x4"/>
    </TTGlyph>
    <TTGlyph name="Uhungarumlaut" xMin="74" yMin="-15" xMax="589" yMax="986">
      <component glyphName="U" x="0" y="0" flags="0x204"/>
      <component glyphName="glyph00868" x="631" y="0" flags="0x4"/>
    </TTGlyph>
    <TTGlyph name="Umacron" xMin="74" yMin="-15" xMax="589" yMax="881">
      <component glyphName="U" x="0" y="0" flags="0x204"/>
      <component glyphName="glyph00863" x="615" y="0" flags="0x4"/>
    </TTGlyph>
    <TTGlyph name="Uogonek" xMin="74" yMin="-250" xMax="589" yMax="691">
      <contour>
        <pt x="589" y="228" on="1"/>
        <pt x="589" y="150" on="0"/>
        <pt x="517" y="35" on="0"/>
        <pt x="448" y="6" on="1"/>
        <pt x="416" y="-10" on="0"/>
        <pt x="376" y="-44" on="0"/>
        <pt x="354" y="-77" on="0"/>
        <pt x="346" y="-109" on="0"/>
        <pt x="346" y="-123" on="1"/>
        <pt x="346" y="-145" on="0"/>
        <pt x="374" y="-174" on="0"/>
        <pt x="404" y="-174" on="1"/>
        <pt x="424" y="-174" on="0"/>
        <pt x="458" y="-164" on="0"/>
        <pt x="467" y="-159" on="1"/>
        <pt x="496" y="-225" on="1"/>
        <pt x="449" y="-250" on="0"/>
        <pt x="391" y="-250" on="1"/>
        <pt x="326" y="-250" on="0"/>
        <pt x="252" y="-187" on="0"/>
        <pt x="252" y="-133" on="1"/>
        <pt x="252" y="-99" on="0"/>
        <pt x="294" y="-38" on="0"/>
        <pt x="333" y="-15" on="1"/>
        <pt x="210" y="-14" on="0"/>
        <pt x="74" y="113" on="0"/>
        <pt x="74" y="228" on="1"/>
        <pt x="74" y="691" on="1"/>
        <pt x="207" y="691" on="1"/>
        <pt x="207" y="259" on="1"/>
        <pt x="207" y="217" on="0"/>
        <pt x="219" y="153" on="0"/>
        <pt x="248" y="110" on="0"/>
        <pt x="296" y="88" on="0"/>
        <pt x="331" y="88" on="1"/>
        <pt x="402" y="88" on="0"/>
        <pt x="456" y="174" on="0"/>
        <pt x="456" y="259" on="1"/>
        <pt x="456" y="691" on="1"/>
        <pt x="589" y="691" on="1"/>
      </contour>
    </TTGlyph>
    <TTGlyph name="Upsilon" xMin="-2" yMin="0" xMax="576" yMax="691">
      <component glyphName="Y" x="0" y="0" flags="0x204"/>
    </TTGlyph>
    <TTGlyph name="Upsilondieresis" xMin="-2" yMin="0" xMax="576" yMax="901">
      <component glyphName="Y" x="0" y="0" flags="0x204"/>
      <component glyphName="glyph00866" x="636" y="0" flags="0x4"/>
    </TTGlyph>
    <TTGlyph name="Upsilontonos" xMin="-33" yMin="0" xMax="739" yMax="711">
      <component glyphName="Y" x="163" y="0" flags="0x4"/>
      <component glyphName="glyph00884" x="116" y="0" flags="0x4"/>
    </TTGlyph>
    <TTGlyph name="Uring" xMin="74" yMin="-15" xMax="589" yMax="978">
      <component glyphName="U" x="0" y="0" flags="0x204"/>
      <component glyphName="glyph00867" x="616" y="0" flags="0x4"/>
    </TTGlyph>
    <TTGlyph name="Utilde" xMin="74" yMin="-15" xMax="589" yMax="911">
      <component glyphName="U" x="0" y="0" flags="0x204"/>
      <component glyphName="glyph00862" x="638" y="0" flags="0x4"/>
    </TTGlyph>
    <TTGlyph name="V" xMin="6" yMin="0" xMax="587" yMax="691">
      <contour>
        <pt x="301" y="125" on="1"/>
        <pt x="452" y="691" on="1"/>
        <pt x="587" y="691" on="1"/>
        <pt x="376" y="0" on="1"/>
        <pt x="218" y="0" on="1"/>
        <pt x="6" y="691" on="1"/>
        <pt x="148" y="691" on="1"/>
        <pt x="297" y="125" on="1"/>
      </contour>
    </TTGlyph>
    <TTGlyph name="W" xMin="16" yMin="0" xMax="823" yMax="691">
      <contour>
        <pt x="697" y="0" on="1"/>
        <pt x="524" y="0" on="1"/>
        <pt x="420" y="534" on="1"/>
        <pt x="416" y="534" on="1"/>
        <pt x="309" y="0" on="1"/>
        <pt x="142" y="0" on="1"/>
        <pt x="16" y="691" on="1"/>
        <pt x="148" y="691" on="1"/>
        <pt x="234" y="117" on="1"/>
        <pt x="238" y="117" on="1"/>
        <pt x="350" y="691" on="1"/>
        <pt x="490" y="691" on="1"/>
        <pt x="600" y="119" on="1"/>
        <pt x="604" y="119" on="1"/>
        <pt x="699" y="691" on="1"/>
        <pt x="823" y="691" on="1"/>
      </contour>
    </TTGlyph>
    <TTGlyph name="Wcircumflex" xMin="16" yMin="0" xMax="823" yMax="930">
      <component glyphName="W" x="0" y="0" flags="0x204"/>
      <component glyphName="glyph00861" x="722" y="0" flags="0x4"/>
    </TTGlyph>
    <TTGlyph name="X" xMin="0" yMin="0" xMax="572" yMax="691">
      <contour>
        <pt x="16" y="691" on="1"/>
        <pt x="163" y="691" on="1"/>
        <pt x="282" y="456" on="1"/>
        <pt x="286" y="456" on="1"/>
        <pt x="411" y="691" on="1"/>
        <pt x="552" y="691" on="1"/>
        <pt x="361" y="374" on="1"/>
        <pt x="572" y="0" on="1"/>
        <pt x="426" y="0" on="1"/>
        <pt x="284" y="278" on="1"/>
        <pt x="280" y="278" on="1"/>
        <pt x="141" y="0" on="1"/>
        <pt x="0" y="0" on="1"/>
        <pt x="203" y="367" on="1"/>
      </contour>
    </TTGlyph>
    <TTGlyph name="Xi" xMin="42" yMin="0" xMax="484" yMax="691">
      <contour>
        <pt x="481" y="0" on="1"/>
        <pt x="43" y="0" on="1"/>
        <pt x="43" y="114" on="1"/>
        <pt x="481" y="114" on="1"/>
      </contour>
      <contour>
        <pt x="42" y="691" on="1"/>
        <pt x="484" y="691" on="1"/>
        <pt x="468" y="580" on="1"/>
        <pt x="42" y="580" on="1"/>
      </contour>
      <contour>
        <pt x="105" y="404" on="1"/>
        <pt x="420" y="404" on="1"/>
        <pt x="420" y="298" on="1"/>
        <pt x="105" y="298" on="1"/>
      </contour>
    </TTGlyph>
    <TTGlyph name="Y" xMin="-2" yMin="0" xMax="576" yMax="691">
      <contour>
        <pt x="353" y="262" on="1"/>
        <pt x="353" y="0" on="1"/>
        <pt x="220" y="0" on="1"/>
        <pt x="220" y="261" on="1"/>
        <pt x="-2" y="691" on="1"/>
        <pt x="144" y="691" on="1"/>
        <pt x="288" y="374" on="1"/>
        <pt x="292" y="374" on="1"/>
        <pt x="436" y="691" on="1"/>
        <pt x="576" y="691" on="1"/>
      </contour>
    </TTGlyph>
    <TTGlyph name="Yacute" xMin="-2" yMin="0" xMax="576" yMax="944">
      <component glyphName="Y" x="0" y="0" flags="0x204"/>
      <component glyphName="glyph00860" x="563" y="0" flags="0x4"/>
    </TTGlyph>
    <TTGlyph name="Ycircumflex" xMin="-2" yMin="0" xMax="576" yMax="930">
      <component glyphName="Y" x="0" y="0" flags="0x204"/>
      <component glyphName="glyph00861" x="591" y="0" flags="0x4"/>
    </TTGlyph>
    <TTGlyph name="Ydieresis" xMin="-2" yMin="0" xMax="576" yMax="901">
      <component glyphName="Y" x="0" y="0" flags="0x204"/>
      <component glyphName="glyph00866" x="638" y="0" flags="0x4"/>
    </TTGlyph>
    <TTGlyph name="Z" xMin="24" yMin="0" xMax="500" yMax="691">
      <contour>
        <pt x="177" y="108" on="1"/>
        <pt x="500" y="108" on="1"/>
        <pt x="486" y="0" on="1"/>
        <pt x="24" y="0" on="1"/>
        <pt x="24" y="101" on="1"/>
        <pt x="348" y="586" on="1"/>
        <pt x="57" y="586" on="1"/>
        <pt x="57" y="691" on="1"/>
        <pt x="497" y="691" on="1"/>
        <pt x="497" y="589" on="1"/>
      </contour>
    </TTGlyph>
    <TTGlyph name="Zacute" xMin="24" yMin="0" xMax="500" yMax="944">
      <component glyphName="Z" x="0" y="0" flags="0x204"/>
      <component glyphName="glyph00860" x="560" y="0" flags="0x4"/>
    </TTGlyph>
    <TTGlyph name="Zcaron" xMin="24" yMin="0" xMax="500" yMax="932">
      <component glyphName="Z" x="0" y="0" flags="0x204"/>
      <component glyphName="glyph00869" x="576" y="0" flags="0x4"/>
    </TTGlyph>
    <TTGlyph name="Zdotaccent" xMin="24" yMin="0" xMax="500" yMax="919">
      <component glyphName="Z" x="0" y="0" flags="0x204"/>
      <component glyphName="glyph00865" x="551" y="0" flags="0x4"/>
    </TTGlyph>
    <TTGlyph name="Zeta" xMin="24" yMin="0" xMax="500" yMax="691">
      <component glyphName="Z" x="0" y="0" flags="0x204"/>
    </TTGlyph>
    <TTGlyph name="a" xMin="31" yMin="-15" xMax="508" yMax="544">
      <contour>
        <pt x="471" y="137" on="1"/>
        <pt x="471" y="107" on="0"/>
        <pt x="488" y="80" on="0"/>
        <pt x="508" y="72" on="1"/>
        <pt x="480" y="-13" on="1"/>
        <pt x="438" y="-9" on="0"/>
        <pt x="381" y="23" on="0"/>
        <pt x="366" y="58" on="1"/>
        <pt x="337" y="20" on="0"/>
        <pt x="253" y="-15" on="0"/>
        <pt x="205" y="-15" on="1"/>
        <pt x="164" y="-15" on="0"/>
        <pt x="100" y="9" on="0"/>
        <pt x="55" y="53" on="0"/>
        <pt x="31" y="114" on="0"/>
        <pt x="31" y="151" on="1"/>
        <pt x="31" y="236" on="0"/>
        <pt x="160" y="326" on="0"/>
        <pt x="282" y="326" on="1"/>
        <pt x="347" y="326" on="1"/>
        <pt x="347" y="356" on="1"/>
        <pt x="347" y="407" on="0"/>
        <pt x="298" y="446" on="0"/>
        <pt x="242" y="446" on="1"/>
        <pt x="216" y="446" on="0"/>
        <pt x="145" y="433" on="0"/>
        <pt x="104" y="419" on="1"/>
        <pt x="73" y="507" on="1"/>
        <pt x="124" y="526" on="0"/>
        <pt x="220" y="544" on="0"/>
        <pt x="261" y="544" on="1"/>
        <pt x="373" y="544" on="0"/>
        <pt x="471" y="452" on="0"/>
        <pt x="471" y="364" on="1"/>
      </contour>
      <contour>
        <pt x="245" y="78" on="1"/>
        <pt x="277" y="78" on="0"/>
        <pt x="328" y="112" on="0"/>
        <pt x="347" y="143" on="1"/>
        <pt x="347" y="249" on="1"/>
        <pt x="302" y="249" on="1"/>
        <pt x="228" y="249" on="0"/>
        <pt x="168" y="201" on="0"/>
        <pt x="168" y="158" on="1"/>
        <pt x="168" y="78" on="0"/>
      </contour>
    </TTGlyph>
    <TTGlyph name="aacute" xMin="31" yMin="-15" xMax="508" yMax="813">
      <component glyphName="a" x="0" y="0" flags="0x204"/>
      <component glyphName="acutecomb" x="507" y="0" flags="0x4"/>
    </TTGlyph>
    <TTGlyph name="abreve" xMin="31" yMin="-15" xMax="508" yMax="792">
      <component glyphName="a" x="0" y="0" flags="0x204"/>
      <component glyphName="uni0306" x="527" y="0" flags="0x4"/>
    </TTGlyph>
    <TTGlyph name="acircumflex" xMin="31" yMin="-15" xMax="508" yMax="805">
      <component glyphName="a" x="0" y="0" flags="0x204"/>
      <component glyphName="uni0302" x="539" y="0" flags="0x4"/>
    </TTGlyph>
    <TTGlyph name="acute" xMin="27" yMin="638" xMax="290" yMax="831">
      <contour>
        <pt x="27" y="704" on="1"/>
        <pt x="231" y="831" on="1"/>
        <pt x="290" y="732" on="1"/>
        <pt x="65" y="638" on="1"/>
      </contour>
    </TTGlyph>
    <TTGlyph name="acutecomb" xMin="-368" yMin="615" xMax="-106" yMax="813">
      <contour>
        <pt x="-368" y="681" on="1"/>
        <pt x="-165" y="813" on="1"/>
        <pt x="-106" y="714" on="1"/>
        <pt x="-328" y="615" on="1"/>
      </contour>
    </TTGlyph>
    <TTGlyph name="adieresis" xMin="31" yMin="-15" xMax="508" yMax="780">
      <component glyphName="a" x="0" y="0" flags="0x204"/>
      <component glyphName="uni0308" x="537" y="0" flags="0x4"/>
    </TTGlyph>
    <TTGlyph name="ae" xMin="31" yMin="-15" xMax="801" yMax="544">
      <contour>
        <pt x="421" y="467" on="1"/>
        <pt x="445" y="501" on="0"/>
        <pt x="521" y="544" on="0"/>
        <pt x="575" y="544" on="1"/>
        <pt x="683" y="544" on="0"/>
        <pt x="801" y="403" on="0"/>
        <pt x="801" y="277" on="1"/>
        <pt x="801" y="250" on="0"/>
        <pt x="798" y="229" on="1"/>
        <pt x="466" y="229" on="1"/>
        <pt x="472" y="151" on="0"/>
        <pt x="542" y="85" on="0"/>
        <pt x="596" y="85" on="1"/>
        <pt x="630" y="85" on="0"/>
        <pt x="690" y="107" on="0"/>
        <pt x="725" y="133" on="1"/>
        <pt x="780" y="54" on="1"/>
        <pt x="742" y="23" on="0"/>
        <pt x="646" y="-15" on="0"/>
        <pt x="589" y="-15" on="1"/>
        <pt x="520" y="-15" on="0"/>
        <pt x="427" y="34" on="0"/>
        <pt x="399" y="73" on="1"/>
        <pt x="368" y="29" on="0"/>
        <pt x="274" y="-15" on="0"/>
        <pt x="214" y="-15" on="1"/>
        <pt x="126" y="-15" on="0"/>
        <pt x="31" y="77" on="0"/>
        <pt x="31" y="151" on="1"/>
        <pt x="31" y="236" on="0"/>
        <pt x="160" y="324" on="0"/>
        <pt x="282" y="324" on="1"/>
        <pt x="347" y="324" on="1"/>
        <pt x="347" y="356" on="1"/>
        <pt x="347" y="406" on="0"/>
        <pt x="298" y="446" on="0"/>
        <pt x="242" y="446" on="1"/>
        <pt x="216" y="446" on="0"/>
        <pt x="145" y="433" on="0"/>
        <pt x="104" y="419" on="1"/>
        <pt x="73" y="507" on="1"/>
        <pt x="124" y="526" on="0"/>
        <pt x="220" y="544" on="0"/>
        <pt x="261" y="544" on="1"/>
        <pt x="327" y="544" on="0"/>
        <pt x="403" y="502" on="0"/>
      </contour>
      <contour>
        <pt x="246" y="78" on="1"/>
        <pt x="316" y="78" on="0"/>
        <pt x="357" y="154" on="1"/>
        <pt x="352" y="175" on="0"/>
        <pt x="347" y="222" on="0"/>
        <pt x="347" y="247" on="1"/>
        <pt x="323" y="247" on="1"/>
        <pt x="236" y="247" on="0"/>
        <pt x="167" y="206" on="0"/>
        <pt x="167" y="158" on="1"/>
        <pt x="167" y="78" on="0"/>
      </contour>
      <contour>
        <pt x="572" y="450" on="1"/>
        <pt x="526" y="450" on="0"/>
        <pt x="471" y="383" on="0"/>
        <pt x="466" y="310" on="1"/>
        <pt x="675" y="310" on="1"/>
        <pt x="673" y="379" on="0"/>
        <pt x="626" y="450" on="0"/>
      </contour>
    </TTGlyph>
    <TTGlyph name="aeacute" xMin="31" yMin="-15" xMax="801" yMax="813">
      <component glyphName="ae" x="0" y="0" flags="0x204"/>
      <component glyphName="acutecomb" x="691" y="0" flags="0x4"/>
    </TTGlyph>
    <TTGlyph name="agrave" xMin="31" yMin="-15" xMax="508" yMax="814">
      <component glyphName="a" x="0" y="0" flags="0x204"/>
      <component glyphName="gravecomb" x="509" y="0" flags="0x4"/>
    </TTGlyph>
    <TTGlyph name="alpha" xMin="43" yMin="-15" xMax="574" yMax="544">
      <contour>
        <pt x="261" y="81" on="1"/>
        <pt x="276" y="81" on="0"/>
        <pt x="308" y="96" on="0"/>
        <pt x="337" y="138" on="0"/>
        <pt x="363" y="211" on="0"/>
        <pt x="374" y="268" on="1"/>
        <pt x="359" y="364" on="0"/>
        <pt x="308" y="448" on="0"/>
        <pt x="269" y="448" on="1"/>
        <pt x="224" y="448" on="0"/>
        <pt x="175" y="356" on="0"/>
        <pt x="175" y="263" on="1"/>
        <pt x="175" y="167" on="0"/>
        <pt x="223" y="81" on="0"/>
      </contour>
      <contour>
        <pt x="418" y="133" on="1"/>
        <pt x="414" y="133" on="1"/>
        <pt x="403" y="101" on="0"/>
        <pt x="373" y="47" on="0"/>
        <pt x="330" y="7" on="0"/>
        <pt x="275" y="-15" on="0"/>
        <pt x="240" y="-15" on="1"/>
        <pt x="192" y="-15" on="0"/>
        <pt x="118" y="24" on="0"/>
        <pt x="69" y="96" on="0"/>
        <pt x="43" y="199" on="0"/>
        <pt x="43" y="263" on="1"/>
        <pt x="43" y="324" on="0"/>
        <pt x="72" y="427" on="0"/>
        <pt x="126" y="502" on="0"/>
        <pt x="203" y="544" on="0"/>
        <pt x="251" y="544" on="1"/>
        <pt x="290" y="544" on="0"/>
        <pt x="349" y="524" on="0"/>
        <pt x="390" y="488" on="0"/>
        <pt x="417" y="437" on="0"/>
        <pt x="425" y="406" on="1"/>
        <pt x="429" y="406" on="1"/>
        <pt x="460" y="535" on="1"/>
        <pt x="568" y="505" on="1"/>
        <pt x="481" y="274" on="1"/>
        <pt x="516" y="163" on="1"/>
        <pt x="527" y="128" on="0"/>
        <pt x="548" y="94" on="0"/>
        <pt x="574" y="86" on="1"/>
        <pt x="531" y="-15" on="1"/>
        <pt x="496" y="-10" on="0"/>
        <pt x="445" y="28" on="0"/>
        <pt x="435" y="67" on="1"/>
      </contour>
    </TTGlyph>
    <TTGlyph name="alphatonos" xMin="43" yMin="-15" xMax="574" yMax="834">
      <component glyphName="alpha" x="0" y="0" flags="0x204"/>
      <component glyphName="tonos" x="358" y="0" flags="0x4"/>
    </TTGlyph>
    <TTGlyph name="amacron" xMin="31" yMin="-15" xMax="508" yMax="756">
      <component glyphName="a" x="0" y="0" flags="0x204"/>
      <component glyphName="uni0304" x="514" y="0" flags="0x4"/>
    </TTGlyph>
    <TTGlyph name="ampersand" xMin="68" yMin="-15" xMax="756" yMax="706">
      <contour>
        <pt x="688" y="341" on="1"/>
        <pt x="668" y="281" on="0"/>
        <pt x="621" y="184" on="0"/>
        <pt x="595" y="146" on="1"/>
        <pt x="756" y="0" on="1"/>
        <pt x="596" y="0" on="1"/>
        <pt x="521" y="67" on="1"/>
        <pt x="470" y="22" on="0"/>
        <pt x="362" y="-15" on="0"/>
        <pt x="306" y="-15" on="1"/>
        <pt x="193" y="-15" on="0"/>
        <pt x="68" y="89" on="0"/>
        <pt x="68" y="178" on="1"/>
        <pt x="68" y="240" on="0"/>
        <pt x="132" y="331" on="0"/>
        <pt x="198" y="373" on="1"/>
        <pt x="147" y="421" on="0"/>
        <pt x="96" y="495" on="0"/>
        <pt x="96" y="543" on="1"/>
        <pt x="96" y="577" on="0"/>
        <pt x="121" y="636" on="0"/>
        <pt x="171" y="680" on="0"/>
        <pt x="246" y="706" on="0"/>
        <pt x="297" y="706" on="1"/>
        <pt x="344" y="706" on="0"/>
        <pt x="419" y="682" on="0"/>
        <pt x="472" y="640" on="0"/>
        <pt x="500" y="583" on="0"/>
        <pt x="500" y="549" on="1"/>
        <pt x="500" y="517" on="0"/>
        <pt x="479" y="465" on="0"/>
        <pt x="442" y="420" on="0"/>
        <pt x="392" y="382" on="0"/>
        <pt x="364" y="364" on="1"/>
        <pt x="519" y="215" on="1"/>
        <pt x="554" y="280" on="0"/>
        <pt x="576" y="374" on="1"/>
      </contour>
      <contour>
        <pt x="319" y="80" on="1"/>
        <pt x="395" y="80" on="0"/>
        <pt x="452" y="131" on="1"/>
        <pt x="272" y="305" on="1"/>
        <pt x="234" y="278" on="0"/>
        <pt x="201" y="222" on="0"/>
        <pt x="201" y="186" on="1"/>
        <pt x="201" y="137" on="0"/>
        <pt x="261" y="80" on="0"/>
      </contour>
      <contour>
        <pt x="220" y="542" on="1"/>
        <pt x="220" y="512" on="0"/>
        <pt x="256" y="463" on="0"/>
        <pt x="291" y="431" on="1"/>
        <pt x="332" y="457" on="0"/>
        <pt x="376" y="509" on="0"/>
        <pt x="376" y="544" on="1"/>
        <pt x="376" y="579" on="0"/>
        <pt x="334" y="620" on="0"/>
        <pt x="298" y="620" on="1"/>
        <pt x="260" y="620" on="0"/>
        <pt x="220" y="578" on="0"/>
      </contour>
    </TTGlyph>
    <TTGlyph name="aogonek" xMin="31" yMin="-250" xMax="557" yMax="544">
      <contour>
        <pt x="471" y="137" on="1"/>
        <pt x="471" y="107" on="0"/>
        <pt x="488" y="80" on="0"/>
        <pt x="508" y="72" on="1"/>
        <pt x="480" y="-13" on="1"/>
        <pt x="458" y="-25" on="0"/>
        <pt x="430" y="-55" on="0"/>
        <pt x="413" y="-85" on="0"/>
        <pt x="407" y="-113" on="0"/>
        <pt x="407" y="-123" on="1"/>
        <pt x="407" y="-145" on="0"/>
        <pt x="434" y="-174" on="0"/>
        <pt x="465" y="-174" on="1"/>
        <pt x="485" y="-174" on="0"/>
        <pt x="518" y="-164" on="0"/>
        <pt x="528" y="-159" on="1"/>
        <pt x="557" y="-225" on="1"/>
        <pt x="508" y="-250" on="0"/>
        <pt x="452" y="-250" on="1"/>
        <pt x="386" y="-250" on="0"/>
        <pt x="313" y="-187" on="0"/>
        <pt x="313" y="-133" on="1"/>
        <pt x="313" y="-93" on="0"/>
        <pt x="368" y="-23" on="0"/>
        <pt x="418" y="2" on="1"/>
        <pt x="401" y="11" on="0"/>
        <pt x="374" y="38" on="0"/>
        <pt x="366" y="58" on="1"/>
        <pt x="337" y="20" on="0"/>
        <pt x="253" y="-15" on="0"/>
        <pt x="205" y="-15" on="1"/>
        <pt x="164" y="-15" on="0"/>
        <pt x="100" y="9" on="0"/>
        <pt x="55" y="53" on="0"/>
        <pt x="31" y="114" on="0"/>
        <pt x="31" y="151" on="1"/>
        <pt x="31" y="236" on="0"/>
        <pt x="160" y="326" on="0"/>
        <pt x="282" y="326" on="1"/>
        <pt x="347" y="326" on="1"/>
        <pt x="347" y="356" on="1"/>
        <pt x="347" y="407" on="0"/>
        <pt x="298" y="446" on="0"/>
        <pt x="242" y="446" on="1"/>
        <pt x="216" y="446" on="0"/>
        <pt x="145" y="433" on="0"/>
        <pt x="104" y="419" on="1"/>
        <pt x="73" y="507" on="1"/>
        <pt x="124" y="526" on="0"/>
        <pt x="220" y="544" on="0"/>
        <pt x="261" y="544" on="1"/>
        <pt x="373" y="544" on="0"/>
        <pt x="471" y="452" on="0"/>
        <pt x="471" y="364" on="1"/>
      </contour>
      <contour>
        <pt x="245" y="78" on="1"/>
        <pt x="277" y="78" on="0"/>
        <pt x="329" y="112" on="0"/>
        <pt x="347" y="143" on="1"/>
        <pt x="347" y="249" on="1"/>
        <pt x="302" y="249" on="1"/>
        <pt x="228" y="249" on="0"/>
        <pt x="167" y="201" on="0"/>
        <pt x="167" y="158" on="1"/>
        <pt x="167" y="78" on="0"/>
      </contour>
    </TTGlyph>
    <TTGlyph name="approxequal" xMin="54" yMin="140" xMax="506" yMax="494">
      <component glyphName="glyph00795" x="25" y="0" flags="0x4"/>
    </TTGlyph>
    <TTGlyph name="aring" xMin="31" yMin="-15" xMax="508" yMax="848">
      <component glyphName="a" x="0" y="0" flags="0x204"/>
      <component glyphName="uni030A" x="522" y="0" flags="0x4"/>
    </TTGlyph>
    <TTGlyph name="arrowboth" xMin="91" yMin="4" xMax="1189" yMax="654">
      <contour>
        <pt x="279" y="276" on="1"/>
        <pt x="278" y="273" on="1"/>
        <pt x="304" y="255" on="0"/>
        <pt x="357" y="201" on="0"/>
        <pt x="386" y="170" on="1"/>
        <pt x="471" y="78" on="1"/>
        <pt x="384" y="4" on="1"/>
        <pt x="91" y="329" on="1"/>
        <pt x="384" y="654" on="1"/>
        <pt x="471" y="580" on="1"/>
        <pt x="355" y="455" on="1"/>
        <pt x="334" y="432" on="0"/>
        <pt x="298" y="398" on="0"/>
        <pt x="278" y="385" on="1"/>
        <pt x="279" y="382" on="1"/>
        <pt x="1001" y="382" on="1"/>
        <pt x="1002" y="385" on="1"/>
        <pt x="976" y="403" on="0"/>
        <pt x="922" y="457" on="0"/>
        <pt x="893" y="488" on="1"/>
        <pt x="809" y="580" on="1"/>
        <pt x="896" y="654" on="1"/>
        <pt x="1189" y="329" on="1"/>
        <pt x="896" y="4" on="1"/>
        <pt x="809" y="78" on="1"/>
        <pt x="925" y="203" on="1"/>
        <pt x="946" y="226" on="0"/>
        <pt x="982" y="260" on="0"/>
        <pt x="1002" y="273" on="1"/>
        <pt x="1001" y="276" on="1"/>
      </contour>
    </TTGlyph>
    <TTGlyph name="arrowdown" xMin="122" yMin="-30" xMax="778" yMax="672">
      <contour>
        <pt x="511" y="159" on="1"/>
        <pt x="514" y="158" on="1"/>
        <pt x="530" y="184" on="0"/>
        <pt x="580" y="235" on="0"/>
        <pt x="612" y="263" on="1"/>
        <pt x="703" y="346" on="1"/>
        <pt x="778" y="265" on="1"/>
        <pt x="450" y="-30" on="1"/>
        <pt x="122" y="265" on="1"/>
        <pt x="197" y="346" on="1"/>
        <pt x="321" y="233" on="1"/>
        <pt x="344" y="211" on="0"/>
        <pt x="374" y="177" on="0"/>
        <pt x="386" y="158" on="1"/>
        <pt x="389" y="159" on="1"/>
        <pt x="389" y="672" on="1"/>
        <pt x="511" y="672" on="1"/>
      </contour>
    </TTGlyph>
    <TTGlyph name="arrowleft" xMin="98" yMin="4" xMax="802" yMax="654">
      <contour>
        <pt x="286" y="276" on="1"/>
        <pt x="285" y="273" on="1"/>
        <pt x="311" y="255" on="0"/>
        <pt x="365" y="201" on="0"/>
        <pt x="393" y="170" on="1"/>
        <pt x="477" y="78" on="1"/>
        <pt x="390" y="4" on="1"/>
        <pt x="98" y="329" on="1"/>
        <pt x="390" y="654" on="1"/>
        <pt x="477" y="580" on="1"/>
        <pt x="393" y="488" on="1"/>
        <pt x="365" y="457" on="0"/>
        <pt x="311" y="403" on="0"/>
        <pt x="285" y="385" on="1"/>
        <pt x="286" y="382" on="1"/>
        <pt x="802" y="382" on="1"/>
        <pt x="802" y="276" on="1"/>
      </contour>
    </TTGlyph>
    <TTGlyph name="arrowright" xMin="98" yMin="4" xMax="802" yMax="654">
      <contour>
        <pt x="98" y="276" on="1"/>
        <pt x="98" y="382" on="1"/>
        <pt x="614" y="382" on="1"/>
        <pt x="615" y="385" on="1"/>
        <pt x="590" y="402" on="0"/>
        <pt x="539" y="454" on="0"/>
        <pt x="504" y="492" on="1"/>
        <pt x="423" y="580" on="1"/>
        <pt x="510" y="654" on="1"/>
        <pt x="802" y="329" on="1"/>
        <pt x="510" y="4" on="1"/>
        <pt x="423" y="78" on="1"/>
        <pt x="538" y="203" on="1"/>
        <pt x="560" y="226" on="0"/>
        <pt x="595" y="260" on="0"/>
        <pt x="615" y="273" on="1"/>
        <pt x="614" y="276" on="1"/>
      </contour>
    </TTGlyph>
    <TTGlyph name="arrowup" xMin="122" yMin="0" xMax="778" yMax="703">
      <contour>
        <pt x="511" y="0" on="1"/>
        <pt x="389" y="0" on="1"/>
        <pt x="389" y="514" on="1"/>
        <pt x="386" y="515" on="1"/>
        <pt x="368" y="488" on="0"/>
        <pt x="317" y="435" on="0"/>
        <pt x="285" y="406" on="1"/>
        <pt x="197" y="326" on="1"/>
        <pt x="122" y="407" on="1"/>
        <pt x="450" y="703" on="1"/>
        <pt x="778" y="407" on="1"/>
        <pt x="703" y="326" on="1"/>
        <pt x="579" y="440" on="1"/>
        <pt x="556" y="461" on="0"/>
        <pt x="528" y="495" on="0"/>
        <pt x="514" y="515" on="1"/>
        <pt x="511" y="514" on="1"/>
      </contour>
    </TTGlyph>
    <TTGlyph name="arrowupdn" xMin="122" yMin="-209" xMax="778" yMax="883">
      <contour>
        <pt x="511" y="-21" on="1"/>
        <pt x="514" y="-22" on="1"/>
        <pt x="530" y="4" on="0"/>
        <pt x="580" y="56" on="0"/>
        <pt x="612" y="85" on="1"/>
        <pt x="703" y="168" on="1"/>
        <pt x="778" y="86" on="1"/>
        <pt x="450" y="-209" on="1"/>
        <pt x="122" y="86" on="1"/>
        <pt x="197" y="168" on="1"/>
        <pt x="288" y="85" on="1"/>
        <pt x="323" y="53" on="0"/>
        <pt x="373" y="1" on="0"/>
        <pt x="387" y="-22" on="1"/>
        <pt x="390" y="-21" on="1"/>
        <pt x="390" y="695" on="1"/>
        <pt x="387" y="696" on="1"/>
        <pt x="370" y="670" on="0"/>
        <pt x="319" y="618" on="0"/>
        <pt x="288" y="589" on="1"/>
        <pt x="197" y="506" on="1"/>
        <pt x="122" y="588" on="1"/>
        <pt x="450" y="883" on="1"/>
        <pt x="778" y="588" on="1"/>
        <pt x="703" y="506" on="1"/>
        <pt x="612" y="589" on="1"/>
        <pt x="580" y="618" on="0"/>
        <pt x="531" y="670" on="0"/>
        <pt x="514" y="696" on="1"/>
        <pt x="511" y="695" on="1"/>
      </contour>
    </TTGlyph>
    <TTGlyph name="asciicircum" xMin="21" yMin="527" xMax="515" yMax="842">
      <contour>
        <pt x="210" y="842" on="1"/>
        <pt x="326" y="842" on="1"/>
        <pt x="515" y="527" on="1"/>
        <pt x="387" y="527" on="1"/>
        <pt x="267" y="741" on="1"/>
        <pt x="151" y="527" on="1"/>
        <pt x="21" y="527" on="1"/>
      </contour>
    </TTGlyph>
    <TTGlyph name="asciitilde" xMin="54" yMin="240" xMax="506" yMax="395">
      <component glyphName="glyph00771" x="25" y="0" flags="0x4"/>
    </TTGlyph>
    <TTGlyph name="asterisk" xMin="16" yMin="347" xMax="426" yMax="741">
      <contour>
        <pt x="259" y="594" on="1"/>
        <pt x="392" y="655" on="1"/>
        <pt x="426" y="548" on="1"/>
        <pt x="284" y="521" on="1"/>
        <pt x="387" y="417" on="1"/>
        <pt x="294" y="348" on="1"/>
        <pt x="221" y="476" on="1"/>
        <pt x="152" y="347" on="1"/>
        <pt x="58" y="413" on="1"/>
        <pt x="158" y="521" on="1"/>
        <pt x="16" y="548" on="1"/>
        <pt x="50" y="655" on="1"/>
        <pt x="182" y="595" on="1"/>
        <pt x="163" y="741" on="1"/>
        <pt x="278" y="741" on="1"/>
      </contour>
    </TTGlyph>
    <TTGlyph name="at" xMin="58" yMin="-218" xMax="962" yMax="706">
      <contour>
        <pt x="753" y="-177" on="1"/>
        <pt x="705" y="-195" on="0"/>
        <pt x="592" y="-218" on="0"/>
        <pt x="526" y="-218" on="1"/>
        <pt x="421" y="-218" on="0"/>
        <pt x="248" y="-153" on="0"/>
        <pt x="125" y="-34" on="0"/>
        <pt x="58" y="136" on="0"/>
        <pt x="58" y="241" on="1"/>
        <pt x="58" y="341" on="0"/>
        <pt x="125" y="511" on="0"/>
        <pt x="249" y="636" on="0"/>
        <pt x="424" y="706" on="0"/>
        <pt x="532" y="706" on="1"/>
        <pt x="636" y="706" on="0"/>
        <pt x="797" y="641" on="0"/>
        <pt x="906" y="532" on="0"/>
        <pt x="962" y="390" on="0"/>
        <pt x="962" y="312" on="1"/>
        <pt x="962" y="247" on="0"/>
        <pt x="934" y="135" on="0"/>
        <pt x="881" y="53" on="0"/>
        <pt x="803" y="6" on="0"/>
        <pt x="753" y="6" on="1"/>
        <pt x="723" y="6" on="0"/>
        <pt x="677" y="25" on="0"/>
        <pt x="645" y="53" on="0"/>
        <pt x="627" y="88" on="0"/>
        <pt x="624" y="105" on="1"/>
        <pt x="620" y="105" on="1"/>
        <pt x="605" y="68" on="0"/>
        <pt x="535" y="11" on="0"/>
        <pt x="479" y="11" on="1"/>
        <pt x="434" y="11" on="0"/>
        <pt x="367" y="43" on="0"/>
        <pt x="323" y="102" on="0"/>
        <pt x="301" y="183" on="0"/>
        <pt x="301" y="232" on="1"/>
        <pt x="301" y="359" on="0"/>
        <pt x="422" y="498" on="0"/>
        <pt x="527" y="498" on="1"/>
        <pt x="568" y="498" on="0"/>
        <pt x="651" y="478" on="0"/>
        <pt x="693" y="455" on="1"/>
        <pt x="693" y="175" on="1"/>
        <pt x="693" y="127" on="0"/>
        <pt x="723" y="92" on="0"/>
        <pt x="749" y="92" on="1"/>
        <pt x="792" y="92" on="0"/>
        <pt x="842" y="191" on="0"/>
        <pt x="842" y="310" on="1"/>
        <pt x="842" y="379" on="0"/>
        <pt x="803" y="489" on="0"/>
        <pt x="725" y="567" on="0"/>
        <pt x="608" y="609" on="0"/>
        <pt x="531" y="609" on="1"/>
        <pt x="444" y="609" on="0"/>
        <pt x="312" y="554" on="0"/>
        <pt x="223" y="456" on="0"/>
        <pt x="178" y="321" on="0"/>
        <pt x="178" y="241" on="1"/>
        <pt x="178" y="160" on="0"/>
        <pt x="223" y="26" on="0"/>
        <pt x="312" y="-68" on="0"/>
        <pt x="442" y="-120" on="0"/>
        <pt x="527" y="-120" on="1"/>
        <pt x="581" y="-120" on="0"/>
        <pt x="681" y="-99" on="0"/>
        <pt x="721" y="-85" on="1"/>
      </contour>
      <contour>
        <pt x="525" y="413" on="1"/>
        <pt x="474" y="413" on="0"/>
        <pt x="419" y="328" on="0"/>
        <pt x="419" y="232" on="1"/>
        <pt x="419" y="161" on="0"/>
        <pt x="457" y="96" on="0"/>
        <pt x="495" y="96" on="1"/>
        <pt x="514" y="96" on="0"/>
        <pt x="543" y="110" on="0"/>
        <pt x="564" y="130" on="0"/>
        <pt x="578" y="153" on="0"/>
        <pt x="582" y="162" on="1"/>
        <pt x="582" y="400" on="1"/>
        <pt x="568" y="406" on="0"/>
        <pt x="542" y="413" on="0"/>
      </contour>
    </TTGlyph>
    <TTGlyph name="atilde" xMin="31" yMin="-15" xMax="508" yMax="780">
      <component glyphName="a" x="0" y="0" flags="0x204"/>
      <component glyphName="tildecomb" x="534" y="0" flags="0x4"/>
    </TTGlyph>
    <TTGlyph name="b" xMin="79" yMin="-15" xMax="549" yMax="755">
      <contour>
        <pt x="207" y="469" on="1"/>
        <pt x="233" y="504" on="0"/>
        <pt x="309" y="544" on="0"/>
        <pt x="351" y="544" on="1"/>
        <pt x="403" y="544" on="0"/>
        <pt x="478" y="505" on="0"/>
        <pt x="526" y="432" on="0"/>
        <pt x="549" y="329" on="0"/>
        <pt x="549" y="266" on="1"/>
        <pt x="549" y="205" on="0"/>
        <pt x="521" y="102" on="0"/>
        <pt x="467" y="27" on="0"/>
        <pt x="388" y="-15" on="0"/>
        <pt x="336" y="-15" on="1"/>
        <pt x="250" y="-15" on="0"/>
        <pt x="198" y="52" on="1"/>
        <pt x="192" y="0" on="1"/>
        <pt x="79" y="0" on="1"/>
        <pt x="79" y="741" on="1"/>
        <pt x="207" y="755" on="1"/>
      </contour>
      <contour>
        <pt x="303" y="81" on="1"/>
        <pt x="356" y="81" on="0"/>
        <pt x="415" y="168" on="0"/>
        <pt x="415" y="265" on="1"/>
        <pt x="415" y="365" on="0"/>
        <pt x="362" y="448" on="0"/>
        <pt x="313" y="448" on="1"/>
        <pt x="280" y="448" on="0"/>
        <pt x="226" y="406" on="0"/>
        <pt x="207" y="377" on="1"/>
        <pt x="207" y="138" on="1"/>
        <pt x="224" y="111" on="0"/>
        <pt x="274" y="81" on="0"/>
      </contour>
    </TTGlyph>
    <TTGlyph name="backslash" xMin="88" yMin="-108" xMax="432" yMax="814">
      <contour>
        <pt x="88" y="789" on="1"/>
        <pt x="198" y="814" on="1"/>
        <pt x="432" y="-82" on="1"/>
        <pt x="321" y="-108" on="1"/>
      </contour>
    </TTGlyph>
    <TTGlyph name="bar" xMin="135" yMin="-104" xMax="253" yMax="809">
      <contour>
        <pt x="135" y="809" on="1"/>
        <pt x="253" y="809" on="1"/>
        <pt x="253" y="-104" on="1"/>
        <pt x="135" y="-104" on="1"/>
      </contour>
    </TTGlyph>
    <TTGlyph name="beta" xMin="52" yMin="-15" xMax="530" yMax="755">
      <contour>
        <pt x="52" y="352" on="1"/>
        <pt x="52" y="452" on="0"/>
        <pt x="94" y="603" on="0"/>
        <pt x="167" y="704" on="0"/>
        <pt x="266" y="755" on="0"/>
        <pt x="323" y="755" on="1"/>
        <pt x="368" y="755" on="0"/>
        <pt x="433" y="731" on="0"/>
        <pt x="473" y="690" on="0"/>
        <pt x="492" y="637" on="0"/>
        <pt x="492" y="608" on="1"/>
        <pt x="492" y="550" on="0"/>
        <pt x="417" y="467" on="0"/>
        <pt x="351" y="441" on="1"/>
        <pt x="351" y="437" on="1"/>
        <pt x="441" y="432" on="0"/>
        <pt x="530" y="318" on="0"/>
        <pt x="530" y="220" on="1"/>
        <pt x="530" y="172" on="0"/>
        <pt x="498" y="87" on="0"/>
        <pt x="437" y="22" on="0"/>
        <pt x="348" y="-15" on="0"/>
        <pt x="291" y="-15" on="1"/>
        <pt x="225" y="-15" on="0"/>
        <pt x="134" y="35" on="0"/>
        <pt x="77" y="130" on="0"/>
        <pt x="52" y="266" on="0"/>
      </contour>
      <contour>
        <pt x="289" y="82" on="1"/>
        <pt x="339" y="82" on="0"/>
        <pt x="395" y="153" on="0"/>
        <pt x="395" y="219" on="1"/>
        <pt x="395" y="255" on="0"/>
        <pt x="385" y="312" on="0"/>
        <pt x="360" y="352" on="0"/>
        <pt x="319" y="373" on="0"/>
        <pt x="288" y="373" on="1"/>
        <pt x="266" y="373" on="0"/>
        <pt x="217" y="355" on="0"/>
        <pt x="185" y="339" on="1"/>
        <pt x="185" y="209" on="0"/>
        <pt x="228" y="82" on="0"/>
      </contour>
      <contour>
        <pt x="315" y="662" on="1"/>
        <pt x="291" y="662" on="0"/>
        <pt x="247" y="639" on="0"/>
        <pt x="212" y="585" on="0"/>
        <pt x="188" y="496" on="0"/>
        <pt x="185" y="429" on="1"/>
        <pt x="228" y="447" on="0"/>
        <pt x="297" y="482" on="0"/>
        <pt x="345" y="523" on="0"/>
        <pt x="371" y="572" on="0"/>
        <pt x="371" y="604" on="1"/>
        <pt x="371" y="631" on="0"/>
        <pt x="342" y="662" on="0"/>
      </contour>
    </TTGlyph>
    <TTGlyph name="braceleft" xMin="17" yMin="-138" xMax="292" yMax="838">
      <contour>
        <pt x="17" y="402" on="1"/>
        <pt x="59" y="402" on="0"/>
        <pt x="84" y="439" on="0"/>
        <pt x="84" y="480" on="1"/>
        <pt x="84" y="671" on="1"/>
        <pt x="84" y="722" on="0"/>
        <pt x="109" y="786" on="0"/>
        <pt x="160" y="823" on="0"/>
        <pt x="239" y="838" on="0"/>
        <pt x="292" y="838" on="1"/>
        <pt x="292" y="746" on="1"/>
        <pt x="242" y="746" on="0"/>
        <pt x="205" y="717" on="0"/>
        <pt x="205" y="682" on="1"/>
        <pt x="205" y="506" on="1"/>
        <pt x="205" y="470" on="0"/>
        <pt x="197" y="418" on="0"/>
        <pt x="177" y="381" on="0"/>
        <pt x="141" y="358" on="0"/>
        <pt x="114" y="352" on="1"/>
        <pt x="114" y="348" on="1"/>
        <pt x="141" y="342" on="0"/>
        <pt x="177" y="319" on="0"/>
        <pt x="197" y="282" on="0"/>
        <pt x="205" y="230" on="0"/>
        <pt x="205" y="194" on="1"/>
        <pt x="205" y="18" on="1"/>
        <pt x="205" y="-17" on="0"/>
        <pt x="242" y="-46" on="0"/>
        <pt x="292" y="-46" on="1"/>
        <pt x="292" y="-138" on="1"/>
        <pt x="239" y="-138" on="0"/>
        <pt x="160" y="-123" on="0"/>
        <pt x="109" y="-86" on="0"/>
        <pt x="84" y="-22" on="0"/>
        <pt x="84" y="29" on="1"/>
        <pt x="84" y="220" on="1"/>
        <pt x="84" y="261" on="0"/>
        <pt x="59" y="298" on="0"/>
        <pt x="17" y="298" on="1"/>
      </contour>
    </TTGlyph>
    <TTGlyph name="braceright" xMin="33" yMin="-138" xMax="308" yMax="838">
      <contour>
        <pt x="308" y="298" on="1"/>
        <pt x="266" y="298" on="0"/>
        <pt x="241" y="261" on="0"/>
        <pt x="241" y="220" on="1"/>
        <pt x="241" y="29" on="1"/>
        <pt x="241" y="-22" on="0"/>
        <pt x="216" y="-86" on="0"/>
        <pt x="165" y="-123" on="0"/>
        <pt x="86" y="-138" on="0"/>
        <pt x="33" y="-138" on="1"/>
        <pt x="33" y="-46" on="1"/>
        <pt x="83" y="-46" on="0"/>
        <pt x="120" y="-17" on="0"/>
        <pt x="120" y="18" on="1"/>
        <pt x="120" y="194" on="1"/>
        <pt x="120" y="230" on="0"/>
        <pt x="128" y="282" on="0"/>
        <pt x="148" y="319" on="0"/>
        <pt x="184" y="342" on="0"/>
        <pt x="211" y="348" on="1"/>
        <pt x="211" y="352" on="1"/>
        <pt x="184" y="358" on="0"/>
        <pt x="148" y="381" on="0"/>
        <pt x="128" y="418" on="0"/>
        <pt x="120" y="470" on="0"/>
        <pt x="120" y="506" on="1"/>
        <pt x="120" y="682" on="1"/>
        <pt x="120" y="717" on="0"/>
        <pt x="83" y="746" on="0"/>
        <pt x="33" y="746" on="1"/>
        <pt x="33" y="838" on="1"/>
        <pt x="86" y="838" on="0"/>
        <pt x="165" y="823" on="0"/>
        <pt x="216" y="786" on="0"/>
        <pt x="241" y="722" on="0"/>
        <pt x="241" y="671" on="1"/>
        <pt x="241" y="480" on="1"/>
        <pt x="241" y="439" on="0"/>
        <pt x="266" y="402" on="0"/>
        <pt x="308" y="402" on="1"/>
      </contour>
    </TTGlyph>
    <TTGlyph name="bracketleft" xMin="48" yMin="-120" xMax="286" yMax="820">
      <contour>
        <pt x="48" y="-120" on="1"/>
        <pt x="48" y="820" on="1"/>
        <pt x="286" y="820" on="1"/>
        <pt x="286" y="720" on="1"/>
        <pt x="169" y="720" on="1"/>
        <pt x="169" y="-21" on="1"/>
        <pt x="286" y="-21" on="1"/>
        <pt x="286" y="-120" on="1"/>
      </contour>
    </TTGlyph>
    <TTGlyph name="bracketright" xMin="39" yMin="-120" xMax="277" yMax="820">
      <contour>
        <pt x="39" y="-120" on="1"/>
        <pt x="39" y="-21" on="1"/>
        <pt x="156" y="-21" on="1"/>
        <pt x="156" y="721" on="1"/>
        <pt x="39" y="721" on="1"/>
        <pt x="39" y="820" on="1"/>
        <pt x="277" y="820" on="1"/>
        <pt x="277" y="-120" on="1"/>
      </contour>
    </TTGlyph>
    <TTGlyph name="breve" xMin="27" yMin="641" xMax="352" yMax="806">
      <contour>
        <pt x="188" y="641" on="1"/>
        <pt x="150" y="641" on="0"/>
        <pt x="92" y="667" on="0"/>
        <pt x="52" y="709" on="0"/>
        <pt x="30" y="763" on="0"/>
        <pt x="27" y="792" on="1"/>
        <pt x="102" y="806" on="1"/>
        <pt x="113" y="770" on="0"/>
        <pt x="153" y="732" on="0"/>
        <pt x="188" y="732" on="1"/>
        <pt x="223" y="732" on="0"/>
        <pt x="266" y="770" on="0"/>
        <pt x="277" y="806" on="1"/>
        <pt x="352" y="792" on="1"/>
        <pt x="349" y="763" on="0"/>
        <pt x="326" y="709" on="0"/>
        <pt x="285" y="667" on="0"/>
        <pt x="227" y="641" on="0"/>
      </contour>
    </TTGlyph>
    <TTGlyph name="brokenbar" xMin="135" yMin="-104" xMax="253" yMax="809">
      <contour>
        <pt x="135" y="809" on="1"/>
        <pt x="253" y="809" on="1"/>
        <pt x="253" y="448" on="1"/>
        <pt x="135" y="448" on="1"/>
      </contour>
      <contour>
        <pt x="135" y="257" on="1"/>
        <pt x="253" y="257" on="1"/>
        <pt x="253" y="-104" on="1"/>
        <pt x="135" y="-104" on="1"/>
      </contour>
    </TTGlyph>
    <TTGlyph name="bullet" xMin="59" yMin="208" xMax="327" yMax="475">
      <contour>
        <pt x="193" y="208" on="1"/>
        <pt x="164" y="208" on="0"/>
        <pt x="115" y="228" on="0"/>
        <pt x="79" y="264" on="0"/>
        <pt x="59" y="313" on="0"/>
        <pt x="59" y="342" on="1"/>
        <pt x="59" y="371" on="0"/>
        <pt x="79" y="420" on="0"/>
        <pt x="115" y="455" on="0"/>
        <pt x="164" y="475" on="0"/>
        <pt x="193" y="475" on="1"/>
        <pt x="222" y="475" on="0"/>
        <pt x="271" y="455" on="0"/>
        <pt x="307" y="419" on="0"/>
        <pt x="327" y="370" on="0"/>
        <pt x="327" y="341" on="1"/>
        <pt x="327" y="312" on="0"/>
        <pt x="307" y="263" on="0"/>
        <pt x="271" y="228" on="0"/>
        <pt x="222" y="208" on="0"/>
      </contour>
    </TTGlyph>
    <TTGlyph name="c" xMin="43" yMin="-15" xMax="465" yMax="544">
      <contour>
        <pt x="299" y="89" on="1"/>
        <pt x="326" y="89" on="0"/>
        <pt x="376" y="107" on="0"/>
        <pt x="406" y="130" on="1"/>
        <pt x="465" y="46" on="1"/>
        <pt x="389" y="-15" on="0"/>
        <pt x="296" y="-15" on="1"/>
        <pt x="234" y="-15" on="0"/>
        <pt x="140" y="25" on="0"/>
        <pt x="76" y="98" on="0"/>
        <pt x="43" y="200" on="0"/>
        <pt x="43" y="262" on="1"/>
        <pt x="43" y="323" on="0"/>
        <pt x="76" y="426" on="0"/>
        <pt x="140" y="501" on="0"/>
        <pt x="234" y="544" on="0"/>
        <pt x="294" y="544" on="1"/>
        <pt x="343" y="544" on="0"/>
        <pt x="427" y="514" on="0"/>
        <pt x="465" y="482" on="1"/>
        <pt x="407" y="404" on="1"/>
        <pt x="378" y="427" on="0"/>
        <pt x="327" y="443" on="0"/>
        <pt x="300" y="443" on="1"/>
        <pt x="243" y="443" on="0"/>
        <pt x="179" y="358" on="0"/>
        <pt x="179" y="262" on="1"/>
        <pt x="179" y="166" on="0"/>
        <pt x="243" y="89" on="0"/>
      </contour>
    </TTGlyph>
    <TTGlyph name="cacute" xMin="43" yMin="-15" xMax="465" yMax="813">
      <component glyphName="c" x="0" y="0" flags="0x204"/>
      <component glyphName="acutecomb" x="510" y="0" flags="0x4"/>
    </TTGlyph>
    <TTGlyph name="caron" xMin="27" yMin="640" xMax="384" yMax="819">
      <contour>
        <pt x="206" y="734" on="1"/>
        <pt x="336" y="819" on="1"/>
        <pt x="384" y="763" on="1"/>
        <pt x="246" y="640" on="1"/>
        <pt x="166" y="640" on="1"/>
        <pt x="27" y="763" on="1"/>
        <pt x="76" y="819" on="1"/>
      </contour>
    </TTGlyph>
    <TTGlyph name="ccaron" xMin="43" yMin="-15" xMax="465" yMax="805">
      <component glyphName="c" x="0" y="0" flags="0x204"/>
      <component glyphName="uni030C" x="544" y="0" flags="0x4"/>
    </TTGlyph>
    <TTGlyph name="ccedilla" xMin="43" yMin="-253" xMax="465" yMax="544">
      <contour>
        <pt x="314" y="-143" on="1"/>
        <pt x="314" y="-120" on="0"/>
        <pt x="268" y="-106" on="0"/>
        <pt x="225" y="-106" on="1"/>
        <pt x="234" y="-8" on="1"/>
        <pt x="140" y="10" on="0"/>
        <pt x="43" y="153" on="0"/>
        <pt x="43" y="262" on="1"/>
        <pt x="43" y="323" on="0"/>
        <pt x="76" y="426" on="0"/>
        <pt x="140" y="501" on="0"/>
        <pt x="234" y="544" on="0"/>
        <pt x="294" y="544" on="1"/>
        <pt x="343" y="544" on="0"/>
        <pt x="427" y="514" on="0"/>
        <pt x="465" y="482" on="1"/>
        <pt x="407" y="404" on="1"/>
        <pt x="378" y="427" on="0"/>
        <pt x="327" y="443" on="0"/>
        <pt x="300" y="443" on="1"/>
        <pt x="243" y="443" on="0"/>
        <pt x="179" y="358" on="0"/>
        <pt x="179" y="262" on="1"/>
        <pt x="179" y="166" on="0"/>
        <pt x="243" y="89" on="0"/>
        <pt x="299" y="89" on="1"/>
        <pt x="326" y="89" on="0"/>
        <pt x="376" y="107" on="0"/>
        <pt x="406" y="130" on="1"/>
        <pt x="465" y="46" on="1"/>
        <pt x="398" y="-8" on="0"/>
        <pt x="312" y="-14" on="1"/>
        <pt x="312" y="-52" on="1"/>
        <pt x="363" y="-57" on="0"/>
        <pt x="412" y="-108" on="0"/>
        <pt x="412" y="-144" on="1"/>
        <pt x="412" y="-195" on="0"/>
        <pt x="333" y="-253" on="0"/>
        <pt x="273" y="-253" on="1"/>
        <pt x="240" y="-253" on="0"/>
        <pt x="181" y="-236" on="0"/>
        <pt x="161" y="-225" on="1"/>
        <pt x="194" y="-162" on="1"/>
        <pt x="224" y="-178" on="0"/>
        <pt x="259" y="-178" on="1"/>
        <pt x="285" y="-178" on="0"/>
        <pt x="314" y="-163" on="0"/>
      </contour>
    </TTGlyph>
    <TTGlyph name="ccircumflex" xMin="43" yMin="-15" xMax="465" yMax="805">
      <component glyphName="c" x="0" y="0" flags="0x204"/>
      <component glyphName="uni0302" x="546" y="0" flags="0x4"/>
    </TTGlyph>
    <TTGlyph name="cdotaccent" xMin="43" yMin="-15" xMax="465" yMax="795">
      <component glyphName="c" x="0" y="0" flags="0x204"/>
      <component glyphName="uni0307" x="506" y="0" flags="0x4"/>
    </TTGlyph>
    <TTGlyph name="cedilla" xMin="27" yMin="-253" xMax="277" yMax="16">
      <contour>
        <pt x="180" y="-143" on="1"/>
        <pt x="180" y="-120" on="0"/>
        <pt x="134" y="-106" on="0"/>
        <pt x="91" y="-106" on="1"/>
        <pt x="102" y="16" on="1"/>
        <pt x="178" y="16" on="1"/>
        <pt x="178" y="-52" on="1"/>
        <pt x="229" y="-57" on="0"/>
        <pt x="277" y="-108" on="0"/>
        <pt x="277" y="-144" on="1"/>
        <pt x="277" y="-195" on="0"/>
        <pt x="199" y="-253" on="0"/>
        <pt x="139" y="-253" on="1"/>
        <pt x="105" y="-253" on="0"/>
        <pt x="47" y="-236" on="0"/>
        <pt x="27" y="-225" on="1"/>
        <pt x="60" y="-162" on="1"/>
        <pt x="90" y="-178" on="0"/>
        <pt x="125" y="-178" on="1"/>
        <pt x="150" y="-178" on="0"/>
        <pt x="180" y="-163" on="0"/>
      </contour>
    </TTGlyph>
    <TTGlyph name="cent" xMin="68" yMin="-158" xMax="489" yMax="688">
      <contour>
        <pt x="323" y="89" on="1"/>
        <pt x="351" y="89" on="0"/>
        <pt x="400" y="107" on="0"/>
        <pt x="430" y="130" on="1"/>
        <pt x="489" y="46" on="1"/>
        <pt x="460" y="22" on="0"/>
        <pt x="398" y="-5" on="0"/>
        <pt x="363" y="-10" on="1"/>
        <pt x="363" y="-158" on="1"/>
        <pt x="265" y="-158" on="1"/>
        <pt x="265" y="-8" on="1"/>
        <pt x="168" y="9" on="0"/>
        <pt x="68" y="151" on="0"/>
        <pt x="68" y="262" on="1"/>
        <pt x="68" y="316" on="0"/>
        <pt x="94" y="408" on="0"/>
        <pt x="144" y="480" on="0"/>
        <pt x="218" y="528" on="0"/>
        <pt x="266" y="537" on="1"/>
        <pt x="266" y="688" on="1"/>
        <pt x="363" y="688" on="1"/>
        <pt x="363" y="539" on="1"/>
        <pt x="398" y="534" on="0"/>
        <pt x="460" y="506" on="0"/>
        <pt x="489" y="482" on="1"/>
        <pt x="431" y="404" on="1"/>
        <pt x="402" y="427" on="0"/>
        <pt x="351" y="443" on="0"/>
        <pt x="324" y="443" on="1"/>
        <pt x="267" y="443" on="0"/>
        <pt x="203" y="358" on="0"/>
        <pt x="203" y="262" on="1"/>
        <pt x="203" y="166" on="0"/>
        <pt x="268" y="89" on="0"/>
      </contour>
    </TTGlyph>
    <TTGlyph name="chi" xMin="-14" yMin="-218" xMax="491" yMax="543">
      <contour>
        <pt x="246" y="270" on="1"/>
        <pt x="353" y="543" on="1"/>
        <pt x="476" y="516" on="1"/>
        <pt x="315" y="182" on="1"/>
        <pt x="491" y="-182" on="1"/>
        <pt x="364" y="-218" on="1"/>
        <pt x="244" y="91" on="1"/>
        <pt x="240" y="91" on="1"/>
        <pt x="121" y="-218" on="1"/>
        <pt x="-3" y="-191" on="1"/>
        <pt x="173" y="184" on="1"/>
        <pt x="136" y="286" on="0"/>
        <pt x="40" y="448" on="0"/>
        <pt x="-14" y="499" on="1"/>
        <pt x="112" y="543" on="1"/>
        <pt x="133" y="516" on="0"/>
        <pt x="170" y="460" on="0"/>
        <pt x="202" y="395" on="0"/>
        <pt x="230" y="318" on="0"/>
        <pt x="242" y="270" on="1"/>
      </contour>
    </TTGlyph>
    <TTGlyph name="circumflex" xMin="27" yMin="639" xMax="384" yMax="817">
      <contour>
        <pt x="76" y="639" on="1"/>
        <pt x="27" y="694" on="1"/>
        <pt x="166" y="817" on="1"/>
        <pt x="246" y="817" on="1"/>
        <pt x="384" y="694" on="1"/>
        <pt x="336" y="639" on="1"/>
        <pt x="206" y="723" on="1"/>
      </contour>
    </TTGlyph>
    <TTGlyph name="colon" xMin="47" yMin="-15" xMax="209" yMax="506">
      <contour>
        <pt x="47" y="66" on="1"/>
        <pt x="47" y="100" on="0"/>
        <pt x="94" y="147" on="0"/>
        <pt x="128" y="147" on="1"/>
        <pt x="163" y="147" on="0"/>
        <pt x="209" y="100" on="0"/>
        <pt x="209" y="66" on="1"/>
        <pt x="209" y="33" on="0"/>
        <pt x="163" y="-15" on="0"/>
        <pt x="128" y="-15" on="1"/>
        <pt x="94" y="-15" on="0"/>
        <pt x="47" y="33" on="0"/>
      </contour>
      <contour>
        <pt x="47" y="426" on="1"/>
        <pt x="47" y="459" on="0"/>
        <pt x="94" y="506" on="0"/>
        <pt x="128" y="506" on="1"/>
        <pt x="163" y="506" on="0"/>
        <pt x="209" y="459" on="0"/>
        <pt x="209" y="426" on="1"/>
        <pt x="209" y="392" on="0"/>
        <pt x="163" y="344" on="0"/>
        <pt x="128" y="344" on="1"/>
        <pt x="94" y="344" on="0"/>
        <pt x="47" y="392" on="0"/>
      </contour>
    </TTGlyph>
    <TTGlyph name="comma" xMin="40" yMin="-172" xMax="209" yMax="147">
      <contour>
        <pt x="47" y="67" on="1"/>
        <pt x="47" y="101" on="0"/>
        <pt x="93" y="147" on="0"/>
        <pt x="128" y="147" on="1"/>
        <pt x="163" y="147" on="0"/>
        <pt x="209" y="101" on="0"/>
        <pt x="209" y="66" on="1"/>
        <pt x="209" y="46" on="0"/>
        <pt x="197" y="6" on="0"/>
        <pt x="184" y="-24" on="1"/>
        <pt x="118" y="-172" on="1"/>
        <pt x="40" y="-172" on="1"/>
        <pt x="81" y="0" on="1"/>
        <pt x="65" y="11" on="0"/>
        <pt x="47" y="46" on="0"/>
      </contour>
    </TTGlyph>
    <TTGlyph name="copyright" xMin="75" yMin="109" xMax="728" yMax="758">
      <contour>
        <pt x="410" y="316" on="1"/>
        <pt x="435" y="316" on="0"/>
        <pt x="474" y="333" on="0"/>
        <pt x="492" y="349" on="1"/>
        <pt x="532" y="290" on="1"/>
        <pt x="508" y="269" on="0"/>
        <pt x="445" y="240" on="0"/>
        <pt x="404" y="240" on="1"/>
        <pt x="326" y="240" on="0"/>
        <pt x="232" y="340" on="0"/>
        <pt x="232" y="434" on="1"/>
        <pt x="232" y="480" on="0"/>
        <pt x="258" y="552" on="0"/>
        <pt x="305" y="602" on="0"/>
        <pt x="367" y="628" on="0"/>
        <pt x="403" y="628" on="1"/>
        <pt x="441" y="628" on="0"/>
        <pt x="501" y="605" on="0"/>
        <pt x="527" y="582" on="1"/>
        <pt x="484" y="526" on="1"/>
        <pt x="464" y="541" on="0"/>
        <pt x="430" y="553" on="0"/>
        <pt x="411" y="553" on="1"/>
        <pt x="376" y="553" on="0"/>
        <pt x="329" y="499" on="0"/>
        <pt x="329" y="434" on="1"/>
        <pt x="329" y="371" on="0"/>
        <pt x="374" y="316" on="0"/>
      </contour>
      <contour>
        <pt x="403" y="177" on="1"/>
        <pt x="456" y="177" on="0"/>
        <pt x="547" y="217" on="0"/>
        <pt x="613" y="286" on="0"/>
        <pt x="651" y="379" on="0"/>
        <pt x="651" y="433" on="1"/>
        <pt x="651" y="487" on="0"/>
        <pt x="613" y="581" on="0"/>
        <pt x="547" y="651" on="0"/>
        <pt x="456" y="691" on="0"/>
        <pt x="403" y="691" on="1"/>
        <pt x="349" y="691" on="0"/>
        <pt x="257" y="651" on="0"/>
        <pt x="191" y="581" on="0"/>
        <pt x="153" y="487" on="0"/>
        <pt x="153" y="433" on="1"/>
        <pt x="153" y="379" on="0"/>
        <pt x="191" y="286" on="0"/>
        <pt x="257" y="217" on="0"/>
        <pt x="349" y="177" on="0"/>
      </contour>
      <contour>
        <pt x="403" y="109" on="1"/>
        <pt x="335" y="109" on="0"/>
        <pt x="215" y="160" on="0"/>
        <pt x="126" y="247" on="0"/>
        <pt x="75" y="365" on="0"/>
        <pt x="75" y="433" on="1"/>
        <pt x="75" y="501" on="0"/>
        <pt x="126" y="619" on="0"/>
        <pt x="215" y="707" on="0"/>
        <pt x="335" y="758" on="0"/>
        <pt x="403" y="758" on="1"/>
        <pt x="471" y="758" on="0"/>
        <pt x="589" y="707" on="0"/>
        <pt x="677" y="619" on="0"/>
        <pt x="728" y="501" on="0"/>
        <pt x="728" y="433" on="1"/>
        <pt x="728" y="365" on="0"/>
        <pt x="677" y="247" on="0"/>
        <pt x="589" y="160" on="0"/>
        <pt x="471" y="109" on="0"/>
      </contour>
    </TTGlyph>
    <TTGlyph name="currency" xMin="12" yMin="72" xMax="548" yMax="611">
      <component glyphName="glyph00774" x="0" y="0" flags="0x204"/>
    </TTGlyph>
    <TTGlyph name="d" xMin="45" yMin="-15" xMax="518" yMax="755">
      <contour>
        <pt x="293" y="448" on="1"/>
        <pt x="240" y="448" on="0"/>
        <pt x="179" y="361" on="0"/>
        <pt x="179" y="265" on="1"/>
        <pt x="179" y="163" on="0"/>
        <pt x="234" y="82" on="0"/>
        <pt x="284" y="82" on="1"/>
        <pt x="317" y="82" on="0"/>
        <pt x="371" y="122" on="0"/>
        <pt x="390" y="152" on="1"/>
        <pt x="390" y="395" on="1"/>
        <pt x="372" y="420" on="0"/>
        <pt x="323" y="448" on="0"/>
      </contour>
      <contour>
        <pt x="260" y="544" on="1"/>
        <pt x="339" y="544" on="0"/>
        <pt x="390" y="490" on="1"/>
        <pt x="390" y="755" on="1"/>
        <pt x="518" y="741" on="1"/>
        <pt x="518" y="0" on="1"/>
        <pt x="405" y="0" on="1"/>
        <pt x="397" y="63" on="1"/>
        <pt x="372" y="28" on="0"/>
        <pt x="295" y="-15" on="0"/>
        <pt x="246" y="-15" on="1"/>
        <pt x="195" y="-15" on="0"/>
        <pt x="119" y="25" on="0"/>
        <pt x="69" y="98" on="0"/>
        <pt x="45" y="202" on="0"/>
        <pt x="45" y="265" on="1"/>
        <pt x="45" y="326" on="0"/>
        <pt x="74" y="428" on="0"/>
        <pt x="130" y="502" on="0"/>
        <pt x="209" y="544" on="0"/>
      </contour>
    </TTGlyph>
    <TTGlyph name="dagger" xMin="44" yMin="0" xMax="509" yMax="724">
      <contour>
        <pt x="337" y="447" on="1"/>
        <pt x="337" y="0" on="1"/>
        <pt x="216" y="0" on="1"/>
        <pt x="216" y="447" on="1"/>
        <pt x="44" y="447" on="1"/>
        <pt x="44" y="551" on="1"/>
        <pt x="216" y="551" on="1"/>
        <pt x="216" y="724" on="1"/>
        <pt x="337" y="724" on="1"/>
        <pt x="337" y="551" on="1"/>
        <pt x="509" y="551" on="1"/>
        <pt x="509" y="447" on="1"/>
      </contour>
    </TTGlyph>
    <TTGlyph name="daggerdbl" xMin="44" yMin="0" xMax="509" yMax="724">
      <contour>
        <pt x="509" y="278" on="1"/>
        <pt x="509" y="173" on="1"/>
        <pt x="337" y="173" on="1"/>
        <pt x="337" y="0" on="1"/>
        <pt x="216" y="0" on="1"/>
        <pt x="216" y="173" on="1"/>
        <pt x="44" y="173" on="1"/>
        <pt x="44" y="278" on="1"/>
        <pt x="216" y="278" on="1"/>
        <pt x="216" y="447" on="1"/>
        <pt x="44" y="447" on="1"/>
        <pt x="44" y="551" on="1"/>
        <pt x="216" y="551" on="1"/>
        <pt x="216" y="724" on="1"/>
        <pt x="337" y="724" on="1"/>
        <pt x="337" y="551" on="1"/>
        <pt x="509" y="551" on="1"/>
        <pt x="509" y="447" on="1"/>
        <pt x="337" y="447" on="1"/>
        <pt x="337" y="278" on="1"/>
      </contour>
    </TTGlyph>
    <TTGlyph name="dcaron" xMin="45" yMin="-15" xMax="710" yMax="826">
      <component glyphName="d" x="0" y="0" flags="0x4"/>
      <component glyphName="uni0313" x="925" y="-45" flags="0x4"/>
    </TTGlyph>
    <TTGlyph name="dcroat" xMin="45" yMin="-15" xMax="591" yMax="755">
      <contour>
        <pt x="293" y="448" on="1"/>
        <pt x="240" y="448" on="0"/>
        <pt x="179" y="361" on="0"/>
        <pt x="179" y="265" on="1"/>
        <pt x="179" y="215" on="0"/>
        <pt x="194" y="145" on="0"/>
        <pt x="221" y="101" on="0"/>
        <pt x="260" y="82" on="0"/>
        <pt x="284" y="82" on="1"/>
        <pt x="317" y="82" on="0"/>
        <pt x="371" y="122" on="0"/>
        <pt x="390" y="152" on="1"/>
        <pt x="390" y="395" on="1"/>
        <pt x="372" y="420" on="0"/>
        <pt x="323" y="448" on="0"/>
      </contour>
      <contour>
        <pt x="260" y="544" on="1"/>
        <pt x="339" y="544" on="0"/>
        <pt x="390" y="490" on="1"/>
        <pt x="390" y="595" on="1"/>
        <pt x="241" y="595" on="1"/>
        <pt x="241" y="677" on="1"/>
        <pt x="390" y="677" on="1"/>
        <pt x="390" y="755" on="1"/>
        <pt x="518" y="741" on="1"/>
        <pt x="518" y="677" on="1"/>
        <pt x="591" y="677" on="1"/>
        <pt x="591" y="595" on="1"/>
        <pt x="518" y="595" on="1"/>
        <pt x="518" y="0" on="1"/>
        <pt x="405" y="0" on="1"/>
        <pt x="397" y="63" on="1"/>
        <pt x="372" y="28" on="0"/>
        <pt x="295" y="-15" on="0"/>
        <pt x="246" y="-15" on="1"/>
        <pt x="193" y="-15" on="0"/>
        <pt x="117" y="25" on="0"/>
        <pt x="68" y="98" on="0"/>
        <pt x="45" y="202" on="0"/>
        <pt x="45" y="265" on="1"/>
        <pt x="45" y="326" on="0"/>
        <pt x="74" y="428" on="0"/>
        <pt x="130" y="502" on="0"/>
        <pt x="209" y="544" on="0"/>
      </contour>
    </TTGlyph>
    <TTGlyph name="degree" xMin="55" yMin="426" xMax="399" yMax="755">
      <contour>
        <pt x="227" y="505" on="1"/>
        <pt x="260" y="505" on="0"/>
        <pt x="305" y="549" on="0"/>
        <pt x="305" y="591" on="1"/>
        <pt x="305" y="633" on="0"/>
        <pt x="260" y="676" on="0"/>
        <pt x="227" y="676" on="1"/>
        <pt x="195" y="676" on="0"/>
        <pt x="150" y="633" on="0"/>
        <pt x="150" y="592" on="1"/>
        <pt x="150" y="550" on="0"/>
        <pt x="195" y="505" on="0"/>
      </contour>
      <contour>
        <pt x="227" y="426" on="1"/>
        <pt x="195" y="426" on="0"/>
        <pt x="133" y="448" on="0"/>
        <pt x="85" y="491" on="0"/>
        <pt x="55" y="553" on="0"/>
        <pt x="55" y="592" on="1"/>
        <pt x="55" y="631" on="0"/>
        <pt x="85" y="691" on="0"/>
        <pt x="133" y="733" on="0"/>
        <pt x="195" y="755" on="0"/>
        <pt x="227" y="755" on="1"/>
        <pt x="260" y="755" on="0"/>
        <pt x="322" y="733" on="0"/>
        <pt x="370" y="691" on="0"/>
        <pt x="399" y="630" on="0"/>
        <pt x="399" y="591" on="1"/>
        <pt x="399" y="552" on="0"/>
        <pt x="370" y="491" on="0"/>
        <pt x="322" y="448" on="0"/>
        <pt x="260" y="426" on="0"/>
      </contour>
    </TTGlyph>
    <TTGlyph name="delta" xMin="40" yMin="-15" xMax="539" yMax="755">
      <contour>
        <pt x="40" y="243" on="1"/>
        <pt x="40" y="325" on="0"/>
        <pt x="125" y="442" on="0"/>
        <pt x="196" y="472" on="1"/>
        <pt x="140" y="501" on="0"/>
        <pt x="99" y="563" on="0"/>
        <pt x="99" y="607" on="1"/>
        <pt x="99" y="675" on="0"/>
        <pt x="207" y="755" on="0"/>
        <pt x="306" y="755" on="1"/>
        <pt x="364" y="755" on="0"/>
        <pt x="452" y="721" on="0"/>
        <pt x="487" y="693" on="1"/>
        <pt x="425" y="622" on="1"/>
        <pt x="395" y="644" on="0"/>
        <pt x="339" y="662" on="0"/>
        <pt x="307" y="662" on="1"/>
        <pt x="269" y="662" on="0"/>
        <pt x="228" y="632" on="0"/>
        <pt x="228" y="607" on="1"/>
        <pt x="228" y="593" on="0"/>
        <pt x="238" y="572" on="0"/>
        <pt x="261" y="553" on="0"/>
        <pt x="301" y="534" on="0"/>
        <pt x="331" y="522" on="1"/>
        <pt x="385" y="500" on="0"/>
        <pt x="463" y="451" on="0"/>
        <pt x="514" y="386" on="0"/>
        <pt x="539" y="302" on="0"/>
        <pt x="539" y="246" on="1"/>
        <pt x="539" y="190" on="0"/>
        <pt x="504" y="95" on="0"/>
        <pt x="439" y="25" on="0"/>
        <pt x="347" y="-15" on="0"/>
        <pt x="289" y="-15" on="1"/>
        <pt x="230" y="-15" on="0"/>
        <pt x="138" y="24" on="0"/>
        <pt x="74" y="93" on="0"/>
        <pt x="40" y="187" on="0"/>
      </contour>
      <contour>
        <pt x="404" y="247" on="1"/>
        <pt x="404" y="287" on="0"/>
        <pt x="392" y="344" on="0"/>
        <pt x="362" y="387" on="0"/>
        <pt x="312" y="420" on="0"/>
        <pt x="274" y="437" on="1"/>
        <pt x="217" y="403" on="0"/>
        <pt x="174" y="311" on="0"/>
        <pt x="174" y="246" on="1"/>
        <pt x="174" y="166" on="0"/>
        <pt x="233" y="82" on="0"/>
        <pt x="289" y="82" on="1"/>
        <pt x="345" y="82" on="0"/>
        <pt x="404" y="163" on="0"/>
      </contour>
    </TTGlyph>
    <TTGlyph name="dieresis" xMin="27" yMin="649" xMax="390" yMax="788">
      <contour>
        <pt x="98" y="649" on="1"/>
        <pt x="68" y="649" on="0"/>
        <pt x="27" y="690" on="0"/>
        <pt x="27" y="719" on="1"/>
        <pt x="27" y="748" on="0"/>
        <pt x="68" y="788" on="0"/>
        <pt x="98" y="788" on="1"/>
        <pt x="128" y="788" on="0"/>
        <pt x="168" y="748" on="0"/>
        <pt x="168" y="719" on="1"/>
        <pt x="168" y="690" on="0"/>
        <pt x="128" y="649" on="0"/>
      </contour>
      <contour>
        <pt x="319" y="649" on="1"/>
        <pt x="290" y="649" on="0"/>
        <pt x="248" y="690" on="0"/>
        <pt x="248" y="719" on="1"/>
        <pt x="248" y="748" on="0"/>
        <pt x="290" y="788" on="0"/>
        <pt x="319" y="788" on="1"/>
        <pt x="350" y="788" on="0"/>
        <pt x="390" y="748" on="0"/>
        <pt x="390" y="719" on="1"/>
        <pt x="390" y="690" on="0"/>
        <pt x="350" y="649" on="0"/>
      </contour>
    </TTGlyph>
    <TTGlyph name="dieresistonos" xMin="-484" yMin="610" xMax="-101" yMax="929">
      <contour>
        <pt x="-414" y="610" on="1"/>
        <pt x="-443" y="610" on="0"/>
        <pt x="-484" y="649" on="0"/>
        <pt x="-484" y="678" on="1"/>
        <pt x="-484" y="707" on="0"/>
        <pt x="-443" y="745" on="0"/>
        <pt x="-414" y="745" on="1"/>
        <pt x="-385" y="745" on="0"/>
        <pt x="-345" y="707" on="0"/>
        <pt x="-345" y="678" on="1"/>
        <pt x="-345" y="649" on="0"/>
        <pt x="-385" y="610" on="0"/>
      </contour>
      <contour>
        <pt x="-170" y="610" on="1"/>
        <pt x="-199" y="610" on="0"/>
        <pt x="-240" y="649" on="0"/>
        <pt x="-240" y="678" on="1"/>
        <pt x="-240" y="707" on="0"/>
        <pt x="-199" y="745" on="0"/>
        <pt x="-170" y="745" on="1"/>
        <pt x="-141" y="745" on="0"/>
        <pt x="-101" y="707" on="0"/>
        <pt x="-101" y="678" on="1"/>
        <pt x="-101" y="649" on="0"/>
        <pt x="-141" y="610" on="0"/>
      </contour>
      <contour>
        <pt x="-336" y="733" on="1"/>
        <pt x="-304" y="929" on="1"/>
        <pt x="-189" y="906" on="1"/>
        <pt x="-259" y="717" on="1"/>
      </contour>
    </TTGlyph>
    <TTGlyph name="divide" xMin="76" yMin="28" xMax="484" yMax="603">
      <component glyphName="glyph00781" x="25" y="0" flags="0x4"/>
    </TTGlyph>
    <TTGlyph name="dollar" xMin="32" yMin="-158" xMax="527" yMax="853">
      <contour>
        <pt x="527" y="198" on="1"/>
        <pt x="527" y="115" on="0"/>
        <pt x="426" y="6" on="0"/>
        <pt x="332" y="-8" on="1"/>
        <pt x="332" y="-158" on="1"/>
        <pt x="232" y="-158" on="1"/>
        <pt x="232" y="-10" on="1"/>
        <pt x="170" y="-4" on="0"/>
        <pt x="68" y="41" on="0"/>
        <pt x="32" y="76" on="1"/>
        <pt x="100" y="154" on="1"/>
        <pt x="135" y="122" on="0"/>
        <pt x="215" y="87" on="0"/>
        <pt x="269" y="87" on="1"/>
        <pt x="323" y="87" on="0"/>
        <pt x="392" y="141" on="0"/>
        <pt x="392" y="190" on="1"/>
        <pt x="392" y="211" on="0"/>
        <pt x="381" y="245" on="0"/>
        <pt x="352" y="275" on="0"/>
        <pt x="301" y="300" on="0"/>
        <pt x="262" y="312" on="1"/>
        <pt x="156" y="345" on="0"/>
        <pt x="58" y="445" on="0"/>
        <pt x="58" y="518" on="1"/>
        <pt x="58" y="555" on="0"/>
        <pt x="83" y="616" on="0"/>
        <pt x="129" y="662" on="0"/>
        <pt x="193" y="693" on="0"/>
        <pt x="232" y="700" on="1"/>
        <pt x="232" y="853" on="1"/>
        <pt x="331" y="853" on="1"/>
        <pt x="331" y="703" on="1"/>
        <pt x="387" y="698" on="0"/>
        <pt x="473" y="658" on="0"/>
        <pt x="510" y="626" on="1"/>
        <pt x="443" y="554" on="1"/>
        <pt x="409" y="583" on="0"/>
        <pt x="338" y="608" on="0"/>
        <pt x="300" y="608" on="1"/>
        <pt x="252" y="608" on="0"/>
        <pt x="192" y="566" on="0"/>
        <pt x="192" y="526" on="1"/>
        <pt x="192" y="508" on="0"/>
        <pt x="204" y="480" on="0"/>
        <pt x="235" y="454" on="0"/>
        <pt x="289" y="430" on="0"/>
        <pt x="331" y="417" on="1"/>
        <pt x="376" y="403" on="0"/>
        <pt x="448" y="365" on="0"/>
        <pt x="499" y="312" on="0"/>
        <pt x="527" y="243" on="0"/>
      </contour>
    </TTGlyph>
    <TTGlyph name="dotaccent" xMin="27" yMin="652" xMax="187" yMax="806">
      <contour>
        <pt x="187" y="729" on="1"/>
        <pt x="187" y="696" on="0"/>
        <pt x="142" y="652" on="0"/>
        <pt x="107" y="652" on="1"/>
        <pt x="71" y="652" on="0"/>
        <pt x="27" y="696" on="0"/>
        <pt x="27" y="729" on="1"/>
        <pt x="27" y="762" on="0"/>
        <pt x="71" y="806" on="0"/>
        <pt x="107" y="806" on="1"/>
        <pt x="142" y="806" on="0"/>
        <pt x="187" y="762" on="0"/>
      </contour>
    </TTGlyph>
    <TTGlyph name="dotlessi" xMin="76" yMin="0" xMax="204" yMax="529">
      <contour>
        <pt x="76" y="0" on="1"/>
        <pt x="76" y="529" on="1"/>
        <pt x="204" y="529" on="1"/>
        <pt x="204" y="0" on="1"/>
      </contour>
    </TTGlyph>
    <TTGlyph name="dotmath" xMin="47" yMin="252" xMax="209" yMax="413">
      <component glyphName="periodcentered" x="0" y="0" flags="0x204"/>
    </TTGlyph>
    <TTGlyph name="e" xMin="43" yMin="-15" xMax="511" yMax="544">
      <contour>
        <pt x="176" y="225" on="1"/>
        <pt x="184" y="150" on="0"/>
        <pt x="252" y="82" on="0"/>
        <pt x="306" y="82" on="1"/>
        <pt x="340" y="82" on="0"/>
        <pt x="400" y="104" on="0"/>
        <pt x="434" y="131" on="1"/>
        <pt x="489" y="54" on="1"/>
        <pt x="451" y="23" on="0"/>
        <pt x="356" y="-15" on="0"/>
        <pt x="298" y="-15" on="1"/>
        <pt x="234" y="-15" on="0"/>
        <pt x="139" y="26" on="0"/>
        <pt x="75" y="100" on="0"/>
        <pt x="43" y="202" on="0"/>
        <pt x="43" y="264" on="1"/>
        <pt x="43" y="323" on="0"/>
        <pt x="74" y="426" on="0"/>
        <pt x="135" y="501" on="0"/>
        <pt x="224" y="544" on="0"/>
        <pt x="281" y="544" on="1"/>
        <pt x="390" y="544" on="0"/>
        <pt x="511" y="403" on="0"/>
        <pt x="511" y="277" on="1"/>
        <pt x="511" y="264" on="0"/>
        <pt x="509" y="236" on="0"/>
        <pt x="508" y="225" on="1"/>
      </contour>
      <contour>
        <pt x="282" y="453" on="1"/>
        <pt x="236" y="453" on="0"/>
        <pt x="180" y="383" on="0"/>
        <pt x="175" y="308" on="1"/>
        <pt x="384" y="308" on="1"/>
        <pt x="383" y="377" on="0"/>
        <pt x="337" y="453" on="0"/>
      </contour>
    </TTGlyph>
    <TTGlyph name="eacute" xMin="43" yMin="-15" xMax="511" yMax="813">
      <component glyphName="e" x="0" y="0" flags="0x204"/>
      <component glyphName="acutecomb" x="520" y="0" flags="0x4"/>
    </TTGlyph>
    <TTGlyph name="ebreve" xMin="43" yMin="-15" xMax="511" yMax="792">
      <component glyphName="e" x="0" y="0" flags="0x204"/>
      <component glyphName="uni0306" x="541" y="0" flags="0x4"/>
    </TTGlyph>
    <TTGlyph name="ecaron" xMin="43" yMin="-15" xMax="511" yMax="805">
      <component glyphName="e" x="0" y="0" flags="0x204"/>
      <component glyphName="uni030C" x="548" y="0" flags="0x4"/>
    </TTGlyph>
    <TTGlyph name="ecircumflex" xMin="43" yMin="-15" xMax="511" yMax="805">
      <component glyphName="e" x="0" y="0" flags="0x204"/>
      <component glyphName="uni0302" x="553" y="0" flags="0x4"/>
    </TTGlyph>
    <TTGlyph name="edieresis" xMin="43" yMin="-15" xMax="511" yMax="780">
      <component glyphName="e" x="0" y="0" flags="0x204"/>
      <component glyphName="uni0308" x="548" y="0" flags="0x4"/>
    </TTGlyph>
    <TTGlyph name="edotaccent" xMin="43" yMin="-15" xMax="511" yMax="795">
      <component glyphName="e" x="0" y="0" flags="0x204"/>
      <component glyphName="uni0307" x="512" y="0" flags="0x4"/>
    </TTGlyph>
    <TTGlyph name="egrave" xMin="43" yMin="-15" xMax="511" yMax="814">
      <component glyphName="e" x="0" y="0" flags="0x204"/>
      <component glyphName="gravecomb" x="522" y="0" flags="0x4"/>
    </TTGlyph>
    <TTGlyph name="eight" xMin="32" yMin="-15" xMax="528" yMax="706">
      <contour>
        <pt x="501" y="531" on="1"/>
        <pt x="501" y="487" on="0"/>
        <pt x="445" y="406" on="0"/>
        <pt x="388" y="375" on="1"/>
        <pt x="528" y="308" on="0"/>
        <pt x="528" y="187" on="1"/>
        <pt x="528" y="146" on="0"/>
        <pt x="495" y="72" on="0"/>
        <pt x="431" y="17" on="0"/>
        <pt x="338" y="-15" on="0"/>
        <pt x="277" y="-15" on="1"/>
        <pt x="217" y="-15" on="0"/>
        <pt x="125" y="17" on="0"/>
        <pt x="64" y="71" on="0"/>
        <pt x="32" y="143" on="0"/>
        <pt x="32" y="184" on="1"/>
        <pt x="32" y="245" on="0"/>
        <pt x="103" y="332" on="0"/>
        <pt x="164" y="359" on="1"/>
        <pt x="109" y="390" on="0"/>
        <pt x="59" y="475" on="0"/>
        <pt x="59" y="526" on="1"/>
        <pt x="59" y="570" on="0"/>
        <pt x="96" y="638" on="0"/>
        <pt x="158" y="683" on="0"/>
        <pt x="238" y="706" on="0"/>
        <pt x="281" y="706" on="1"/>
        <pt x="326" y="706" on="0"/>
        <pt x="406" y="684" on="0"/>
        <pt x="466" y="640" on="0"/>
        <pt x="501" y="574" on="0"/>
      </contour>
      <contour>
        <pt x="398" y="187" on="1"/>
        <pt x="398" y="216" on="0"/>
        <pt x="378" y="257" on="0"/>
        <pt x="339" y="287" on="0"/>
        <pt x="282" y="311" on="0"/>
        <pt x="245" y="324" on="1"/>
        <pt x="210" y="304" on="0"/>
        <pt x="162" y="240" on="0"/>
        <pt x="162" y="189" on="1"/>
        <pt x="162" y="140" on="0"/>
        <pt x="221" y="80" on="0"/>
        <pt x="280" y="80" on="1"/>
        <pt x="339" y="80" on="0"/>
        <pt x="398" y="143" on="0"/>
      </contour>
      <contour>
        <pt x="182" y="525" on="1"/>
        <pt x="182" y="479" on="0"/>
        <pt x="244" y="426" on="0"/>
        <pt x="304" y="405" on="1"/>
        <pt x="344" y="431" on="0"/>
        <pt x="378" y="490" on="0"/>
        <pt x="378" y="525" on="1"/>
        <pt x="378" y="565" on="0"/>
        <pt x="328" y="616" on="0"/>
        <pt x="280" y="616" on="1"/>
        <pt x="233" y="616" on="0"/>
        <pt x="182" y="569" on="0"/>
      </contour>
    </TTGlyph>
    <TTGlyph name="ellipsis" xMin="47" yMin="-15" xMax="721" yMax="147">
      <contour>
        <pt x="303" y="66" on="1"/>
        <pt x="303" y="100" on="0"/>
        <pt x="350" y="147" on="0"/>
        <pt x="384" y="147" on="1"/>
        <pt x="419" y="147" on="0"/>
        <pt x="465" y="100" on="0"/>
        <pt x="465" y="66" on="1"/>
        <pt x="465" y="33" on="0"/>
        <pt x="419" y="-15" on="0"/>
        <pt x="384" y="-15" on="1"/>
        <pt x="350" y="-15" on="0"/>
        <pt x="303" y="33" on="0"/>
      </contour>
      <contour>
        <pt x="47" y="66" on="1"/>
        <pt x="47" y="100" on="0"/>
        <pt x="94" y="147" on="0"/>
        <pt x="128" y="147" on="1"/>
        <pt x="163" y="147" on="0"/>
        <pt x="209" y="100" on="0"/>
        <pt x="209" y="66" on="1"/>
        <pt x="209" y="33" on="0"/>
        <pt x="163" y="-15" on="0"/>
        <pt x="128" y="-15" on="1"/>
        <pt x="94" y="-15" on="0"/>
        <pt x="47" y="33" on="0"/>
      </contour>
      <contour>
        <pt x="559" y="66" on="1"/>
        <pt x="559" y="100" on="0"/>
        <pt x="606" y="147" on="0"/>
        <pt x="640" y="147" on="1"/>
        <pt x="675" y="147" on="0"/>
        <pt x="721" y="100" on="0"/>
        <pt x="721" y="66" on="1"/>
        <pt x="721" y="33" on="0"/>
        <pt x="675" y="-15" on="0"/>
        <pt x="640" y="-15" on="1"/>
        <pt x="606" y="-15" on="0"/>
        <pt x="559" y="33" on="0"/>
      </contour>
    </TTGlyph>
    <TTGlyph name="emacron" xMin="43" yMin="-15" xMax="511" yMax="756">
      <component glyphName="e" x="0" y="0" flags="0x204"/>
      <component glyphName="uni0304" x="527" y="0" flags="0x4"/>
    </TTGlyph>
    <TTGlyph name="emdash" xMin="26" yMin="262" xMax="767" yMax="364">
      <contour>
        <pt x="26" y="262" on="1"/>
        <pt x="26" y="364" on="1"/>
        <pt x="767" y="364" on="1"/>
        <pt x="767" y="262" on="1"/>
      </contour>
    </TTGlyph>
    <TTGlyph name="endash" xMin="26" yMin="262" xMax="494" yMax="364">
      <contour>
        <pt x="26" y="262" on="1"/>
        <pt x="26" y="364" on="1"/>
        <pt x="494" y="364" on="1"/>
        <pt x="494" y="262" on="1"/>
      </contour>
    </TTGlyph>
    <TTGlyph name="eng" xMin="79" yMin="-217" xMax="509" yMax="544">
      <contour>
        <pt x="381" y="374" on="1"/>
        <pt x="381" y="414" on="0"/>
        <pt x="350" y="448" on="0"/>
        <pt x="316" y="448" on="1"/>
        <pt x="283" y="448" on="0"/>
        <pt x="229" y="404" on="0"/>
        <pt x="207" y="374" on="1"/>
        <pt x="207" y="0" on="1"/>
        <pt x="79" y="0" on="1"/>
        <pt x="79" y="529" on="1"/>
        <pt x="190" y="529" on="1"/>
        <pt x="199" y="463" on="1"/>
        <pt x="233" y="503" on="0"/>
        <pt x="318" y="544" on="0"/>
        <pt x="365" y="544" on="1"/>
        <pt x="439" y="544" on="0"/>
        <pt x="509" y="462" on="0"/>
        <pt x="509" y="387" on="1"/>
        <pt x="509" y="47" on="1"/>
        <pt x="509" y="-15" on="0"/>
        <pt x="483" y="-99" on="0"/>
        <pt x="435" y="-158" on="0"/>
        <pt x="365" y="-199" on="0"/>
        <pt x="321" y="-217" on="1"/>
        <pt x="275" y="-124" on="1"/>
        <pt x="301" y="-112" on="0"/>
        <pt x="340" y="-88" on="0"/>
        <pt x="367" y="-52" on="0"/>
        <pt x="381" y="0" on="0"/>
        <pt x="381" y="39" on="1"/>
      </contour>
    </TTGlyph>
    <TTGlyph name="eogonek" xMin="43" yMin="-248" xMax="511" yMax="544">
      <contour>
        <pt x="176" y="225" on="1"/>
        <pt x="184" y="150" on="0"/>
        <pt x="252" y="82" on="0"/>
        <pt x="306" y="82" on="1"/>
        <pt x="340" y="82" on="0"/>
        <pt x="400" y="104" on="0"/>
        <pt x="434" y="131" on="1"/>
        <pt x="489" y="54" on="1"/>
        <pt x="466" y="38" on="0"/>
        <pt x="424" y="9" on="0"/>
        <pt x="404" y="-3" on="1"/>
        <pt x="357" y="-40" on="0"/>
        <pt x="327" y="-100" on="0"/>
        <pt x="327" y="-123" on="1"/>
        <pt x="327" y="-145" on="0"/>
        <pt x="354" y="-174" on="0"/>
        <pt x="385" y="-174" on="1"/>
        <pt x="405" y="-174" on="0"/>
        <pt x="438" y="-164" on="0"/>
        <pt x="448" y="-159" on="1"/>
        <pt x="476" y="-225" on="1"/>
        <pt x="432" y="-248" on="0"/>
        <pt x="372" y="-248" on="1"/>
        <pt x="346" y="-248" on="0"/>
        <pt x="296" y="-235" on="0"/>
        <pt x="257" y="-208" on="0"/>
        <pt x="233" y="-165" on="0"/>
        <pt x="233" y="-135" on="1"/>
        <pt x="233" y="-98" on="0"/>
        <pt x="280" y="-31" on="0"/>
        <pt x="327" y="-5" on="1"/>
        <pt x="301" y="-11" on="0"/>
        <pt x="273" y="-11" on="1"/>
        <pt x="218" y="-11" on="0"/>
        <pt x="132" y="32" on="0"/>
        <pt x="74" y="106" on="0"/>
        <pt x="43" y="207" on="0"/>
        <pt x="43" y="264" on="1"/>
        <pt x="43" y="323" on="0"/>
        <pt x="74" y="426" on="0"/>
        <pt x="135" y="501" on="0"/>
        <pt x="224" y="544" on="0"/>
        <pt x="281" y="544" on="1"/>
        <pt x="390" y="544" on="0"/>
        <pt x="511" y="403" on="0"/>
        <pt x="511" y="277" on="1"/>
        <pt x="511" y="264" on="0"/>
        <pt x="509" y="236" on="0"/>
        <pt x="508" y="225" on="1"/>
      </contour>
      <contour>
        <pt x="282" y="453" on="1"/>
        <pt x="236" y="453" on="0"/>
        <pt x="180" y="383" on="0"/>
        <pt x="175" y="308" on="1"/>
        <pt x="384" y="308" on="1"/>
        <pt x="383" y="377" on="0"/>
        <pt x="337" y="453" on="0"/>
      </contour>
    </TTGlyph>
    <TTGlyph name="epsilon" xMin="43" yMin="-15" xMax="498" yMax="544">
      <contour>
        <pt x="333" y="230" on="1"/>
        <pt x="276" y="230" on="1"/>
        <pt x="224" y="229" on="0"/>
        <pt x="179" y="194" on="0"/>
        <pt x="179" y="159" on="1"/>
        <pt x="179" y="123" on="0"/>
        <pt x="230" y="80" on="0"/>
        <pt x="281" y="80" on="1"/>
        <pt x="327" y="80" on="0"/>
        <pt x="402" y="108" on="0"/>
        <pt x="436" y="133" on="1"/>
        <pt x="498" y="58" on="1"/>
        <pt x="457" y="27" on="0"/>
        <pt x="349" y="-15" on="0"/>
        <pt x="277" y="-15" on="1"/>
        <pt x="226" y="-15" on="0"/>
        <pt x="140" y="6" on="0"/>
        <pt x="78" y="47" on="0"/>
        <pt x="43" y="109" on="0"/>
        <pt x="43" y="150" on="1"/>
        <pt x="43" y="208" on="0"/>
        <pt x="116" y="273" on="0"/>
        <pt x="169" y="281" on="1"/>
        <pt x="169" y="285" on="1"/>
        <pt x="123" y="296" on="0"/>
        <pt x="64" y="357" on="0"/>
        <pt x="64" y="402" on="1"/>
        <pt x="64" y="436" on="0"/>
        <pt x="96" y="489" on="0"/>
        <pt x="152" y="525" on="0"/>
        <pt x="227" y="544" on="0"/>
        <pt x="271" y="544" on="1"/>
        <pt x="321" y="544" on="0"/>
        <pt x="425" y="516" on="0"/>
        <pt x="467" y="484" on="1"/>
        <pt x="407" y="412" on="1"/>
        <pt x="378" y="433" on="0"/>
        <pt x="312" y="452" on="0"/>
        <pt x="281" y="452" on="1"/>
        <pt x="239" y="452" on="0"/>
        <pt x="194" y="419" on="0"/>
        <pt x="194" y="385" on="1"/>
        <pt x="194" y="355" on="0"/>
        <pt x="240" y="318" on="0"/>
        <pt x="282" y="318" on="1"/>
        <pt x="346" y="318" on="1"/>
      </contour>
    </TTGlyph>
    <TTGlyph name="epsilontonos" xMin="43" yMin="-15" xMax="498" yMax="834">
      <component glyphName="tonos" x="343" y="0" flags="0x4"/>
      <component glyphName="epsilon" x="0" y="0" flags="0x4"/>
    </TTGlyph>
    <TTGlyph name="equal" xMin="76" yMin="162" xMax="484" yMax="467">
      <component glyphName="glyph00769" x="25" y="0" flags="0x4"/>
    </TTGlyph>
    <TTGlyph name="estimated" xMin="78" yMin="-12" xMax="867" yMax="702">
      <contour>
        <pt x="223" y="334" on="1"/>
        <pt x="223" y="122" on="1"/>
        <pt x="238" y="99" on="0"/>
        <pt x="294" y="63" on="0"/>
        <pt x="363" y="39" on="0"/>
        <pt x="438" y="27" on="0"/>
        <pt x="473" y="27" on="1"/>
        <pt x="507" y="27" on="0"/>
        <pt x="580" y="39" on="0"/>
        <pt x="648" y="63" on="0"/>
        <pt x="707" y="99" on="0"/>
        <pt x="728" y="123" on="1"/>
        <pt x="785" y="123" on="1"/>
        <pt x="731" y="60" on="0"/>
        <pt x="575" y="-12" on="0"/>
        <pt x="472" y="-12" on="1"/>
        <pt x="388" y="-12" on="0"/>
        <pt x="244" y="41" on="0"/>
        <pt x="138" y="135" on="0"/>
        <pt x="78" y="265" on="0"/>
        <pt x="78" y="342" on="1"/>
        <pt x="78" y="419" on="0"/>
        <pt x="140" y="551" on="0"/>
        <pt x="247" y="647" on="0"/>
        <pt x="391" y="702" on="0"/>
        <pt x="472" y="702" on="1"/>
        <pt x="551" y="702" on="0"/>
        <pt x="694" y="649" on="0"/>
        <pt x="803" y="552" on="0"/>
        <pt x="867" y="416" on="0"/>
        <pt x="867" y="334" on="1"/>
      </contour>
      <contour>
        <pt x="722" y="564" on="1"/>
        <pt x="680" y="609" on="0"/>
        <pt x="560" y="663" on="0"/>
        <pt x="473" y="663" on="1"/>
        <pt x="386" y="663" on="0"/>
        <pt x="261" y="610" on="0"/>
        <pt x="223" y="564" on="1"/>
        <pt x="223" y="373" on="1"/>
        <pt x="722" y="373" on="1"/>
      </contour>
    </TTGlyph>
    <TTGlyph name="eta" xMin="62" yMin="-218" xMax="516" yMax="544">
      <contour>
        <pt x="388" y="374" on="1"/>
        <pt x="388" y="414" on="0"/>
        <pt x="357" y="448" on="0"/>
        <pt x="323" y="448" on="1"/>
        <pt x="290" y="448" on="0"/>
        <pt x="236" y="404" on="0"/>
        <pt x="214" y="374" on="1"/>
        <pt x="214" y="0" on="1"/>
        <pt x="86" y="0" on="1"/>
        <pt x="86" y="371" on="1"/>
        <pt x="86" y="416" on="0"/>
        <pt x="70" y="497" on="0"/>
        <pt x="62" y="526" on="1"/>
        <pt x="181" y="542" on="1"/>
        <pt x="189" y="529" on="0"/>
        <pt x="202" y="483" on="0"/>
        <pt x="205" y="461" on="1"/>
        <pt x="240" y="503" on="0"/>
        <pt x="325" y="544" on="0"/>
        <pt x="372" y="544" on="1"/>
        <pt x="446" y="544" on="0"/>
        <pt x="516" y="462" on="0"/>
        <pt x="516" y="387" on="1"/>
        <pt x="516" y="-204" on="1"/>
        <pt x="388" y="-218" on="1"/>
      </contour>
    </TTGlyph>
    <TTGlyph name="etatonos" xMin="62" yMin="-218" xMax="516" yMax="834">
      <component glyphName="eta" x="0" y="0" flags="0x204"/>
      <component glyphName="tonos" x="373" y="0" flags="0x4"/>
    </TTGlyph>
    <TTGlyph name="eth" xMin="43" yMin="-15" xMax="526" yMax="788">
      <contour>
        <pt x="130" y="567" on="1"/>
        <pt x="196" y="638" on="1"/>
        <pt x="174" y="646" on="0"/>
        <pt x="126" y="661" on="0"/>
        <pt x="99" y="666" on="1"/>
        <pt x="125" y="754" on="1"/>
        <pt x="165" y="746" on="0"/>
        <pt x="237" y="727" on="0"/>
        <pt x="269" y="713" on="1"/>
        <pt x="340" y="788" on="1"/>
        <pt x="409" y="728" on="1"/>
        <pt x="352" y="670" on="1"/>
        <pt x="445" y="608" on="0"/>
        <pt x="526" y="410" on="0"/>
        <pt x="526" y="271" on="1"/>
        <pt x="526" y="209" on="0"/>
        <pt x="492" y="104" on="0"/>
        <pt x="429" y="28" on="0"/>
        <pt x="338" y="-15" on="0"/>
        <pt x="281" y="-15" on="1"/>
        <pt x="231" y="-15" on="0"/>
        <pt x="144" y="18" on="0"/>
        <pt x="80" y="82" on="0"/>
        <pt x="43" y="175" on="0"/>
        <pt x="43" y="234" on="1"/>
        <pt x="43" y="289" on="0"/>
        <pt x="77" y="381" on="0"/>
        <pt x="133" y="445" on="0"/>
        <pt x="207" y="481" on="0"/>
        <pt x="248" y="481" on="1"/>
        <pt x="293" y="481" on="0"/>
        <pt x="358" y="453" on="0"/>
        <pt x="381" y="431" on="1"/>
        <pt x="384" y="432" on="1"/>
        <pt x="370" y="482" on="0"/>
        <pt x="317" y="565" on="0"/>
        <pt x="278" y="594" on="1"/>
        <pt x="213" y="528" on="1"/>
      </contour>
      <contour>
        <pt x="397" y="261" on="1"/>
        <pt x="397" y="297" on="0"/>
        <pt x="394" y="330" on="1"/>
        <pt x="351" y="388" on="0"/>
        <pt x="278" y="388" on="1"/>
        <pt x="234" y="388" on="0"/>
        <pt x="174" y="315" on="0"/>
        <pt x="174" y="238" on="1"/>
        <pt x="174" y="157" on="0"/>
        <pt x="233" y="81" on="0"/>
        <pt x="281" y="81" on="1"/>
        <pt x="336" y="81" on="0"/>
        <pt x="397" y="170" on="0"/>
      </contour>
    </TTGlyph>
    <TTGlyph name="exclam" xMin="47" yMin="-15" xMax="209" yMax="691">
      <contour>
        <pt x="47" y="66" on="1"/>
        <pt x="47" y="100" on="0"/>
        <pt x="94" y="147" on="0"/>
        <pt x="128" y="147" on="1"/>
        <pt x="163" y="147" on="0"/>
        <pt x="209" y="100" on="0"/>
        <pt x="209" y="66" on="1"/>
        <pt x="209" y="33" on="0"/>
        <pt x="163" y="-15" on="0"/>
        <pt x="128" y="-15" on="1"/>
        <pt x="94" y="-15" on="0"/>
        <pt x="47" y="33" on="0"/>
      </contour>
      <contour>
        <pt x="74" y="244" on="1"/>
        <pt x="58" y="691" on="1"/>
        <pt x="196" y="691" on="1"/>
        <pt x="181" y="244" on="1"/>
      </contour>
    </TTGlyph>
    <TTGlyph name="exclamdown" xMin="47" yMin="-201" xMax="209" yMax="506">
      <contour>
        <pt x="209" y="425" on="1"/>
        <pt x="209" y="392" on="0"/>
        <pt x="162" y="344" on="0"/>
        <pt x="128" y="344" on="1"/>
        <pt x="94" y="344" on="0"/>
        <pt x="47" y="392" on="0"/>
        <pt x="47" y="425" on="1"/>
        <pt x="47" y="459" on="0"/>
        <pt x="94" y="506" on="0"/>
        <pt x="128" y="506" on="1"/>
        <pt x="162" y="506" on="0"/>
        <pt x="209" y="459" on="0"/>
      </contour>
      <contour>
        <pt x="180" y="248" on="1"/>
        <pt x="198" y="-201" on="1"/>
        <pt x="58" y="-201" on="1"/>
        <pt x="76" y="248" on="1"/>
      </contour>
    </TTGlyph>
    <TTGlyph name="f" xMin="11" yMin="0" xMax="421" yMax="755">
      <contour>
        <pt x="280" y="755" on="1"/>
        <pt x="322" y="755" on="0"/>
        <pt x="389" y="738" on="0"/>
        <pt x="421" y="724" on="1"/>
        <pt x="385" y="638" on="1"/>
        <pt x="359" y="649" on="0"/>
        <pt x="315" y="658" on="0"/>
        <pt x="295" y="658" on="1"/>
        <pt x="253" y="658" on="0"/>
        <pt x="222" y="623" on="0"/>
        <pt x="222" y="585" on="1"/>
        <pt x="222" y="529" on="1"/>
        <pt x="348" y="529" on="1"/>
        <pt x="334" y="437" on="1"/>
        <pt x="222" y="437" on="1"/>
        <pt x="222" y="0" on="1"/>
        <pt x="94" y="0" on="1"/>
        <pt x="94" y="437" on="1"/>
        <pt x="11" y="437" on="1"/>
        <pt x="11" y="529" on="1"/>
        <pt x="94" y="529" on="1"/>
        <pt x="94" y="587" on="1"/>
        <pt x="94" y="623" on="0"/>
        <pt x="118" y="684" on="0"/>
        <pt x="164" y="729" on="0"/>
        <pt x="234" y="755" on="0"/>
      </contour>
    </TTGlyph>
    <TTGlyph name="figuredash" xMin="13" yMin="265" xMax="547" yMax="367">
      <component glyphName="glyph00783" x="0" y="0" flags="0x204"/>
    </TTGlyph>
    <TTGlyph name="five" xMin="38" yMin="-15" xMax="513" yMax="691">
      <contour>
        <pt x="513" y="224" on="1"/>
        <pt x="513" y="173" on="0"/>
        <pt x="476" y="86" on="0"/>
        <pt x="408" y="21" on="0"/>
        <pt x="313" y="-15" on="0"/>
        <pt x="256" y="-15" on="1"/>
        <pt x="187" y="-15" on="0"/>
        <pt x="77" y="34" on="0"/>
        <pt x="38" y="82" on="1"/>
        <pt x="116" y="151" on="1"/>
        <pt x="169" y="85" on="0"/>
        <pt x="249" y="85" on="1"/>
        <pt x="309" y="85" on="0"/>
        <pt x="380" y="160" on="0"/>
        <pt x="380" y="223" on="1"/>
        <pt x="380" y="294" on="0"/>
        <pt x="317" y="353" on="0"/>
        <pt x="269" y="353" on="1"/>
        <pt x="249" y="353" on="0"/>
        <pt x="203" y="342" on="0"/>
        <pt x="180" y="330" on="1"/>
        <pt x="88" y="330" on="1"/>
        <pt x="88" y="691" on="1"/>
        <pt x="484" y="691" on="1"/>
        <pt x="469" y="596" on="1"/>
        <pt x="211" y="596" on="1"/>
        <pt x="211" y="423" on="1"/>
        <pt x="237" y="435" on="0"/>
        <pt x="292" y="445" on="0"/>
        <pt x="315" y="445" on="1"/>
        <pt x="358" y="445" on="0"/>
        <pt x="430" y="414" on="0"/>
        <pt x="483" y="357" on="0"/>
        <pt x="513" y="275" on="0"/>
      </contour>
    </TTGlyph>
    <TTGlyph name="fiveeighths" xMin="41" yMin="-84" xMax="910" yMax="757">
      <component glyphName="fraction" x="400" y="0" flags="0x4"/>
      <component glyphName="glyph00701" x="2" y="278" flags="0x4"/>
      <component glyphName="glyph00704" x="544" y="0" flags="0x4"/>
    </TTGlyph>
    <TTGlyph name="florin" xMin="-12" yMin="-217" xMax="421" yMax="755">
      <contour>
        <pt x="-12" y="-125" on="1"/>
        <pt x="14" y="-113" on="0"/>
        <pt x="53" y="-88" on="0"/>
        <pt x="80" y="-52" on="0"/>
        <pt x="94" y="0" on="0"/>
        <pt x="94" y="39" on="1"/>
        <pt x="94" y="437" on="1"/>
        <pt x="11" y="437" on="1"/>
        <pt x="11" y="529" on="1"/>
        <pt x="94" y="529" on="1"/>
        <pt x="94" y="587" on="1"/>
        <pt x="94" y="623" on="0"/>
        <pt x="118" y="684" on="0"/>
        <pt x="164" y="729" on="0"/>
        <pt x="234" y="755" on="0"/>
        <pt x="280" y="755" on="1"/>
        <pt x="322" y="755" on="0"/>
        <pt x="389" y="738" on="0"/>
        <pt x="421" y="724" on="1"/>
        <pt x="384" y="638" on="1"/>
        <pt x="359" y="649" on="0"/>
        <pt x="315" y="658" on="0"/>
        <pt x="295" y="658" on="1"/>
        <pt x="253" y="658" on="0"/>
        <pt x="221" y="622" on="0"/>
        <pt x="221" y="584" on="1"/>
        <pt x="221" y="529" on="1"/>
        <pt x="348" y="529" on="1"/>
        <pt x="334" y="437" on="1"/>
        <pt x="221" y="437" on="1"/>
        <pt x="221" y="54" on="1"/>
        <pt x="221" y="-9" on="0"/>
        <pt x="195" y="-97" on="0"/>
        <pt x="147" y="-158" on="0"/>
        <pt x="77" y="-200" on="0"/>
        <pt x="33" y="-217" on="1"/>
      </contour>
    </TTGlyph>
    <TTGlyph name="four" xMin="36" yMin="0" xMax="521" yMax="706">
      <contour>
        <pt x="444" y="154" on="1"/>
        <pt x="444" y="0" on="1"/>
        <pt x="319" y="0" on="1"/>
        <pt x="319" y="154" on="1"/>
        <pt x="36" y="154" on="1"/>
        <pt x="36" y="241" on="1"/>
        <pt x="233" y="706" on="1"/>
        <pt x="341" y="665" on="1"/>
        <pt x="169" y="252" on="1"/>
        <pt x="319" y="252" on="1"/>
        <pt x="333" y="425" on="1"/>
        <pt x="444" y="425" on="1"/>
        <pt x="444" y="252" on="1"/>
        <pt x="521" y="252" on="1"/>
        <pt x="521" y="154" on="1"/>
      </contour>
    </TTGlyph>
    <TTGlyph name="fraction" xMin="-171" yMin="-84" xMax="315" yMax="757">
      <contour>
        <pt x="-90" y="-84" on="1"/>
        <pt x="-171" y="-44" on="1"/>
        <pt x="235" y="757" on="1"/>
        <pt x="315" y="717" on="1"/>
      </contour>
    </TTGlyph>
    <TTGlyph name="g" xMin="18" yMin="-218" xMax="544" yMax="603">
      <contour>
        <pt x="133" y="-52" on="1"/>
        <pt x="133" y="-97" on="0"/>
        <pt x="197" y="-128" on="0"/>
        <pt x="261" y="-128" on="1"/>
        <pt x="301" y="-128" on="0"/>
        <pt x="353" y="-117" on="0"/>
        <pt x="383" y="-98" on="0"/>
        <pt x="395" y="-73" on="0"/>
        <pt x="395" y="-59" on="1"/>
        <pt x="395" y="-31" on="0"/>
        <pt x="357" y="5" on="0"/>
        <pt x="302" y="5" on="1"/>
        <pt x="227" y="5" on="1"/>
        <pt x="152" y="5" on="0"/>
        <pt x="74" y="62" on="0"/>
        <pt x="74" y="109" on="1"/>
        <pt x="74" y="136" on="0"/>
        <pt x="104" y="186" on="0"/>
        <pt x="130" y="204" on="1"/>
        <pt x="88" y="228" on="0"/>
        <pt x="44" y="301" on="0"/>
        <pt x="44" y="358" on="1"/>
        <pt x="44" y="403" on="0"/>
        <pt x="80" y="473" on="0"/>
        <pt x="140" y="520" on="0"/>
        <pt x="219" y="544" on="0"/>
        <pt x="263" y="544" on="1"/>
        <pt x="348" y="544" on="0"/>
        <pt x="465" y="579" on="0"/>
        <pt x="510" y="603" on="1"/>
        <pt x="544" y="501" on="1"/>
        <pt x="512" y="490" on="0"/>
        <pt x="436" y="483" on="0"/>
        <pt x="393" y="483" on="1"/>
        <pt x="393" y="479" on="1"/>
        <pt x="435" y="461" on="0"/>
        <pt x="482" y="395" on="0"/>
        <pt x="482" y="347" on="1"/>
        <pt x="482" y="309" on="0"/>
        <pt x="453" y="244" on="0"/>
        <pt x="398" y="196" on="0"/>
        <pt x="319" y="169" on="0"/>
        <pt x="270" y="169" on="1"/>
        <pt x="237" y="169" on="0"/>
        <pt x="202" y="177" on="1"/>
        <pt x="195" y="170" on="0"/>
        <pt x="186" y="150" on="0"/>
        <pt x="186" y="139" on="1"/>
        <pt x="186" y="118" on="0"/>
        <pt x="218" y="101" on="0"/>
        <pt x="266" y="101" on="1"/>
        <pt x="318" y="101" on="1"/>
        <pt x="417" y="101" on="0"/>
        <pt x="524" y="20" on="0"/>
        <pt x="524" y="-51" on="1"/>
        <pt x="524" y="-93" on="0"/>
        <pt x="486" y="-155" on="0"/>
        <pt x="416" y="-197" on="0"/>
        <pt x="319" y="-218" on="0"/>
        <pt x="259" y="-218" on="1"/>
        <pt x="193" y="-218" on="0"/>
        <pt x="101" y="-196" on="0"/>
        <pt x="44" y="-154" on="0"/>
        <pt x="18" y="-93" on="0"/>
        <pt x="18" y="-54" on="1"/>
        <pt x="18" y="-52" on="1"/>
      </contour>
      <contour>
        <pt x="172" y="355" on="1"/>
        <pt x="172" y="308" on="0"/>
        <pt x="221" y="253" on="0"/>
        <pt x="266" y="253" on="1"/>
        <pt x="311" y="253" on="0"/>
        <pt x="358" y="308" on="0"/>
        <pt x="358" y="356" on="1"/>
        <pt x="358" y="456" on="0"/>
        <pt x="266" y="456" on="1"/>
        <pt x="221" y="456" on="0"/>
        <pt x="172" y="400" on="0"/>
      </contour>
    </TTGlyph>
    <TTGlyph name="gamma" xMin="-7" yMin="-217" xMax="515" yMax="543">
      <contour>
        <pt x="192" y="16" on="1"/>
        <pt x="174" y="91" on="0"/>
        <pt x="131" y="233" on="0"/>
        <pt x="82" y="357" on="0"/>
        <pt x="25" y="460" on="0"/>
        <pt x="-7" y="497" on="1"/>
        <pt x="121" y="543" on="1"/>
        <pt x="166" y="479" on="0"/>
        <pt x="235" y="269" on="0"/>
        <pt x="256" y="136" on="1"/>
        <pt x="260" y="136" on="1"/>
        <pt x="387" y="542" on="1"/>
        <pt x="515" y="513" on="1"/>
        <pt x="315" y="22" on="1"/>
        <pt x="302" y="-10" on="0"/>
        <pt x="290" y="-70" on="0"/>
        <pt x="290" y="-103" on="1"/>
        <pt x="290" y="-126" on="0"/>
        <pt x="296" y="-176" on="0"/>
        <pt x="301" y="-205" on="1"/>
        <pt x="199" y="-217" on="1"/>
        <pt x="171" y="-161" on="0"/>
        <pt x="171" y="-98" on="1"/>
        <pt x="171" y="-43" on="0"/>
      </contour>
    </TTGlyph>
    <TTGlyph name="gbreve" xMin="18" yMin="-218" xMax="544" yMax="792">
      <component glyphName="g" x="0" y="0" flags="0x204"/>
      <component glyphName="uni0306" x="524" y="0" flags="0x4"/>
    </TTGlyph>
    <TTGlyph name="gcircumflex" xMin="18" yMin="-218" xMax="544" yMax="808">
      <component glyphName="g" x="0" y="0" flags="0x204"/>
      <component glyphName="uni0302" x="533" y="3" flags="0x4"/>
    </TTGlyph>
    <TTGlyph name="gdotaccent" xMin="18" yMin="-218" xMax="544" yMax="795">
      <component glyphName="g" x="0" y="0" flags="0x204"/>
      <component glyphName="uni0307" x="496" y="0" flags="0x4"/>
    </TTGlyph>
    <TTGlyph name="germandbls" xMin="79" yMin="-15" xMax="581" yMax="755">
      <contour>
        <pt x="79" y="532" on="1"/>
        <pt x="79" y="640" on="0"/>
        <pt x="194" y="755" on="0"/>
        <pt x="301" y="755" on="1"/>
        <pt x="346" y="755" on="0"/>
        <pt x="418" y="732" on="0"/>
        <pt x="467" y="691" on="0"/>
        <pt x="494" y="636" on="0"/>
        <pt x="494" y="604" on="1"/>
        <pt x="494" y="569" on="0"/>
        <pt x="461" y="523" on="0"/>
        <pt x="421" y="487" on="0"/>
        <pt x="388" y="454" on="0"/>
        <pt x="388" y="431" on="1"/>
        <pt x="388" y="411" on="0"/>
        <pt x="417" y="380" on="0"/>
        <pt x="459" y="350" on="0"/>
        <pt x="510" y="316" on="0"/>
        <pt x="552" y="271" on="0"/>
        <pt x="581" y="210" on="0"/>
        <pt x="581" y="167" on="1"/>
        <pt x="581" y="123" on="0"/>
        <pt x="550" y="55" on="0"/>
        <pt x="496" y="9" on="0"/>
        <pt x="424" y="-15" on="0"/>
        <pt x="383" y="-15" on="1"/>
        <pt x="345" y="-15" on="0"/>
        <pt x="280" y="2" on="0"/>
        <pt x="254" y="18" on="1"/>
        <pt x="298" y="104" on="1"/>
        <pt x="333" y="85" on="0"/>
        <pt x="368" y="85" on="1"/>
        <pt x="406" y="85" on="0"/>
        <pt x="449" y="126" on="0"/>
        <pt x="449" y="165" on="1"/>
        <pt x="449" y="194" on="0"/>
        <pt x="423" y="235" on="0"/>
        <pt x="384" y="268" on="0"/>
        <pt x="338" y="297" on="0"/>
        <pt x="299" y="331" on="0"/>
        <pt x="273" y="377" on="0"/>
        <pt x="273" y="410" on="1"/>
        <pt x="273" y="447" on="0"/>
        <pt x="304" y="492" on="0"/>
        <pt x="341" y="528" on="0"/>
        <pt x="372" y="563" on="0"/>
        <pt x="372" y="592" on="1"/>
        <pt x="372" y="617" on="0"/>
        <pt x="339" y="661" on="0"/>
        <pt x="299" y="661" on="1"/>
        <pt x="253" y="661" on="0"/>
        <pt x="207" y="603" on="0"/>
        <pt x="207" y="538" on="1"/>
        <pt x="207" y="0" on="1"/>
        <pt x="79" y="0" on="1"/>
      </contour>
    </TTGlyph>
    <TTGlyph name="glyph00677" xMin="126" yMin="-110" xMax="1074" yMax="842">
      <contour>
        <pt x="1074" y="366" on="1"/>
        <pt x="1074" y="267" on="0"/>
        <pt x="1000" y="94" on="0"/>
        <pt x="871" y="-35" on="0"/>
        <pt x="699" y="-110" on="0"/>
        <pt x="600" y="-110" on="1"/>
        <pt x="501" y="-110" on="0"/>
        <pt x="329" y="-35" on="0"/>
        <pt x="200" y="94" on="0"/>
        <pt x="126" y="267" on="0"/>
        <pt x="126" y="366" on="1"/>
        <pt x="126" y="465" on="0"/>
        <pt x="200" y="638" on="0"/>
        <pt x="329" y="767" on="0"/>
        <pt x="501" y="842" on="0"/>
        <pt x="600" y="842" on="1"/>
        <pt x="699" y="842" on="0"/>
        <pt x="871" y="767" on="0"/>
        <pt x="1000" y="638" on="0"/>
        <pt x="1074" y="465" on="0"/>
      </contour>
      <contour>
        <pt x="252" y="615" on="1"/>
        <pt x="217" y="567" on="0"/>
        <pt x="177" y="452" on="0"/>
        <pt x="174" y="389" on="1"/>
        <pt x="336" y="389" on="1"/>
        <pt x="338" y="435" on="0"/>
        <pt x="354" y="521" on="0"/>
        <pt x="367" y="561" on="1"/>
        <pt x="303" y="584" on="0"/>
      </contour>
      <contour>
        <pt x="1026" y="389" on="1"/>
        <pt x="1022" y="452" on="0"/>
        <pt x="982" y="567" on="0"/>
        <pt x="947" y="615" on="1"/>
        <pt x="897" y="584" on="0"/>
        <pt x="832" y="561" on="1"/>
        <pt x="846" y="521" on="0"/>
        <pt x="861" y="435" on="0"/>
        <pt x="863" y="389" on="1"/>
      </contour>
      <contour>
        <pt x="174" y="343" on="1"/>
        <pt x="177" y="279" on="0"/>
        <pt x="217" y="165" on="0"/>
        <pt x="252" y="116" on="1"/>
        <pt x="278" y="133" on="0"/>
        <pt x="336" y="160" on="0"/>
        <pt x="367" y="171" on="1"/>
        <pt x="354" y="211" on="0"/>
        <pt x="338" y="296" on="0"/>
        <pt x="336" y="343" on="1"/>
      </contour>
      <contour>
        <pt x="947" y="116" on="1"/>
        <pt x="982" y="165" on="0"/>
        <pt x="1022" y="279" on="0"/>
        <pt x="1026" y="343" on="1"/>
        <pt x="863" y="343" on="1"/>
        <pt x="861" y="296" on="0"/>
        <pt x="846" y="211" on="0"/>
        <pt x="832" y="171" on="1"/>
        <pt x="864" y="160" on="0"/>
        <pt x="921" y="133" on="0"/>
      </contour>
      <contour>
        <pt x="789" y="547" on="1"/>
        <pt x="748" y="536" on="0"/>
        <pt x="666" y="522" on="0"/>
        <pt x="624" y="520" on="1"/>
        <pt x="624" y="389" on="1"/>
        <pt x="817" y="389" on="1"/>
        <pt x="814" y="475" on="0"/>
      </contour>
      <contour>
        <pt x="624" y="211" on="1"/>
        <pt x="708" y="208" on="0"/>
        <pt x="789" y="184" on="1"/>
        <pt x="814" y="258" on="0"/>
        <pt x="817" y="343" on="1"/>
        <pt x="624" y="343" on="1"/>
      </contour>
      <contour>
        <pt x="574" y="520" on="1"/>
        <pt x="489" y="525" on="0"/>
        <pt x="410" y="547" on="1"/>
        <pt x="398" y="510" on="0"/>
        <pt x="384" y="431" on="0"/>
        <pt x="382" y="389" on="1"/>
        <pt x="574" y="389" on="1"/>
      </contour>
      <contour>
        <pt x="410" y="184" on="1"/>
        <pt x="450" y="195" on="0"/>
        <pt x="532" y="209" on="0"/>
        <pt x="574" y="211" on="1"/>
        <pt x="574" y="343" on="1"/>
        <pt x="382" y="343" on="1"/>
        <pt x="384" y="300" on="0"/>
        <pt x="398" y="222" on="0"/>
      </contour>
      <contour>
        <pt x="639" y="792" on="1"/>
        <pt x="629" y="792" on="0"/>
        <pt x="624" y="793" on="1"/>
        <pt x="624" y="562" on="1"/>
        <pt x="661" y="564" on="0"/>
        <pt x="737" y="576" on="0"/>
        <pt x="774" y="586" on="1"/>
        <pt x="751" y="643" on="0"/>
        <pt x="682" y="745" on="0"/>
      </contour>
      <contour>
        <pt x="624" y="-61" on="1"/>
        <pt x="629" y="-60" on="0"/>
        <pt x="639" y="-60" on="1"/>
        <pt x="682" y="-13" on="0"/>
        <pt x="751" y="88" on="0"/>
        <pt x="774" y="145" on="1"/>
        <pt x="737" y="156" on="0"/>
        <pt x="661" y="167" on="0"/>
        <pt x="624" y="169" on="1"/>
      </contour>
      <contour>
        <pt x="574" y="793" on="1"/>
        <pt x="569" y="792" on="0"/>
        <pt x="561" y="792" on="1"/>
        <pt x="517" y="745" on="0"/>
        <pt x="449" y="643" on="0"/>
        <pt x="425" y="586" on="1"/>
        <pt x="462" y="576" on="0"/>
        <pt x="537" y="564" on="0"/>
        <pt x="574" y="562" on="1"/>
      </contour>
      <contour>
        <pt x="561" y="-60" on="1"/>
        <pt x="569" y="-60" on="0"/>
        <pt x="574" y="-61" on="1"/>
        <pt x="574" y="169" on="1"/>
        <pt x="498" y="166" on="0"/>
        <pt x="425" y="145" on="1"/>
        <pt x="449" y="88" on="0"/>
        <pt x="517" y="-13" on="0"/>
      </contour>
      <contour>
        <pt x="499" y="782" on="1"/>
        <pt x="433" y="766" on="0"/>
        <pt x="322" y="698" on="0"/>
        <pt x="279" y="649" on="1"/>
        <pt x="326" y="619" on="0"/>
        <pt x="382" y="600" on="1"/>
        <pt x="404" y="653" on="0"/>
        <pt x="463" y="744" on="0"/>
      </contour>
      <contour>
        <pt x="701" y="-50" on="1"/>
        <pt x="766" y="-34" on="0"/>
        <pt x="877" y="34" on="0"/>
        <pt x="920" y="82" on="1"/>
        <pt x="898" y="97" on="0"/>
        <pt x="847" y="121" on="0"/>
        <pt x="818" y="132" on="1"/>
        <pt x="796" y="79" on="0"/>
        <pt x="736" y="-12" on="0"/>
      </contour>
      <contour>
        <pt x="279" y="82" on="1"/>
        <pt x="322" y="34" on="0"/>
        <pt x="433" y="-34" on="0"/>
        <pt x="499" y="-50" on="1"/>
        <pt x="463" y="-12" on="0"/>
        <pt x="404" y="79" on="0"/>
        <pt x="382" y="132" on="1"/>
        <pt x="353" y="121" on="0"/>
        <pt x="302" y="97" on="0"/>
      </contour>
      <contour>
        <pt x="920" y="649" on="1"/>
        <pt x="877" y="698" on="0"/>
        <pt x="766" y="766" on="0"/>
        <pt x="701" y="782" on="1"/>
        <pt x="736" y="744" on="0"/>
        <pt x="796" y="653" on="0"/>
        <pt x="818" y="600" on="1"/>
        <pt x="875" y="619" on="0"/>
      </contour>
    </TTGlyph>
    <TTGlyph name="glyph00678" xMin="110" yMin="148" xMax="289" yMax="793">
      <component glyphName="glyph00693" x="0" y="278" flags="0x204"/>
    </TTGlyph>
    <TTGlyph name="glyph00679" xMin="110" yMin="148" xMax="289" yMax="793">
      <component glyphName="glyph00694" x="0" y="278" flags="0x204"/>
    </TTGlyph>
    <TTGlyph name="glyph00680" xMin="70" yMin="350" xMax="330" yMax="605">
      <component glyphName="glyph00695" x="0" y="278" flags="0x204"/>
    </TTGlyph>
    <TTGlyph name="glyph00681" xMin="39" yMin="271" xMax="361" yMax="709">
      <component glyphName="glyph00696" x="0" y="278" flags="0x204"/>
    </TTGlyph>
    <TTGlyph name="glyph00682" xMin="55" yMin="278" xMax="287" yMax="702">
      <component glyphName="glyph00697" x="0" y="278" flags="0x204"/>
    </TTGlyph>
    <TTGlyph name="glyph00683" xMin="42" yMin="278" xMax="353" yMax="709">
      <component glyphName="glyph00698" x="0" y="278" flags="0x204"/>
    </TTGlyph>
    <TTGlyph name="glyph00684" xMin="28" yMin="271" xMax="349" yMax="709">
      <component glyphName="glyph00699" x="0" y="278" flags="0x204"/>
    </TTGlyph>
    <TTGlyph name="glyph00685" xMin="36" yMin="277" xMax="363" yMax="711">
      <component glyphName="glyph00700" x="0" y="277" flags="0x204"/>
    </TTGlyph>
    <TTGlyph name="glyph00686" xMin="39" yMin="271" xMax="349" yMax="702">
      <component glyphName="glyph00701" x="0" y="278" flags="0x204"/>
    </TTGlyph>
    <TTGlyph name="glyph00687" xMin="42" yMin="271" xMax="364" yMax="709">
      <component glyphName="glyph00702" x="0" y="278" flags="0x204"/>
    </TTGlyph>
    <TTGlyph name="glyph00688" xMin="51" yMin="268" xMax="346" yMax="702">
      <component glyphName="glyph00703" x="0" y="278" flags="0x204"/>
    </TTGlyph>
    <TTGlyph name="glyph00689" xMin="33" yMin="271" xMax="366" yMax="709">
      <component glyphName="glyph00704" x="0" y="278" flags="0x204"/>
    </TTGlyph>
    <TTGlyph name="glyph00690" xMin="34" yMin="263" xMax="356" yMax="709">
      <component glyphName="glyph00705" x="0" y="278" flags="0x204"/>
    </TTGlyph>
    <TTGlyph name="glyph00691" xMin="69" yMin="374" xMax="330" yMax="578">
      <component glyphName="glyph00706" x="0" y="277" flags="0x204"/>
    </TTGlyph>
    <TTGlyph name="glyph00692" xMin="70" yMin="438" xMax="330" yMax="514">
      <component glyphName="glyph00707" x="0" y="277" flags="0x204"/>
    </TTGlyph>
    <TTGlyph name="glyph00693" xMin="110" yMin="-130" xMax="289" yMax="515">
      <contour>
        <pt x="206" y="192" on="1"/>
        <pt x="206" y="144" on="0"/>
        <pt x="217" y="67" on="0"/>
        <pt x="238" y="0" on="0"/>
        <pt x="269" y="-61" on="0"/>
        <pt x="289" y="-91" on="1"/>
        <pt x="229" y="-130" on="1"/>
        <pt x="205" y="-97" on="0"/>
        <pt x="162" y="-30" on="0"/>
        <pt x="129" y="46" on="0"/>
        <pt x="110" y="135" on="0"/>
        <pt x="110" y="192" on="1"/>
        <pt x="110" y="249" on="0"/>
        <pt x="129" y="339" on="0"/>
        <pt x="162" y="415" on="0"/>
        <pt x="205" y="482" on="0"/>
        <pt x="229" y="515" on="1"/>
        <pt x="289" y="476" on="1"/>
        <pt x="269" y="446" on="0"/>
        <pt x="238" y="385" on="0"/>
        <pt x="217" y="318" on="0"/>
        <pt x="206" y="240" on="0"/>
      </contour>
    </TTGlyph>
    <TTGlyph name="glyph00694" xMin="110" yMin="-130" xMax="289" yMax="515">
      <contour>
        <pt x="193" y="193" on="1"/>
        <pt x="193" y="241" on="0"/>
        <pt x="182" y="318" on="0"/>
        <pt x="161" y="385" on="0"/>
        <pt x="130" y="446" on="0"/>
        <pt x="110" y="476" on="1"/>
        <pt x="170" y="515" on="1"/>
        <pt x="194" y="482" on="0"/>
        <pt x="237" y="415" on="0"/>
        <pt x="270" y="339" on="0"/>
        <pt x="289" y="249" on="0"/>
        <pt x="289" y="193" on="1"/>
        <pt x="289" y="136" on="0"/>
        <pt x="270" y="46" on="0"/>
        <pt x="237" y="-30" on="0"/>
        <pt x="194" y="-97" on="0"/>
        <pt x="170" y="-130" on="1"/>
        <pt x="110" y="-91" on="1"/>
        <pt x="130" y="-61" on="0"/>
        <pt x="161" y="0" on="0"/>
        <pt x="182" y="67" on="0"/>
        <pt x="193" y="145" on="0"/>
      </contour>
    </TTGlyph>
    <TTGlyph name="glyph00695" xMin="70" yMin="72" xMax="330" yMax="327">
      <contour>
        <pt x="157" y="237" on="1"/>
        <pt x="157" y="327" on="1"/>
        <pt x="243" y="327" on="1"/>
        <pt x="243" y="237" on="1"/>
        <pt x="330" y="237" on="1"/>
        <pt x="330" y="161" on="1"/>
        <pt x="243" y="161" on="1"/>
        <pt x="243" y="72" on="1"/>
        <pt x="157" y="72" on="1"/>
        <pt x="157" y="161" on="1"/>
        <pt x="70" y="161" on="1"/>
        <pt x="70" y="237" on="1"/>
      </contour>
    </TTGlyph>
    <TTGlyph name="glyph00696" xMin="39" yMin="-7" xMax="361" yMax="431">
      <contour>
        <pt x="260" y="212" on="1"/>
        <pt x="260" y="255" on="0"/>
        <pt x="253" y="311" on="0"/>
        <pt x="238" y="344" on="0"/>
        <pt x="216" y="358" on="0"/>
        <pt x="201" y="358" on="1"/>
        <pt x="171" y="358" on="0"/>
        <pt x="140" y="294" on="0"/>
        <pt x="140" y="212" on="1"/>
        <pt x="140" y="132" on="0"/>
        <pt x="171" y="66" on="0"/>
        <pt x="201" y="66" on="1"/>
        <pt x="215" y="66" on="0"/>
        <pt x="237" y="80" on="0"/>
        <pt x="252" y="114" on="0"/>
        <pt x="260" y="170" on="0"/>
      </contour>
      <contour>
        <pt x="361" y="212" on="1"/>
        <pt x="361" y="102" on="0"/>
        <pt x="279" y="-7" on="0"/>
        <pt x="201" y="-7" on="1"/>
        <pt x="122" y="-7" on="0"/>
        <pt x="39" y="102" on="0"/>
        <pt x="39" y="212" on="1"/>
        <pt x="39" y="321" on="0"/>
        <pt x="122" y="431" on="0"/>
        <pt x="201" y="431" on="1"/>
        <pt x="279" y="431" on="0"/>
        <pt x="361" y="323" on="0"/>
      </contour>
    </TTGlyph>
    <TTGlyph name="glyph00697" xMin="55" yMin="0" xMax="287" yMax="424">
      <contour>
        <pt x="191" y="0" on="1"/>
        <pt x="191" y="323" on="1"/>
        <pt x="100" y="273" on="1"/>
        <pt x="55" y="337" on="1"/>
        <pt x="207" y="424" on="1"/>
        <pt x="287" y="424" on="1"/>
        <pt x="287" y="0" on="1"/>
      </contour>
    </TTGlyph>
    <TTGlyph name="glyph00698" xMin="42" yMin="0" xMax="353" yMax="431">
      <contour>
        <pt x="340" y="308" on="1"/>
        <pt x="340" y="282" on="0"/>
        <pt x="320" y="231" on="0"/>
        <pt x="278" y="176" on="0"/>
        <pt x="212" y="113" on="0"/>
        <pt x="167" y="76" on="1"/>
        <pt x="353" y="76" on="1"/>
        <pt x="342" y="0" on="1"/>
        <pt x="50" y="0" on="1"/>
        <pt x="50" y="67" on="1"/>
        <pt x="105" y="116" on="0"/>
        <pt x="177" y="188" on="0"/>
        <pt x="220" y="241" on="0"/>
        <pt x="238" y="282" on="0"/>
        <pt x="238" y="300" on="1"/>
        <pt x="238" y="326" on="0"/>
        <pt x="207" y="354" on="0"/>
        <pt x="183" y="354" on="1"/>
        <pt x="160" y="354" on="0"/>
        <pt x="125" y="334" on="0"/>
        <pt x="105" y="310" on="1"/>
        <pt x="42" y="358" on="1"/>
        <pt x="73" y="394" on="0"/>
        <pt x="146" y="431" on="0"/>
        <pt x="194" y="431" on="1"/>
        <pt x="228" y="431" on="0"/>
        <pt x="283" y="411" on="0"/>
        <pt x="320" y="378" on="0"/>
        <pt x="340" y="333" on="0"/>
      </contour>
    </TTGlyph>
    <TTGlyph name="glyph00699" xMin="28" yMin="-7" xMax="349" yMax="431">
      <contour>
        <pt x="349" y="125" on="1"/>
        <pt x="349" y="97" on="0"/>
        <pt x="326" y="49" on="0"/>
        <pt x="282" y="13" on="0"/>
        <pt x="220" y="-7" on="0"/>
        <pt x="181" y="-7" on="1"/>
        <pt x="87" y="-7" on="0"/>
        <pt x="28" y="58" on="1"/>
        <pt x="85" y="110" on="1"/>
        <pt x="105" y="88" on="0"/>
        <pt x="152" y="67" on="0"/>
        <pt x="175" y="67" on="1"/>
        <pt x="210" y="67" on="0"/>
        <pt x="249" y="101" on="0"/>
        <pt x="249" y="129" on="1"/>
        <pt x="249" y="161" on="0"/>
        <pt x="210" y="189" on="0"/>
        <pt x="176" y="189" on="1"/>
        <pt x="137" y="189" on="1"/>
        <pt x="148" y="258" on="1"/>
        <pt x="175" y="258" on="1"/>
        <pt x="201" y="258" on="0"/>
        <pt x="237" y="283" on="0"/>
        <pt x="237" y="309" on="1"/>
        <pt x="237" y="334" on="0"/>
        <pt x="204" y="358" on="0"/>
        <pt x="178" y="358" on="1"/>
        <pt x="131" y="358" on="0"/>
        <pt x="89" y="320" on="1"/>
        <pt x="39" y="374" on="1"/>
        <pt x="71" y="403" on="0"/>
        <pt x="146" y="431" on="0"/>
        <pt x="186" y="431" on="1"/>
        <pt x="258" y="431" on="0"/>
        <pt x="335" y="367" on="0"/>
        <pt x="335" y="320" on="1"/>
        <pt x="335" y="290" on="0"/>
        <pt x="297" y="241" on="0"/>
        <pt x="257" y="230" on="1"/>
        <pt x="257" y="227" on="1"/>
        <pt x="297" y="221" on="0"/>
        <pt x="349" y="164" on="0"/>
      </contour>
    </TTGlyph>
    <TTGlyph name="glyph00700" xMin="36" yMin="0" xMax="363" yMax="434">
      <contour>
        <pt x="313" y="90" on="1"/>
        <pt x="313" y="0" on="1"/>
        <pt x="218" y="0" on="1"/>
        <pt x="218" y="90" on="1"/>
        <pt x="36" y="90" on="1"/>
        <pt x="36" y="154" on="1"/>
        <pt x="159" y="434" on="1"/>
        <pt x="241" y="404" on="1"/>
        <pt x="139" y="164" on="1"/>
        <pt x="219" y="164" on="1"/>
        <pt x="230" y="264" on="1"/>
        <pt x="313" y="264" on="1"/>
        <pt x="313" y="164" on="1"/>
        <pt x="363" y="164" on="1"/>
        <pt x="363" y="90" on="1"/>
      </contour>
    </TTGlyph>
    <TTGlyph name="glyph00701" xMin="39" yMin="-7" xMax="349" yMax="424">
      <contour>
        <pt x="349" y="142" on="1"/>
        <pt x="349" y="110" on="0"/>
        <pt x="326" y="55" on="0"/>
        <pt x="283" y="15" on="0"/>
        <pt x="222" y="-7" on="0"/>
        <pt x="185" y="-7" on="1"/>
        <pt x="137" y="-7" on="0"/>
        <pt x="67" y="26" on="0"/>
        <pt x="39" y="58" on="1"/>
        <pt x="96" y="108" on="1"/>
        <pt x="135" y="68" on="0"/>
        <pt x="178" y="68" on="1"/>
        <pt x="210" y="68" on="0"/>
        <pt x="248" y="108" on="0"/>
        <pt x="248" y="142" on="1"/>
        <pt x="248" y="177" on="0"/>
        <pt x="215" y="210" on="0"/>
        <pt x="190" y="210" on="1"/>
        <pt x="178" y="210" on="0"/>
        <pt x="154" y="202" on="0"/>
        <pt x="140" y="195" on="1"/>
        <pt x="69" y="195" on="1"/>
        <pt x="69" y="424" on="1"/>
        <pt x="331" y="424" on="1"/>
        <pt x="321" y="353" on="1"/>
        <pt x="164" y="353" on="1"/>
        <pt x="164" y="266" on="1"/>
        <pt x="195" y="279" on="0"/>
        <pt x="220" y="279" on="1"/>
        <pt x="279" y="279" on="0"/>
        <pt x="349" y="207" on="0"/>
      </contour>
    </TTGlyph>
    <TTGlyph name="glyph00702" xMin="42" yMin="-7" xMax="364" yMax="431">
      <contour>
        <pt x="294" y="342" on="1"/>
        <pt x="278" y="353" on="0"/>
        <pt x="251" y="360" on="0"/>
        <pt x="237" y="360" on="1"/>
        <pt x="202" y="360" on="0"/>
        <pt x="148" y="304" on="0"/>
        <pt x="142" y="241" on="1"/>
        <pt x="162" y="265" on="0"/>
        <pt x="214" y="285" on="0"/>
        <pt x="236" y="285" on="1"/>
        <pt x="262" y="285" on="0"/>
        <pt x="309" y="267" on="0"/>
        <pt x="344" y="232" on="0"/>
        <pt x="364" y="179" on="0"/>
        <pt x="364" y="144" on="1"/>
        <pt x="364" y="110" on="0"/>
        <pt x="341" y="55" on="0"/>
        <pt x="299" y="15" on="0"/>
        <pt x="242" y="-7" on="0"/>
        <pt x="209" y="-7" on="1"/>
        <pt x="164" y="-7" on="0"/>
        <pt x="101" y="25" on="0"/>
        <pt x="61" y="80" on="0"/>
        <pt x="42" y="153" on="0"/>
        <pt x="42" y="194" on="1"/>
        <pt x="42" y="247" on="0"/>
        <pt x="69" y="334" on="0"/>
        <pt x="120" y="397" on="0"/>
        <pt x="191" y="431" on="0"/>
        <pt x="236" y="431" on="1"/>
        <pt x="289" y="431" on="0"/>
        <pt x="335" y="400" on="1"/>
      </contour>
      <contour>
        <pt x="212" y="216" on="1"/>
        <pt x="193" y="216" on="0"/>
        <pt x="158" y="194" on="0"/>
        <pt x="144" y="177" on="1"/>
        <pt x="145" y="65" on="0"/>
        <pt x="209" y="65" on="1"/>
        <pt x="235" y="65" on="0"/>
        <pt x="265" y="103" on="0"/>
        <pt x="265" y="140" on="1"/>
        <pt x="265" y="184" on="0"/>
        <pt x="235" y="216" on="0"/>
      </contour>
    </TTGlyph>
    <TTGlyph name="glyph00703" xMin="51" yMin="-10" xMax="346" yMax="424">
      <contour>
        <pt x="172" y="-10" on="1"/>
        <pt x="80" y="18" on="1"/>
        <pt x="244" y="350" on="1"/>
        <pt x="51" y="350" on="1"/>
        <pt x="51" y="424" on="1"/>
        <pt x="346" y="424" on="1"/>
        <pt x="346" y="363" on="1"/>
      </contour>
    </TTGlyph>
    <TTGlyph name="glyph00704" xMin="33" yMin="-7" xMax="366" yMax="431">
      <contour>
        <pt x="349" y="320" on="1"/>
        <pt x="349" y="289" on="0"/>
        <pt x="310" y="247" on="0"/>
        <pt x="275" y="230" on="1"/>
        <pt x="323" y="213" on="0"/>
        <pt x="366" y="157" on="0"/>
        <pt x="366" y="121" on="1"/>
        <pt x="366" y="95" on="0"/>
        <pt x="345" y="48" on="0"/>
        <pt x="303" y="13" on="0"/>
        <pt x="240" y="-7" on="0"/>
        <pt x="199" y="-7" on="1"/>
        <pt x="116" y="-7" on="0"/>
        <pt x="33" y="64" on="0"/>
        <pt x="33" y="118" on="1"/>
        <pt x="33" y="152" on="0"/>
        <pt x="77" y="207" on="0"/>
        <pt x="121" y="221" on="1"/>
        <pt x="88" y="236" on="0"/>
        <pt x="51" y="286" on="0"/>
        <pt x="51" y="318" on="1"/>
        <pt x="51" y="346" on="0"/>
        <pt x="76" y="389" on="0"/>
        <pt x="117" y="417" on="0"/>
        <pt x="171" y="431" on="0"/>
        <pt x="201" y="431" on="1"/>
        <pt x="232" y="431" on="0"/>
        <pt x="286" y="417" on="0"/>
        <pt x="326" y="390" on="0"/>
        <pt x="349" y="348" on="0"/>
      </contour>
      <contour>
        <pt x="268" y="119" on="1"/>
        <pt x="268" y="148" on="0"/>
        <pt x="222" y="177" on="0"/>
        <pt x="181" y="191" on="1"/>
        <pt x="160" y="179" on="0"/>
        <pt x="133" y="145" on="0"/>
        <pt x="133" y="121" on="1"/>
        <pt x="133" y="95" on="0"/>
        <pt x="167" y="65" on="0"/>
        <pt x="200" y="65" on="1"/>
        <pt x="233" y="65" on="0"/>
        <pt x="268" y="96" on="0"/>
      </contour>
      <contour>
        <pt x="148" y="319" on="1"/>
        <pt x="148" y="296" on="0"/>
        <pt x="180" y="269" on="0"/>
        <pt x="211" y="258" on="1"/>
        <pt x="254" y="285" on="0"/>
        <pt x="254" y="318" on="1"/>
        <pt x="254" y="338" on="0"/>
        <pt x="228" y="363" on="0"/>
        <pt x="201" y="363" on="1"/>
        <pt x="148" y="363" on="0"/>
      </contour>
    </TTGlyph>
    <TTGlyph name="glyph00705" xMin="34" yMin="-15" xMax="356" yMax="431">
      <contour>
        <pt x="68" y="56" on="1"/>
        <pt x="140" y="73" on="0"/>
        <pt x="237" y="133" on="0"/>
        <pt x="259" y="191" on="1"/>
        <pt x="256" y="192" on="1"/>
        <pt x="223" y="150" on="0"/>
        <pt x="163" y="150" on="1"/>
        <pt x="136" y="150" on="0"/>
        <pt x="89" y="169" on="0"/>
        <pt x="54" y="204" on="0"/>
        <pt x="34" y="254" on="0"/>
        <pt x="34" y="286" on="1"/>
        <pt x="34" y="320" on="0"/>
        <pt x="60" y="374" on="0"/>
        <pt x="104" y="411" on="0"/>
        <pt x="163" y="431" on="0"/>
        <pt x="197" y="431" on="1"/>
        <pt x="275" y="431" on="0"/>
        <pt x="356" y="337" on="0"/>
        <pt x="356" y="262" on="1"/>
        <pt x="356" y="203" on="0"/>
        <pt x="324" y="113" on="0"/>
        <pt x="258" y="47" on="0"/>
        <pt x="158" y="1" on="0"/>
        <pt x="90" y="-15" on="1"/>
      </contour>
      <contour>
        <pt x="189" y="219" on="1"/>
        <pt x="207" y="219" on="0"/>
        <pt x="242" y="234" on="0"/>
        <pt x="257" y="253" on="1"/>
        <pt x="257" y="314" on="0"/>
        <pt x="225" y="360" on="0"/>
        <pt x="195" y="360" on="1"/>
        <pt x="169" y="360" on="0"/>
        <pt x="134" y="326" on="0"/>
        <pt x="134" y="288" on="1"/>
        <pt x="134" y="250" on="0"/>
        <pt x="166" y="219" on="0"/>
      </contour>
    </TTGlyph>
    <TTGlyph name="glyph00706" xMin="69" yMin="97" xMax="330" yMax="301">
      <contour>
        <pt x="69" y="97" on="1"/>
        <pt x="69" y="173" on="1"/>
        <pt x="330" y="173" on="1"/>
        <pt x="330" y="97" on="1"/>
      </contour>
      <contour>
        <pt x="69" y="225" on="1"/>
        <pt x="69" y="301" on="1"/>
        <pt x="330" y="301" on="1"/>
        <pt x="330" y="225" on="1"/>
      </contour>
    </TTGlyph>
    <TTGlyph name="glyph00707" xMin="70" yMin="161" xMax="330" yMax="237">
      <contour>
        <pt x="70" y="161" on="1"/>
        <pt x="70" y="237" on="1"/>
        <pt x="330" y="237" on="1"/>
        <pt x="330" y="161" on="1"/>
      </contour>
    </TTGlyph>
    <TTGlyph name="glyph00709" xMin="7" yMin="0" xMax="520" yMax="673">
      <component glyphName="glyph00754" x="0" y="0" flags="0x204"/>
    </TTGlyph>
    <TTGlyph name="glyph00710" xMin="7" yMin="-158" xMax="512" yMax="828">
      <component glyphName="glyph00755" x="-7" y="0" flags="0x4"/>
    </TTGlyph>
    <TTGlyph name="glyph00711" xMin="56" yMin="-34" xMax="804" yMax="714">
      <component glyphName="glyph00756" x="0" y="0" flags="0x204"/>
    </TTGlyph>
    <TTGlyph name="glyph00712" xMin="51" yMin="111" xMax="458" yMax="519">
      <component glyphName="glyph00757" x="0" y="0" flags="0x204"/>
    </TTGlyph>
    <TTGlyph name="glyph00713" xMin="28" yMin="-15" xMax="579" yMax="578">
      <contour>
        <pt x="156" y="283" on="1"/>
        <pt x="156" y="227" on="0"/>
        <pt x="181" y="150" on="0"/>
        <pt x="222" y="102" on="0"/>
        <pt x="275" y="81" on="0"/>
        <pt x="303" y="81" on="1"/>
        <pt x="331" y="81" on="0"/>
        <pt x="384" y="102" on="0"/>
        <pt x="426" y="150" on="0"/>
        <pt x="451" y="227" on="0"/>
        <pt x="451" y="283" on="1"/>
        <pt x="451" y="339" on="0"/>
        <pt x="426" y="415" on="0"/>
        <pt x="384" y="462" on="0"/>
        <pt x="331" y="483" on="0"/>
        <pt x="303" y="483" on="1"/>
        <pt x="275" y="483" on="0"/>
        <pt x="222" y="462" on="0"/>
        <pt x="181" y="415" on="0"/>
        <pt x="156" y="339" on="0"/>
      </contour>
      <contour>
        <pt x="579" y="283" on="1"/>
        <pt x="579" y="215" on="0"/>
        <pt x="539" y="105" on="0"/>
        <pt x="466" y="27" on="0"/>
        <pt x="364" y="-15" on="0"/>
        <pt x="303" y="-15" on="1"/>
        <pt x="242" y="-15" on="0"/>
        <pt x="141" y="27" on="0"/>
        <pt x="68" y="105" on="0"/>
        <pt x="28" y="215" on="0"/>
        <pt x="28" y="283" on="1"/>
        <pt x="28" y="352" on="0"/>
        <pt x="68" y="461" on="0"/>
        <pt x="140" y="537" on="0"/>
        <pt x="241" y="578" on="0"/>
        <pt x="303" y="578" on="1"/>
        <pt x="365" y="578" on="0"/>
        <pt x="467" y="537" on="0"/>
        <pt x="539" y="461" on="0"/>
        <pt x="579" y="352" on="0"/>
      </contour>
    </TTGlyph>
    <TTGlyph name="glyph00714" xMin="14" yMin="0" xMax="340" yMax="572">
      <contour>
        <pt x="214" y="0" on="1"/>
        <pt x="214" y="440" on="1"/>
        <pt x="70" y="353" on="1"/>
        <pt x="14" y="439" on="1"/>
        <pt x="227" y="572" on="1"/>
        <pt x="340" y="572" on="1"/>
        <pt x="340" y="0" on="1"/>
      </contour>
    </TTGlyph>
    <TTGlyph name="glyph00715" xMin="17" yMin="0" xMax="470" yMax="578">
      <contour>
        <pt x="458" y="397" on="1"/>
        <pt x="458" y="362" on="0"/>
        <pt x="441" y="302" on="0"/>
        <pt x="385" y="234" on="0"/>
        <pt x="279" y="154" on="0"/>
        <pt x="190" y="100" on="1"/>
        <pt x="470" y="100" on="1"/>
        <pt x="456" y="0" on="1"/>
        <pt x="31" y="0" on="1"/>
        <pt x="31" y="94" on="1"/>
        <pt x="129" y="162" on="0"/>
        <pt x="246" y="252" on="0"/>
        <pt x="307" y="315" on="0"/>
        <pt x="326" y="363" on="0"/>
        <pt x="326" y="390" on="1"/>
        <pt x="326" y="431" on="0"/>
        <pt x="273" y="480" on="0"/>
        <pt x="229" y="480" on="1"/>
        <pt x="191" y="480" on="0"/>
        <pt x="128" y="447" on="0"/>
        <pt x="97" y="410" on="1"/>
        <pt x="17" y="469" on="1"/>
        <pt x="61" y="523" on="0"/>
        <pt x="168" y="578" on="0"/>
        <pt x="239" y="578" on="1"/>
        <pt x="290" y="578" on="0"/>
        <pt x="371" y="550" on="0"/>
        <pt x="428" y="501" on="0"/>
        <pt x="458" y="435" on="0"/>
      </contour>
    </TTGlyph>
    <TTGlyph name="glyph00716" xMin="8" yMin="-124" xMax="472" yMax="578">
      <contour>
        <pt x="472" y="82" on="1"/>
        <pt x="472" y="38" on="0"/>
        <pt x="439" y="-37" on="0"/>
        <pt x="377" y="-92" on="0"/>
        <pt x="286" y="-124" on="0"/>
        <pt x="229" y="-124" on="1"/>
        <pt x="89" y="-124" on="0"/>
        <pt x="8" y="-25" on="1"/>
        <pt x="84" y="42" on="1"/>
        <pt x="114" y="8" on="0"/>
        <pt x="181" y="-25" on="0"/>
        <pt x="222" y="-25" on="1"/>
        <pt x="279" y="-25" on="0"/>
        <pt x="340" y="36" on="0"/>
        <pt x="340" y="88" on="1"/>
        <pt x="340" y="151" on="0"/>
        <pt x="276" y="207" on="0"/>
        <pt x="218" y="207" on="1"/>
        <pt x="165" y="207" on="1"/>
        <pt x="180" y="297" on="1"/>
        <pt x="215" y="297" on="1"/>
        <pt x="263" y="297" on="0"/>
        <pt x="326" y="340" on="0"/>
        <pt x="326" y="391" on="1"/>
        <pt x="326" y="436" on="0"/>
        <pt x="269" y="483" on="0"/>
        <pt x="224" y="483" on="1"/>
        <pt x="183" y="483" on="0"/>
        <pt x="120" y="452" on="0"/>
        <pt x="88" y="422" on="1"/>
        <pt x="23" y="491" on="1"/>
        <pt x="70" y="536" on="0"/>
        <pt x="172" y="578" on="0"/>
        <pt x="235" y="578" on="1"/>
        <pt x="287" y="578" on="0"/>
        <pt x="367" y="552" on="0"/>
        <pt x="422" y="506" on="0"/>
        <pt x="450" y="445" on="0"/>
        <pt x="450" y="409" on="1"/>
        <pt x="450" y="347" on="0"/>
        <pt x="375" y="272" on="0"/>
        <pt x="320" y="259" on="1"/>
        <pt x="320" y="255" on="1"/>
        <pt x="349" y="252" on="0"/>
        <pt x="404" y="228" on="0"/>
        <pt x="446" y="185" on="0"/>
        <pt x="472" y="123" on="0"/>
      </contour>
    </TTGlyph>
    <TTGlyph name="glyph00717" xMin="29" yMin="-112" xMax="517" yMax="579">
      <contour>
        <pt x="442" y="34" on="1"/>
        <pt x="442" y="-112" on="1"/>
        <pt x="320" y="-112" on="1"/>
        <pt x="320" y="34" on="1"/>
        <pt x="29" y="34" on="1"/>
        <pt x="29" y="119" on="1"/>
        <pt x="225" y="579" on="1"/>
        <pt x="332" y="537" on="1"/>
        <pt x="161" y="130" on="1"/>
        <pt x="320" y="130" on="1"/>
        <pt x="334" y="301" on="1"/>
        <pt x="442" y="301" on="1"/>
        <pt x="442" y="130" on="1"/>
        <pt x="517" y="130" on="1"/>
        <pt x="517" y="34" on="1"/>
      </contour>
    </TTGlyph>
</ttFont>
